/* XPM */
static char *result[] = {
/* columns rows colors chars-per-pixel */
"64 64 216 2 ",
"   c #261D2C",
".  c #29202E",
"X  c #29202F",
"o  c #2A212F",
"O  c #292130",
"+  c #2A2130",
"@  c #2B2230",
"#  c #2B2231",
"$  c #2B2331",
"%  c #2C2230",
"&  c #2C2330",
"*  c #2C2331",
"=  c #2C2332",
"-  c #2D2332",
";  c #2C2432",
":  c #2D2432",
">  c #2D2433",
",  c #2E2432",
"<  c #2E2533",
"1  c #312835",
"2  c #302836",
"3  c #312836",
"4  c #332B38",
"5  c #342B38",
"6  c #362E3D",
"7  c #382F3C",
"8  c #3A303B",
"9  c #39313C",
"0  c #3A323C",
"q  c #3B323C",
"w  c #3B333D",
"e  c #38303F",
"r  c #39313F",
"t  c #3B323E",
"y  c #3C333D",
"u  c #3D353F",
"i  c #3E343E",
"p  c #3E353F",
"a  c #40363F",
"s  c #393140",
"d  c #393241",
"f  c #3A3241",
"g  c #3A3343",
"h  c #3D3540",
"j  c #3C3544",
"k  c #3D3646",
"l  c #3D3746",
"z  c #3E3746",
"x  c #3F3846",
"c  c #3F3847",
"v  c #3F3848",
"b  c #403640",
"n  c #403740",
"m  c #423841",
"M  c #433941",
"N  c #413942",
"B  c #433942",
"V  c #453D45",
"C  c #473C44",
"Z  c #483E46",
"A  c #403948",
"S  c #403949",
"D  c #413A49",
"F  c #413B4A",
"G  c #423B4A",
"H  c #423C4B",
"J  c #433C4C",
"K  c #4D434A",
"L  c #4F444A",
"P  c #50454B",
"I  c #50464C",
"U  c #52474D",
"Y  c #4F4752",
"T  c #5D545C",
"R  c #5C575D",
"E  c #655959",
"W  c #545060",
"Q  c #5A5667",
"!  c #5F5D6F",
"~  c #645B60",
"^  c #615E6E",
"/  c #625F71",
"(  c #6C6160",
")  c #646071",
"_  c #6B6877",
"`  c #7B7879",
"'  c #857871",
"]  c #877B73",
"[  c #887C74",
"{  c #897C74",
"}  c #8A7E75",
"|  c #8B7E76",
" . c #8C7F76",
".. c #84797C",
"X. c #8D8077",
"o. c #93867C",
"O. c #94877D",
"+. c #737183",
"@. c #747280",
"#. c #727184",
"$. c #737284",
"%. c #747384",
"&. c #747385",
"*. c #747386",
"=. c #767585",
"-. c #757486",
";. c #757487",
":. c #757587",
">. c #767587",
",. c #777689",
"<. c #7D7D8F",
"1. c #7E7E91",
"2. c #8B8281",
"3. c #8B868D",
"4. c #8C878C",
"5. c #918D83",
"6. c #988C81",
"7. c #9A8C81",
"8. c #9D8F83",
"9. c #9F9285",
"0. c #9C988B",
"q. c #8F8E94",
"w. c #908F9C",
"e. c #A09285",
"r. c #A09387",
"t. c #A99C8D",
"y. c #B3A79A",
"u. c #B6AA9B",
"i. c #B0AE9E",
"p. c #8B8DA1",
"a. c #9596A6",
"s. c #9B9AA5",
"d. c #9C9AA5",
"f. c #9E9CA5",
"g. c #9F9CA5",
"h. c #9F9DA6",
"j. c #9395A8",
"k. c #9295A9",
"l. c #9395AA",
"z. c #9396AA",
"x. c #9496AA",
"c. c #9497AA",
"v. c #9598A9",
"b. c #9799AA",
"n. c #979AAA",
"m. c #9598AC",
"M. c #9699AD",
"N. c #989AAA",
"B. c #999BAA",
"V. c #999BAB",
"C. c #9A9CAA",
"Z. c #9B9DAA",
"A. c #9B9DAB",
"S. c #9F9FAB",
"D. c #9A9CAC",
"F. c #9B9DAD",
"G. c #9B9DAE",
"H. c #9C9FAD",
"J. c #9D9FAD",
"K. c #9E9FAD",
"L. c #A09EA7",
"P. c #A09FAA",
"I. c #AFA7A2",
"U. c #A1A0AB",
"Y. c #A4A1A9",
"T. c #A5A3AB",
"R. c #ABAAAF",
"E. c #B3ABA6",
"W. c #B8ADA1",
"Q. c #B9ADA1",
"!. c #B9AEA0",
"~. c #B9AEA1",
"^. c #BAAFA2",
"/. c #BCB1A3",
"(. c #BDB1A3",
"). c #ADAFB2",
"_. c #B0B1B6",
"`. c #C4B59F",
"'. c #C5B59F",
"]. c #C5B69F",
"[. c #C6B69F",
"{. c #C6B6A0",
"}. c #C6B7A0",
"|. c #C7B7A0",
" X c #C7B8A1",
".X c #C8B8A1",
"XX c #C9B9A1",
"oX c #C8B8A2",
"OX c #C9B9A2",
"+X c #CABAA3",
"@X c #CABBA3",
"#X c #C8BBA4",
"$X c #CBBBA4",
"%X c #C9BDA5",
"&X c #CABCA5",
"*X c #CBBEA6",
"=X c #CBBFA7",
"-X c #CCBCA5",
";X c #CCBDA5",
":X c #CCBFA7",
">X c #CEBEA6",
",X c #C4BBAA",
"<X c #CBCCB9",
"1X c #D1CFBB",
"2X c #D7D1B6",
"3X c #D9D5B9",
"4X c #DCD7BB",
"5X c #DDD9BC",
"6X c #E5E6C7",
"7X c #E6E7C8",
"8X c #E6E8C9",
"9X c #E8EACA",
"0X c #E9EBCA",
"qX c #EAEBCB",
"wX c #ECEECD",
"eX c None",
/* pixels */
"eXeXeXeXeXeXeXeXeXeXeXeXeXeXeXeXeXeXeXeXeXeXeXeXeXeXeXeXeXeXeXeXeXeXeXeXeXeXeXeXeXeXeXeXeXeXeXeXeXeXeXeXeXeXeXeXeXeXeXeXeXeXeXeX",
"eXeXeXeXeXeXeXeXeXeXeXeXeXeXeXeXeXeXeXeXeXeXeXeXeXeXeXeXeXeXeXeXeXeXeXeXeXeXeXeXeXeXeXeXeXeXeXeXeXeXeXeXeXeXeXeXeXeXeXeXeXeXeXeX",
"eXeXeXeXeXeXeXeXeXeXeXeXeXeXeXeXeXeXeXeXeXeXeXeXeXeXeXeXeXeXeXeXeXeXeXeXeXeXeXeXeXeXeXeXeXeXeXeXeXeXeXeXeXeXeXeXeXeXeXeXeXeXeXeX",
"eXeXeXeXeXeXeXeXeXeXeXeXeXeXeXeXeXeXeXeXeXeXeXeXeXeXeXeXeXeXeXeXeXeXeXeXeXeXeXeXeXeXeXeXeXeXeXeXeXeXeXeXeXeXeXeXeXeXeXeXeXeXeXeX",
"eXeXeXeXeXeXeXeXeXeXeXeXeXeXeXeXeXeXeXeXeXeXeXeXeXeXeXeXeXeXeXeXeXeXeXeXeXeXeXeXeXeXeXeXeXeXeXeXeXeXeXeXeXeXeXeXeXeXeXeXeXeXeXeX",
"eXeXeXeXeXeXeXeXeXeXeXeXeXeXeXeXeXeXeXeXeXeXeXeXeXeXeXeXeXeXeXeXeXeXeXeXeXeXeXeXeXeXeXeXeXeXeXeXeXeXeXeXeXeXeXeXeXeXeXeXeXeXeXeX",
"eXeXeXeXeXeXeXeXeXeXeXeXeXeXeXeXeXeXeXeXeXeXeXeXeXeXeXeXeX* # + + O O O eXeXeXeXeXeXeXeXeXeXeXeXeXeXeXeXeXeXeXeXeXeXeXeXeXeXeXeX",
"eXeXeXeXeXeXeXeXeXeXeXeXeXeXeXeXeXeXeXeXeXeXeXeXeXeXeXeX8 n Z K I U U L eXeXeXeXeXeXeXeXeXeXeXeXeXeXeXeXeXeXeXeXeXeXeXeXeXeXeXeX",
"eXeXeXeXeXeXeXeXeXeXeXeXeXeXeXeXeXeXeXeXeXeXeXeXeXeXeXeXeXeXO.7.8.9.e.{ P   eXeXeXeXeXeXeXeXeXeXeXeXeXeXeXeXeXeXeXeXeXeXeXeXeXeX",
"eXeXeXeXeXeXeXeXeXeXeXeXeXeXeXeXeXeXeXeXeXeXeXeXeXeX# p eXeX$XoX XOX+Xt.~ g eXeXeXeXeXeXeXeXeXeXeXeXeXeXeXeXeXeXeXeXeXeXeXeXeXeX",
"eXeXeXeXeXeXeXeXeXeXeXeXeXeXeXeXeXeXeXeXeXeXeXeXeXeX# B  .-XOX}.{.|.|.u.4.! l eXeXeXeXeXeXeXeXeXeXeXeXeXeXeXeXeXeXeXeXeXeXeXeXeX",
"eXeXeXeXeXeXeXeXeXeXeXeXeXeXeXeXeXeXeXeXeXeXeXeXeXeX4 I 6.:X&X#X%X*X=X,XR.*.S % eXeXeXeXeXeXeXeXeXeXeXeXeXeXeXeXeXeXeXeXeXeXeXeX",
"eXeXeXeXeXeXeXeXeXeXeXeXeXeXeXeXeXeXeXeXeXeXeXeXeXeXeXeXeXeXeX2X3X4X5X1X_.#.v & eXeXeXeXeXeXeXeXeXeXeXeXeXeXeXeXeXeXeXeXeXeXeXeX",
"eXeXeXeXeXeXeXeXeXeXeXeXeXeXeXeXeXeXeXeXeXeXeXeXeXeXeXeXeXeXeXeX8X9X0X<Xq.Q d * eXeXeXeXeXeXeXeXeXeXeXeXeXeXeXeXeXeXeXeXeXeXeXeX",
"eXeXeXeXeXeXeXeXeXeXeXeXeXeXeXeXeXeXeXeXeXeXeXeX: 5 eXeXeXeX7X7X7XqXwXi.R e 2 , eXeXeXeXeXeXeXeXeXeXeXeXeXeXeXeXeXeXeXeXeXeXeXeX",
"eXeXeXeXeXeXeXeXeXeXeXeXeXeXeXeXeXeXeXeXeXeXeXeX< 1 eXeXeXeX6X6X6XeXeX0.V @ = < eXeXeXeXeXeXeXeXeXeXeXeXeXeXeXeXeXeXeXeXeXeXeXeX",
"eXeXeXeXeXeXeXeXeXeXeXeXeXeXeXeXeXeXeXeXeXeXeXeX< < eXeXeXeX6X6XeXeXeX5.N * : < eXeXeXeXeXeXeXeXeXeXeXeXeXeXeXeXeXeXeXeXeXeXeXeX",
"eXeXeXeXeXeXeXeXeXeXeXeXeXeXeXeXeXeXeXeXeXeXeXeX< < eXeXeXeXeXeXeXeXeXeXu : : < eXeXeXeXeXeXeXeXeXeXeXeXeXeXeXeXeXeXeXeXeXeXeXeX",
"eXeXeXeXeXeXeXeXeXeXeXeXeXeXeXeXeXeXeXeXeXeXeXeX< < eXeXeXeXeXeXeXeXeXeX9 : > < eXeXeXeXeXeXeXeXeXeXeXeXeXeXeXeXeXeXeXeXeXeXeXeX",
"eXeXeXeXeXeXeXeXeXeXeXeXeXeXeXeXeXeXeXeXeXeXeXeX< < eXeXeXeXeXeXeXeXeXeX7 = : < eXeXeXeXeXeXeXeXeXeXeXeXeXeXeXeXeXeXeXeXeXeXeXeX",
"eXeXeXeXeXeXeXeXeXeXeXeXeXeXeXeXeXeXeXeXeXeXeXeX< < eXeXeXeXeXeXeXeXeX_ f * : < eXeXeXeXeXeXeXeXeXeXeXeXeXeXeXeXeXeXeXeXeXeXeXeX",
"eXeXeXeXeXeXeXeXeXeXeXeXeXeXeXeXeXeXeXeXeXeXeXeX< < eXeXeXeXeXeXeXeXeX=.Y 8 1 < eXeXeXeXeXeXeXeXeXeXeXeXeXeXeXeXeXeXeXeXeXeXeXeX",
"eXeXeXeXeXeXeXeXeXeXeXeXeXeXeXeXeXeXeXeXeXeXeXeX< < eXeXeXeXeXeXeXeXeXw.2.E q ; eXeXeXeXeXeXeXeXeXeXeXeXeXeXeXeXeXeXeXeXeXeXeXeX",
"eXeXeXeXeXeXeXeXeXeXeXeXeXeXeXeXeXeXeXeXeXeXeXeX< < eXeXeXeXeXeXeXeXB.S.eX] a = eXeXeXeXeXeXeXeXeXeXeXeXeXeXeXeXeXeXeXeXeXeXeXeX",
"eXeXeXeXeXeXeXeXeXeXeXeXeXeXeXeXeXeXeXeXeXeXeXeX< < eXeXeXeXeXeXeXeXC.K.eXeXy = eXeXeXeXeXeXeXeXeXeXeXeXeXeXeXeXeXeXeXeXeXeXeXeX",
"eXeXeXeXeXeXeXeXeXeXeXeXeXeXeXeXeXeXeXeXeXeXeXeX< 3 eXeXeXeXeXeXeXeXZ.H.eXeX0 : eXeXeXeXeXeXeXeXeXeXeXeXeXeXeXeXeXeXeXeXeXeXeXeX",
"eXeXeXeXeXeXeXeXeXeXeXeXeXeXeXeXeXeXeXeXeXeXeXeX: 6 eXeXeXeXeXeXeXeXA.H.eXeXw : eXeXeXeXeXeXeXeXeXeXeXeXeXeXeXeXeXeXeXeXeXeXeXeX",
"eXeXeXeXeXeXeXeXeXeXeXeXeXeXeXeXeXeXeXeXeXeXeXeX: s eXeXeXeXeXeXeX).N.J.eXeXw - eXeXeXeXeXeXeXeXeXeXeXeXeXeXeXeXeXeXeXeXeXeXeXeX",
"eXeXeXeXeXeXeXeXeXeXeXeXeXeXeXeXeXeXeXeXeXeXeXeX: s eXeXeXeXv.n.V.b.j.J.eXeXw - eXeXeXeXeXeXeXeXeXeXeXeXeXeXeXeXeXeXeXeXeXeXeXeX",
"eXeXeXeXeXeXeXeXeXeXeXeXeXeXeXeXeXeXeXeXeXeXeXeX: r eXeXeXg.g.g.g.s.a.D.eX` h * eXeXeXeXeXeXeXeXeXeXeXeXeXeXeXeXeXeXeXeXeXeXeXeX",
"eXeXeXeXeXeXeXeXeXeXeXeXeXeXeXeXeXeXeXeXeXeXeXeX; t eXeXeX~.Q.~.!.I.d.c.G.@.x * eXeXeXeXeXeXeXeXeXeXeXeXeXeXeXeXeXeXeXeXeXeXeXeX",
"eXeXeXeXeXeXeXeXeXeXeXeXeXeXeXeXeXeXeXeXeXeXeXeX= i eXeXXX].].[.[.~.g.k.z.+.D % eXeXeXeXeXeXeXeXeXeXeXeXeXeXeXeXeXeXeXeXeXeXeXeX",
"eXeXeXeXeXeXeXeXeXeXeXeXeXeXeXeXeXeXeXeXeXeXeXeX* b ' eX.X'.'.].[.W.f.k.x.$.D % eXeXeXeXeXeXeXeXeXeXeXeXeXeXeXeXeXeXeXeXeXeXeXeX",
"eXeXeXeXeXeXeXeXeXeXeXeXeXeXeXeXeXeXeXeXeXeXeXeX* m [ @X X`.`.'.].W.f.l.m.&.D % eXeXeXeXeXeXeXeXeXeXeXeXeXeXeXeXeXeXeXeXeXeXeXeX",
"eXeXeXeXeXeXeXeXeXeXeXeXeXeXeXeXeXeXeXeXeXeXeXeX$ B } +X X`.`.'.].W.f.z.M.%.A % eXeXeXeXeXeXeXeXeXeXeXeXeXeXeXeXeXeXeXeXeXeXeXeX",
"eXeXeXeXeXeXeXeXeXeXeXeXeXeXeXeXeXeXeXeXeXeXeXeX$ B  .>X@X}.].].[.~.h.p.<.^ z & eXeXeXeXeXeXeXeXeXeXeXeXeXeXeXeXeXeXeXeXeXeXeXeX",
"eXeXeXeXeXeXeXeXeXeXeXeXeXeXeXeXeXeXeXeXeXeXeXeX* m | eX;X X{.[.[.^.L.1.W j eXeXeXeXeXeXeXeXeXeXeXeXeXeXeXeXeXeXeXeXeXeXeXeXeXeX",
"eXeXeXeXeXeXeXeXeXeXeXeXeXeXeXeXeXeXeXeXeXeXeXeXeXb ( X.o.r.y.(./.E.P.,.J . eXeXeXeXeXeXeXeXeXeXeXeXeXeXeXeXeXeXeXeXeXeXeXeXeXeX",
"eXeXeXeXeXeXeXeXeXeXeXeXeXeXeXeXeXeXeXeXeXeXeXeXeXeXb M C T 3.T.Y.U.F.>.G o eXeXeXeXeXeXeXeXeXeXeXeXeXeXeXeXeXeXeXeXeXeXeXeXeXeX",
"eXeXeXeXeXeXeXeXeXeXeXeXeXeXeXeXeXeXeXeXeXeXeXeXeXeXeX+ X k / ;.;.:.-.) A % eXeXeXeXeXeXeXeXeXeXeXeXeXeXeXeXeXeXeXeXeXeXeXeXeXeX",
"eXeXeXeXeXeXeXeXeXeXeXeXeXeXeXeXeXeXeXeXeXeXeXeXeXeXeXeXeXeXc F H H G A eXeXeXeXeXeXeXeXeXeXeXeXeXeXeXeXeXeXeXeXeXeXeXeXeXeXeXeX",
"eXeXeXeXeXeXeXeXeXeXeXeXeXeXeXeXeXeXeXeXeXeXeXeXeXeXeXeXeXeX% % @ @ % % eXeXeXeXeXeXeXeXeXeXeXeXeXeXeXeXeXeXeXeXeXeXeXeXeXeXeXeX",
"eXeXeXeXeXeXeXeXeXeXeXeXeXeXeXeXeXeXeXeXeXeXeXeXeXeXeXeXeXeXeXeXeXeXeXeXeXeXeXeXeXeXeXeXeXeXeXeXeXeXeXeXeXeXeXeXeXeXeXeXeXeXeXeX",
"eXeXeXeXeXeXeXeXeXeXeXeXeXeXeXeXeXeXeXeXeXeXeXeXeXeXeXeXeXeXeXeXeXeXeXeXeXeXeXeXeXeXeXeXeXeXeXeXeXeXeXeXeXeXeXeXeXeXeXeXeXeXeXeX",
"eXeXeXeXeXeXeXeXeXeXeXeXeXeXeXeXeXeXeXeXeXeXeXeXeXeXeXeXeXeXeXeXeXeXeXeXeXeXeXeXeXeXeXeXeXeXeXeXeXeXeXeXeXeXeXeXeXeXeXeXeXeXeXeX",
"eXeXeXeXeXeXeXeXeXeXeXeXeXeXeXeXeXeXeXeXeXeXeXeXeXeXeXeXeXeXeXeXeXeXeXeXeXeXeXeXeXeXeXeXeXeXeXeXeXeXeXeXeXeXeXeXeXeXeXeXeXeXeXeX",
"eXeXeXeXeXeXeXeXeXeXeXeXeXeXeXeXeXeXeXeXeXeXeXeXeXeXeXeXeXeXeXeXeXeXeXeXeXeXeXeXeXeXeXeXeXeXeXeXeXeXeXeXeXeXeXeXeXeXeXeXeXeXeXeX",
"eXeXeXeXeXeXeXeXeXeXeXeXeXeXeXeXeXeXeXeXeXeXeXeXeXeXeXeXeXeXeXeXeXeXeXeXeXeXeXeXeXeXeXeXeXeXeXeXeXeXeXeXeXeXeXeXeXeXeXeXeXeXeXeX",
"eXeXeXeXeXeXeXeXeXeXeXeXeXeXeXeXeXeXeXeXeXeXeXeXeXeXeXeXeXeXeXeXeXeXeXeXeXeXeXeXeXeXeXeXeXeXeXeXeXeXeXeXeXeXeXeXeXeXeXeXeXeXeXeX",
"eXeXeXeXeXeXeXeXeXeXeXeXeXeXeXeXeXeXeXeXeXeXeXeXeXeXeXeXeXeXeXeXeXeXeXeXeXeXeXeXeXeXeXeXeXeXeXeXeXeXeXeXeXeXeXeXeXeXeXeXeXeXeXeX",
"eXeXeXeXeXeXeXeXeXeXeXeXeXeXeXeXeXeXeXeXeXeXeXeXeXeXeXeXeXeXeXeXeXeXeXeXeXeXeXeXeXeXeXeXeXeXeXeXeXeXeXeXeXeXeXeXeXeXeXeXeXeXeXeX",
"eXeXeXeXeXeXeXeXeXeXeXeXeXeXeXeXeXeXeXeXeXeXeXeXeXeXeXeXeXeXeXeXeXeXeXeXeXeXeXeXeXeXeXeXeXeXeXeXeXeXeXeXeXeXeXeXeXeXeXeXeXeXeXeX",
"eXeXeXeXeXeXeXeXeXeXeXeXeXeXeXeXeXeXeXeXeXeXeXeXeXeXeXeXeXeXeXeXeXeXeXeXeXeXeXeXeXeXeXeXeXeXeXeXeXeXeXeXeXeXeXeXeXeXeXeXeXeXeXeX",
"eXeXeXeXeXeXeXeXeXeXeXeXeXeXeXeXeXeXeXeXeXeXeXeXeXeX........................eXeXeXeXeXeXeXeXeXeXeXeXeXeXeXeXeXeXeXeXeXeXeXeXeXeX",
"eXeXeXeXeXeXeXeXeXeXeXeXeXeXeXeXeXeXeXeXeXeXeXeXeXeX........................eXeXeXeXeXeXeXeXeXeXeXeXeXeXeXeXeXeXeXeXeXeXeXeXeXeX",
"eXeXeXeXeXeXeXeXeXeXeXeXeXeXeXeXeXeXeXeXeXeX........................................eXeXeXeXeXeXeXeXeXeXeXeXeXeXeXeXeXeXeXeXeXeX",
"eXeXeXeXeXeXeXeXeXeXeXeXeXeXeXeXeXeXeXeXeX............................................eXeXeXeXeXeXeXeXeXeXeXeXeXeXeXeXeXeXeXeXeX",
"eXeXeXeXeXeXeXeXeXeXeXeXeXeXeXeXeXeXeXeXeX............................................eXeXeXeXeXeXeXeXeXeXeXeXeXeXeXeXeXeXeXeXeX",
"eXeXeXeXeXeXeXeXeXeXeXeXeXeXeXeXeXeXeXeXeXeX........................................eXeXeXeXeXeXeXeXeXeXeXeXeXeXeXeXeXeXeXeXeXeX",
"eXeXeXeXeXeXeXeXeXeXeXeXeXeXeXeXeXeXeXeXeXeXeXeXeXeX........................eXeXeXeXeXeXeXeXeXeXeXeXeXeXeXeXeXeXeXeXeXeXeXeXeXeX",
"eXeXeXeXeXeXeXeXeXeXeXeXeXeXeXeXeXeXeXeXeXeXeXeXeXeX........................eXeXeXeXeXeXeXeXeXeXeXeXeXeXeXeXeXeXeXeXeXeXeXeXeXeX",
"eXeXeXeXeXeXeXeXeXeXeXeXeXeXeXeXeXeXeXeXeXeXeXeXeXeXeXeXeXeXeXeXeXeXeXeXeXeXeXeXeXeXeXeXeXeXeXeXeXeXeXeXeXeXeXeXeXeXeXeXeXeXeXeX",
"eXeXeXeXeXeXeXeXeXeXeXeXeXeXeXeXeXeXeXeXeXeXeXeXeXeXeXeXeXeXeXeXeXeXeXeXeXeXeXeXeXeXeXeXeXeXeXeXeXeXeXeXeXeXeXeXeXeXeXeXeXeXeXeX",
"eXeXeXeXeXeXeXeXeXeXeXeXeXeXeXeXeXeXeXeXeXeXeXeXeXeXeXeXeXeXeXeXeXeXeXeXeXeXeXeXeXeXeXeXeXeXeXeXeXeXeXeXeXeXeXeXeXeXeXeXeXeXeXeX"
};
