/* XPM */
static char *result[] = {
/* columns rows colors chars-per-pixel */
"64 64 58 1 ",
"  c #FCFEFC",
". c #EDEFEF",
"X c #C8C7C7",
"o c #B2B2B0",
"O c #D8D9DE",
"+ c #F9FAF9",
"@ c #5D5C5C",
"# c #090A0A",
"$ c #1A1E1E",
"% c #191B1A",
"& c #939090",
"* c #F6F4F5",
"= c #E9EAEC",
"- c #4B4A4E",
"; c #C2C2C0",
": c #E5E5EC",
"> c #DDDEE4",
", c #9C9A9A",
"< c #101313",
"1 c #FBFCFB",
"2 c #A9AAAA",
"3 c #D4D4D5",
"4 c #FBFBFA",
"5 c #2C2B2C",
"6 c #757271",
"7 c #625E5C",
"8 c #D0D0D4",
"9 c #070807",
"0 c #F5F5F7",
"q c #CBCCCC",
"w c #2E2F31",
"e c #0D1111",
"r c #939698",
"t c #2E2627",
"y c #050405",
"u c #040304",
"i c #0A0D0D",
"p c gray93",
"a c #121515",
"s c #646563",
"d c gray25",
"f c #8F8C88",
"g c #060606",
"h c #464546",
"j c #FBFDFB",
"k c gray3",
"l c #3E3F40",
"z c #363634",
"x c #BABAB9",
"c c #FCFDFC",
"v c #515257",
"b c #333435",
"n c #6D6C6D",
"m c #81726F",
"M c #58595D",
"N c #171919",
"B c #FAFAF9",
"V c #2A2A90",
/* pixels */
"                                                                ",
"                                                                ",
"                                                                ",
"                                                                ",
"                                                                ",
"                                                                ",
"                                                                ",
"                                                                ",
"                                                                ",
"                                                                ",
"                                                                ",
"                                                                ",
"                                                                ",
"                                 .XooO+                         ",
"                                O@#$%%&*                        ",
"                               =--;:>,<,1                       ",
"                               2$3   4&5:                       ",
"                              167+    89X                       ",
"                              1670    39X                       ",
"                              qwe24  1rt>                       ",
"                             qwyui2p:2ar1                       ",
"                            qw7std#wt<f*                        ",
"                           Xw7=f-:fghq+                         ",
"                          X5s=jf-**f<2+                         ",
"                j>OO3qq;;25s= jf-* 0fer;;;Xqqq8p                ",
"                >5aaekkyygs=  jf-*  0&iyyygkkk#r                ",
"                0X;;q88>>>*   jf-*   +:>>>O8888=                ",
"                              jf-*                              ",
"                              jf-*                              ",
"                              jf-*                              ",
"                              jf-*                              ",
"                              jfh*                              ",
"                              >le;                              ",
"                             *6zsl:                             ",
"                            j2<x>l6+                            ",
"                            8$f+cxex                            ",
"                           .vv. c+6z:                           ",
"                          +f$8c cc>b6+                          ",
"                          xi21    cxex                          ",
"                         >zn0      +6z>                         ",
"                        cmw>        >zfj                        ",
"                        c&b.        +M6j                        ",
"                         qiX        :a2                         ",
"                         .-mj       x<3                         ",
"                          r5=       fh*                         ",
"                          3ixc     +lfj                         ",
"                          +-6+     Oi;                          ",
"                           2$>     2N:                          ",
"                           Oa2    46v+                          ",
"                           +n7+   pw,                           ",
"                            o%:   q#X                           ",
"                            .2*   Xv.                           ",
"                                  B*                            ",
"                                                                ",
"                                                                ",
"                                                                ",
"                                                                ",
"                                                                ",
"                                                                ",
"                                                                ",
"                                                                ",
"                                                                ",
"                                                                ",
"                                                                "
};
