/* XPM */
static char *result[] = {
/* columns rows colors chars-per-pixel */
"64 64 55 1 ",
"  c #FCFEFC",
". c #FBFDFB",
"X c #EDEFEF",
"o c #E9EAEC",
"O c #F9FAF9",
"+ c #F6F4F5",
"@ c #A0A0A0",
"# c gray25",
"$ c #1A1E1E",
"% c #2C2B2C",
"& c #757271",
"* c #D8D9DE",
"= c #FCFDFC",
"- c #171919",
"; c #81726F",
": c #B2B2B0",
"> c #2E2F31",
", c #D0D0D4",
"< c #BABAB9",
"1 c #0D1111",
"2 c #E5E5EC",
"3 c #515257",
"4 c #646563",
"5 c #FBFCFB",
"6 c #625E5C",
"7 c #F5F5F7",
"8 c #101313",
"9 c #DDDEE4",
"0 c #FBFBFA",
"q c #CBCCCC",
"w c gray3",
"e c #C8C7C7",
"r c #0A0D0D",
"t c #D4D4D5",
"y c #3E3F40",
"u c #939698",
"i c #8F8C88",
"p c #464546",
"a c #333435",
"s c #050405",
"d c #060606",
"f c #939090",
"g c #090A0A",
"h c #4B4A4E",
"j c gray93",
"k c #A9AAAA",
"l c #C2C2C0",
"z c #121515",
"x c #363634",
"c c #6D6C6D",
"v c #58595D",
"b c #9C9A9A",
"n c #191B1A",
"m c #FAFAF9",
"M c #2A2A90",
/* pixels */
"                                                                ",
"                                                                ",
"                                                                ",
"                                                                ",
"                                                                ",
"                                                                ",
"                                                                ",
"                                                                ",
"                                                                ",
"                                                                ",
"                                                                ",
"                                .XooO                           ",
"                               +@#$%&*=                         ",
"                              +&-;:@#>,                         ",
"                              <1:O  234O                        ",
"                             5&67    <89                        ",
"                             04&=    qwq                        ",
"                             .&3+    :-9                        ",
"                              er@7 =ty&O                        ",
"                              e-w6ui$p9                         ",
"                             qasssdpf2                          ",
"                            q>64y&g@O                           ",
"                           e>6oihjirkO                          ",
"                          e%4o.ih++i1kO                         ",
"                .9**tqqllk%4o .ih+ 7i1ullleqqq,j                ",
"                9%zz1wwssd4o  .ih+= 7frsssdwwwgu                ",
"                7ellq,,999+   .ih+   O2999*,,,,o                ",
"                              .ih+=                             ",
"                              .ih+=                             ",
"                              .ih+                              ",
"                              .ih+                              ",
"                              .ip+=                             ",
"                              9y1l                              ",
"                             +&x4y2                             ",
"                            .k8<9y&O                            ",
"                            ,$iO=<1<                            ",
"                           X33X =O&x2                           ",
"                          Oi$,= ==9a&O                          ",
"                          <rk5    =<1<                          ",
"                         9xc7      O&x9                         ",
"                        =;>9        9xi.                        ",
"                        =faX        Ov&.                        ",
"                         qre        2zk                         ",
"                         Xh;.       <8t                         ",
"                          u%o       ip+                         ",
"                          tr<=     Oyi.                         ",
"                          Oh&O     *rl                          ",
"                           k$9     k-2                          ",
"                           *zk    0&3O                          ",
"                           Oc6O   j>b                           ",
"                            :n2   qge                           ",
"                            Xk+   e3X                           ",
"                                  m+                            ",
"                                                                ",
"                                                                ",
"                                                                ",
"                                                                ",
"                                                                ",
"                                                                ",
"                                                                ",
"                                                                ",
"                                                                ",
"                                                                ",
"                                                                "
};
