/* XPM */
static char *result[] = {
/* columns rows colors chars-per-pixel */
"64 64 57 1 ",
"  c #FCFEFC",
". c #F9FAF9",
"X c #F5F5F7",
"o c gray93",
"O c #A0A0A0",
"+ c #515257",
"@ c gray25",
"# c #5D5C5C",
"$ c #B2B2B0",
"% c #F6F4F5",
"& c #E9EAEC",
"* c #625E5C",
"= c #1A1E1E",
"- c #81726F",
"; c #757271",
": c #101313",
"> c #FBFDFB",
", c #8F8C88",
"< c #2C2B2C",
"1 c #C8C7C7",
"2 c #FAFAF9",
"3 c #0D1111",
"4 c #EDEFEF",
"5 c #939698",
"6 c #FBFCFB",
"7 c #58595D",
"8 c #DDDEE4",
"9 c #BABAB9",
"0 c #363634",
"q c #FCFDFC",
"w c #4B4A4E",
"e c #D8D9DE",
"r c #191B1A",
"t c #464546",
"y c #333435",
"u c #939090",
"i c #060606",
"p c #040304",
"a c #CBCCCC",
"s c #050405",
"d c #9C9A9A",
"f c #2E2F31",
"g c #646563",
"h c #3E3F40",
"j c #A9AAAA",
"k c #0A0D0D",
"l c #D4D4D5",
"z c #C2C2C0",
"x c #D0D0D4",
"c c #121515",
"v c gray3",
"b c #090A0A",
"n c #E5E5EC",
"m c #6D6C6D",
"M c #171919",
"N c #FBFBFA",
"B c #2A2A90",
/* pixels */
"                                                                ",
"                                                                ",
"                                                                ",
"                                                                ",
"                                                                ",
"                                                                ",
"                                                                ",
"                                                                ",
"                                                                ",
"                                                                ",
"                                .X.                             ",
"                              oO+@#$%                           ",
"                             &*=-O;:;%                          ",
"                            >,<12 .$3$                          ",
"                            4<56   6;7.                         ",
"                            8:9     50%                         ",
"                            o=Oq    ;wX                         ",
"                            6-0e  >1rOq                         ",
"                             8tyO9u=#4                          ",
"                             q$ippyu&                           ",
"                             aysssd.                            ",
"                            af*gh;:j.                           ",
"                           1f*&,wo,kj.                          ",
"                          1<g&>,w%%,3j.                         ",
"                >8eelaazzj<g& >,w% X,35zzz1aaaxo                ",
"                8<cc3vvssig&  >,w%q Xuksssivvvb5                ",
"                X1zzaxx888%   >,w%   .n888exxxx&                ",
"                              >,w%q                             ",
"                              >,w%q                             ",
"                              >,w%                              ",
"                              >,w%                              ",
"                              >,t%q                             ",
"                              8h3z                              ",
"                             %;0ghn                             ",
"                            >j:98h;.                            ",
"                            x=,.q939                            ",
"                           4++4 q.;0n                           ",
"                          .,=xq qq8y;.                          ",
"                          9kj6    q939                          ",
"                         80mX      .;08                         ",
"                        q-f8        80,>                        ",
"                        quy4        .7;>                        ",
"                         ak1        ncj                         ",
"                         4w->       9:l                         ",
"                          5<&       ,t%                         ",
"                          lk9q     .h,>                         ",
"                          .w;.     ekz                          ",
"                           j=8     jMn                          ",
"                           ecj    N;+.                          ",
"                           .m*.   ofd                           ",
"                            $rn   ab1                           ",
"                            4j%   1+4                           ",
"                                  2%                            ",
"                                                                ",
"                                                                ",
"                                                                ",
"                                                                ",
"                                                                ",
"                                                                ",
"                                                                ",
"                                                                ",
"                                                                ",
"                                                                ",
"                                                                "
};
