/* XPM */
static char *result[] = {
/* columns rows colors chars-per-pixel */
"32 64 90 1 ",
"  c black",
". c #000100",
"X c #000200",
"o c #000300",
"O c #070000",
"+ c #050200",
"@ c #000400",
"# c #000600",
"$ c #000700",
"% c #000800",
"& c #000A00",
"* c #000B00",
"= c #000D00",
"- c #001000",
"; c #001100",
": c #001200",
"> c #001300",
", c #001500",
"< c #001600",
"1 c #001700",
"2 c #001800",
"3 c #001A00",
"4 c #051B00",
"5 c #001C00",
"6 c #001D00",
"7 c #001E00",
"8 c #1C1D0D",
"9 c #1B151C",
"0 c #1B141E",
"q c #012400",
"w c #002500",
"e c #002600",
"r c #062700",
"t c #0E2700",
"y c #002800",
"u c #002B00",
"i c #002D00",
"p c #002F00",
"a c #0E2D00",
"s c #112200",
"d c #162501",
"f c #152E00",
"g c #1B2B00",
"h c #1D2F00",
"j c #1F2904",
"k c #003300",
"l c #073300",
"z c #003700",
"x c #073600",
"c c #083100",
"v c #183200",
"b c #1F3100",
"n c #103F00",
"m c #212A00",
"M c #262C00",
"N c #145F00",
"B c #286D00",
"V c #E25322",
"C c #609E31",
"Z c #788368",
"A c #748271",
"S c #838849",
"D c #8C9644",
"F c #8A935F",
"G c #9C9F5D",
"H c #9CB345",
"J c #98B44B",
"K c #8E807D",
"L c #948877",
"P c #B9D14F",
"I c #CAEF60",
"U c #5A7DB4",
"Y c #8C719C",
"T c #8468A1",
"R c #876FA5",
"E c #8470A6",
"W c #7982B1",
"Q c #958D8A",
"! c #918692",
"~ c #919890",
"^ c #A08C81",
"/ c #B9A88E",
"( c #B4A69D",
") c #9786B2",
"_ c #A8A0A9",
"` c #CCC1BE",
"' c #CFCBBF",
"] c #EEF8B8",
"[ c #FDF5F1",
"{ c None",
/* pixels */
"{{{{{{{{{{{{{{{{{{{{{{{{{{{{{{{{",
"{{{{{{{{{{{{{{{{{{{{{{{{{{{{{{{{",
"{{{{{{{{{{{{{{{{{{{{{{{{{{{{{{{{",
"{{{{{{{{{{{{{{{{{{{{{{{{{{{{{{{{",
"{{{{{{{{{{{{{{{{{{{{{{{{{{{{{{{{",
"{{{{{{{{{{{{{{{{{{{{{{{{{{{{{{{{",
"{{{{{{{{{{{{{{{{{{{{{{{{{{{{{{{{",
"{{{{{{{{{{{{{{{{{{{{{{{{{{{{{{{{",
"{{{{{{{{{{{{{{{{{{{{{{{{{{{{{{{{",
"{{{{{{{{{{{{{{{{{{{{{{{{{{{{{{{{",
"{{{{{{{{{{{{{{{{{{{{{{{{{{{{{{{{",
"{{{{{{{{{{{{{{{{{{{{{{{{{{{{{{{{",
"{{{{{{{{{{{{{{{{{{{{{{{{{{{{{{{{",
"{{{{{{{{{{{{{{{{{{{{{{{{{{{{{{{{",
"{{{{{{{{{{{{{{{{{{{{{{{{{{{{{{{{",
"{{{{{{{{{{{{{{{{{{{{{{{{{{{{{{{{",
"{{{{{{{{{{{{{{{{{{{{{{{{{{{{{{{{",
"{{{{{{{{{{{{{{{{{{{{{{{{{{{{{{{{",
"{{{{{{{{{{{{TTTTTTU{{{{{{{{{{{{{",
"{{{{{{{{{{TTT00000T{{{{{{{{{{{{{",
"{{{{{{{{{TT00[[[[[00{{{{{{{{{{{{",
"{{{{{{{{{T0`[[[[[[`!3{{{{{{{{{{{",
"{{{{{{{{W0`[[[[[[```~{{{{{{{{{{{",
"{{{{{{{{E0[[[[[[[````n{{{{{{{{{{",
"{{{{{{{{R0`[`[[[`!```c{{{{{{{{{{",
"{{{{{{{{)000!`000!!``q{{{{{{{{{{",
"{{{{{{{{_00V[[0V0[!`'1{{{{{{{{{{",
"{{{{{{{{(000![000[``A@{{{{{{{{{{",
"{{{{{{{{/0[[!`[[[``0 {{{{{{{{{{{",
"{{{{{{{{{0`[[[[[``0{{{{{{{{{{{{{",
"{{{{{{{{{T0[![![`!0O{{{{{{{{{{{{",
"{{{{{{{{{Y00000000Z+{  {{{{{{{{{",
"{{{{{{{{{^00!00`!!`{ {{  {{{{{{{",
"{{{{{{{{{0Q`00`[0[[{{  {{ {{{{{{",
"{{{{{{{{MP00LK0]F[[{&{{  { {{{{{",
"{{{{{{{{mH0DG{S8{0C,{{{{ { {{{{{",
"{{{{{{{b{IJ9{{{gs!;*{{{&{{{.{{{{",
"{{{{{{f{{d{j{{h{{BN{:{{>{ {{={{{",
"{{{{{{t{r{a{{v{{{7{{{<{{@{.{<{{{",
"{{{{{{{4{{{{{l{xz{ke{3{{{{{,{{{{",
"{{{{{{{{{{{{i{i{{{{p{6{{{{{{{{{{",
"{{{{{{{{{{{u{y{{{{{{7{7{{{{{{{{{",
"{{{{{{{{{{{e{y{{{{{{5{7{{{{{{{{{",
"{{{{{{{{{{{2>{w{{{{{<-{%{{{{{{{{",
"{{{{{{{{{{X{{{${{{{${{{#{{{{{{{{",
"{{{{{{{{{{{{.oX{{{{XXXX.{{{{{{{{",
"{{{{{{{{{{{{{{{{{{{{{{{{{{{{{{{{",
"{{{{{{{{{{{{{{{{{{{{{{{{{{{{{{{{",
"{{{{{{{{{{{{{{{{{{{{{{{{{{{{{{{{",
"{{{{{{{{{{{{{{{{{{{{{{{{{{{{{{{{",
"{{{{{{{{{{{{{{{{{{{{{{{{{{{{{{{{",
"{{{{{{{{{{{{{{{{{{{{{{{{{{{{{{{{",
"{{{{{{{{{{{{{{{{{{{{{{{{{{{{{{{{",
"{{{{{{{{{{{{{{{{{{{{{{{{{{{{{{{{",
"{{{{{{{{{{{{{{{{{{{{{{{{{{{{{{{{",
"{{{{{{{{{{{{{{{{{{{{{{{{{{{{{{{{",
"{{{{{{{{{{{{{{{{{{{{{{{{{{{{{{{{",
"{{{{{{{{{{{{{{{{{{{{{{{{{{{{{{{{",
"{{{{{{{{{{{{{{{{{{{{{{{{{{{{{{{{",
"{{{{{{{{{{{{{{{{{{{{{{{{{{{{{{{{",
"{{{{{{{{{{{{{{{{{{{{{{{{{{{{{{{{",
"{{{{{{{{{{{{{{{{{{{{{{{{{{{{{{{{",
"{{{{{{{{{{{{{{{{{{{{{{{{{{{{{{{{",
"{{{{{{{{{{{{{{{{{{{{{{{{{{{{{{{{"
};
