/* XPM */
static char *result[] = {
/* columns rows colors chars-per-pixel */
"64 64 58 1 ",
"  c #FCFEFC",
". c #F5F5F7",
"X c #D0D0D4",
"o c #BABAB9",
"O c #D8D9DE",
"+ c #F9FAF9",
"@ c #DDDEE4",
"# c #6D6C6D",
"$ c #090A0A",
"% c #1A1E1E",
"& c #171919",
"* c #8F8C88",
"= c #EDEFEF",
"- c #F6F4F5",
"; c #646563",
": c #363634",
"> c #A0A0A0",
", c #0D1111",
"< c #C8C7C7",
"1 c #FBFBFA",
"2 c gray25",
"3 c #FCFDFC",
"4 c #101313",
"5 c #464546",
"6 c gray99",
"7 c #B2B2B0",
"8 c #FBFDFB",
"9 c #D4D4D5",
"0 c #4B4A4E",
"q c #2C2B2C",
"w c #A9AAAA",
"e c #515257",
"r c #2E2F31",
"t c #050405",
"y c #0A0D0D",
"u c gray93",
"i c #C2C2C0",
"p c #5D5C5C",
"a c #040304",
"s c #625E5C",
"d c #3E3F40",
"f c #757271",
"g c #E9EAEC",
"h c #FAFAF9",
"j c #CBCCCC",
"k c #939698",
"l c #121515",
"z c gray3",
"x c #060606",
"c c #939090",
"v c #E5E5EC",
"b c #333435",
"n c #FBFCFB",
"m c #81726F",
"M c #58595D",
"N c #9C9A9A",
"B c #191B1A",
"V c #2A2A90",
/* pixels */
"                                                                ",
"                                                                ",
"                                                                ",
"                                                                ",
"                                                                ",
"                                                                ",
"                                                                ",
"                                                                ",
"                                                                ",
"                                                                ",
"                                                                ",
"                                                                ",
"                          .XooO+                                ",
"                         @#$%&&*=                               ",
"                        -;:o@@>%*+                              ",
"                        o,<   1>%O                              ",
"                        *2-333 @4o                              ",
"                        *5-6333@4o                              ",
"                        74X 3387,9                              ",
"                        =05<==7q$w1                             ",
"                         Oe$rqtttyw+                            ",
"                         3uipas;df4w+                           ",
"                           <q;g*0u*ywh                          ",
"                          <q;g8*0--*,w+                         ",
"                8@OO9jjiiwq;g 8*0-3.*,kiii<jjjXu                ",
"                @qll,zzttx;g  8*0-3 .cytttxzzz$k                ",
"                .<iijXX@@@-3  8*0-   +v@@@OXXXXg                ",
"                              8*0-3                             ",
"                              8*0-3                             ",
"                              8*0-                              ",
"                              8*0-                              ",
"                              8*5-3                             ",
"                              @d,i                              ",
"                             -f:;dv                             ",
"                            8w4o@df+                            ",
"                            X%*+3o,o                            ",
"                           =ee= 3+f:v                           ",
"                          +*%X3 33@bf+                          ",
"                          oywn    3o,o                          ",
"                         @:#.      +f:@                         ",
"                        3mr@        @:*8                        ",
"                        3cb=        +Mf8                        ",
"                         jy<        vlw                         ",
"                         =0m8       o49                         ",
"                          kqg       *5-                         ",
"                          9yo3     +d*8                         ",
"                          +0f+     Oyi                          ",
"                           w%@     w&v                          ",
"                           Olw    1fe+                          ",
"                           +#s+   urN                           ",
"                            7Bv   j$<                           ",
"                            =w-   <e=                           ",
"                                  h-                            ",
"                                                                ",
"                                                                ",
"                                                                ",
"                                                                ",
"                                                                ",
"                                                                ",
"                                                                ",
"                                                                ",
"                                                                ",
"                                                                ",
"                                                                "
};
