/* XPM */
static char *result[] = {
/* columns rows colors chars-per-pixel */
"64 64 57 1 ",
"  c #FCFEFC",
". c #E5E5EC",
"X c #C2C2C0",
"o c #BABAB9",
"O c #E9EAEC",
"+ c #FBFCFB",
"@ c #B2B2B0",
"# c #2E2F31",
"$ c #040304",
"% c #363634",
"& c #FBFDFB",
"* c #C8C7C7",
"= c #101313",
"- c #5D5C5C",
"; c #757271",
": c #060606",
"> c #1A1E1E",
", c #D4D4D5",
"< c #F9FAF9",
"1 c #625E5C",
"2 c #F6F4F5",
"3 c #8F8C88",
"4 c #0D1111",
"5 c #FCFDFC",
"6 c #2C2B2C",
"7 c #A9AAAA",
"8 c #090A0A",
"9 c #DDDEE4",
"0 c #D8D9DE",
"q c #CBCCCC",
"w c #4B4A4E",
"e c #6D6C6D",
"r c #F5F5F7",
"t c #EDEFEF",
"y c #515257",
"u c #191B1A",
"i c #939698",
"p c #D0D0D4",
"a c gray93",
"s c #121515",
"d c gray3",
"f c #050405",
"g c #646563",
"h c #939090",
"j c #0A0D0D",
"k c #A0A0A0",
"l c #2E2627",
"z c #464546",
"x c #3E3F40",
"c c #333435",
"v c #81726F",
"b c #58595D",
"n c #171919",
"m c #FBFBFA",
"M c #9C9A9A",
"N c #FAFAF9",
"B c #2A2A90",
/* pixels */
"                                                                ",
"                                                                ",
"                                                                ",
"                                                                ",
"                                                                ",
"                                                                ",
"                                                                ",
"                                                                ",
"                                                                ",
"                                                                ",
"                                                                ",
"                                                                ",
"                                                                ",
"                                                                ",
"                                                                ",
"                                                                ",
"                                                                ",
"                                                                ",
"                              .XoXO                             ",
"                            +@#$$$%X&                           ",
"                            *=$-;:$>,                           ",
"                           <-$1.23:$;&                          ",
"                           X4-O5 23:#2                          ",
"                          *6$7 55 2;87<                         ",
"                &900,qqXX76-wer5 5tyu4iXXX*qqqpa                ",
"                96ss4ddff:gOX439t0;sXhjfff:ddd8i                ",
"                r*XXqpp9992 <ku>#ulo+<.9990ppppO                ",
"                             &9g6@.5                            ",
"                              &3w2                              ",
"                              &3w25                             ",
"                              &3w25                             ",
"                              &3z2                              ",
"                              9x4X                              ",
"                             2;%gx.                             ",
"                            &7=o9x;<                            ",
"                            p>3<5o4o                            ",
"                           tyyt 5<;%.                           ",
"                          <3>p5 559c;<                          ",
"                          oj7+    5o4o                          ",
"                         9%er      <;%9                         ",
"                        5v#9        9%3&                        ",
"                        5hct        <b;&                        ",
"                         qj*        .s7                         ",
"                         twv&       o=,                         ",
"                          i6O       3z2                         ",
"                          ,jo5     <x3&                         ",
"                          <w;<     0jX                          ",
"                           7>9     7n.                          ",
"                           0s7    m;y<                          ",
"                           <e1<   a#M                           ",
"                            @u.   q8*                           ",
"                            t72   *yt                           ",
"                                  N2                            ",
"                                                                ",
"                                                                ",
"                                                                ",
"                                                                ",
"                                                                ",
"                                                                ",
"                                                                ",
"                                                                ",
"                                                                ",
"                                                                ",
"                                                                "
};
