/* XPM */
static char *result[] = {
/* columns rows colors chars-per-pixel */
"64 64 256 2 ",
"   c #0D0406",
".  c #100608",
"X  c #110708",
"o  c #110709",
"O  c #120809",
"+  c #12090A",
"@  c #13090A",
"#  c #140809",
"$  c #140909",
"%  c #14090A",
"&  c #15090A",
"*  c #150A0A",
"=  c #160B0B",
"-  c #140B0D",
";  c #150B0D",
":  c #160B0C",
">  c #140A0E",
",  c #150B0E",
"<  c #160B0E",
"1  c #150C0D",
"2  c #160C0C",
"3  c #170C0C",
"4  c #160C0D",
"5  c #170D0D",
"6  c #170C0E",
"7  c #170D0E",
"8  c #180C0C",
"9  c #180D0C",
"0  c #180D0D",
"q  c #180D0E",
"w  c #180E0E",
"e  c #190E0E",
"r  c #1A0F0F",
"t  c #1C100F",
"y  c #1D120E",
"u  c #1A1010",
"i  c #1B1010",
"p  c #1C1010",
"a  c #1C1110",
"s  c #1C1111",
"d  c #1D1212",
"f  c #1E1313",
"g  c #1F1515",
"h  c #2C1E0F",
"j  c #231410",
"k  c #201515",
"l  c #211616",
"z  c #211716",
"x  c #241816",
"c  c #291812",
"v  c #2C1A12",
"b  c #211819",
"n  c #221818",
"m  c #231A1A",
"M  c #261B1A",
"N  c #271E1E",
"B  c #2A201E",
"V  c #2A201F",
"C  c #2B201F",
"Z  c #322019",
"A  c #3D251C",
"S  c #2B2121",
"D  c #2C2222",
"F  c #2D2525",
"G  c #2E2529",
"H  c #3F2821",
"J  c #352928",
"K  c #372C2A",
"L  c #342D2D",
"P  c #38302F",
"I  c #3B302E",
"U  c #3C312F",
"Y  c #3D312F",
"T  c #3C3330",
"R  c #3A3637",
"E  c #3C3737",
"W  c #3D3737",
"Q  c #3D3838",
"!  c #41300F",
"~  c #46330F",
"^  c #432818",
"/  c #452918",
"(  c #43291F",
")  c #4D3A10",
"_  c #453228",
"`  c #46352C",
"'  c #46352D",
"]  c #4C3229",
"[  c #49382E",
"{  c #4B392F",
"}  c #413533",
"|  c #413633",
" . c #423634",
".. c #4C3A30",
"X. c #4E3B31",
"o. c #433939",
"O. c #433A3A",
"+. c #453C39",
"@. c #413C3C",
"#. c #453C3C",
"$. c #463E3E",
"%. c #693F21",
"&. c #6C5411",
"*. c #6E5511",
"=. c #705611",
"-. c #4C443F",
";. c #6C4021",
":. c #6D4122",
">. c #6F442F",
",. c #7C4A25",
"<. c #6F4530",
"1. c #484040",
"2. c #494141",
"3. c #4B4242",
"4. c #4D4440",
"5. c #4D4540",
"6. c #4B4644",
"7. c #494646",
"8. c #4E4545",
"9. c #4F4646",
"0. c #4D4A4A",
"q. c #504747",
"w. c #524846",
"e. c #5B534E",
"r. c #504F50",
"t. c #5A5353",
"y. c #5D5D5D",
"u. c #7D5F4F",
"i. c #605858",
"p. c #615959",
"a. c #625B5B",
"s. c #655E5E",
"d. c #606060",
"f. c #616162",
"g. c #626566",
"h. c #777068",
"j. c #7B7575",
"k. c #876A11",
"l. c #8D5529",
"z. c #876D20",
"x. c #855E49",
"c. c #886E58",
"v. c #8A6F5A",
"b. c #8B705A",
"n. c #8C715B",
"m. c #8E735C",
"M. c #8F745D",
"N. c #9D7964",
"B. c #997D65",
"V. c #9B7E65",
"C. c #9D7F66",
"Z. c #837973",
"A. c #857F7F",
"S. c #C0774F",
"D. c #DDB214",
"F. c #E2B614",
"G. c #E5B914",
"H. c #D6813A",
"J. c #DC853B",
"K. c #E0873C",
"L. c #FECD15",
"P. c #FFD215",
"I. c #FFD515",
"U. c #868077",
"Y. c #878178",
"T. c #82827E",
"R. c #83837F",
"E. c #89837C",
"W. c #92857E",
"Q. c #93867F",
"!. c #B39275",
"~. c #B49376",
"^. c #B5967A",
"/. c #C8835A",
"(. c #DA895A",
"). c #F49441",
"_. c #FC9943",
"`. c #FD9943",
"'. c #FF9B44",
"]. c #E28F5E",
"[. c #C09E7E",
"{. c #E89260",
"}. c #F19762",
"|. c #F29762",
" X c #F29763",
".X c #F49863",
"XX c #F09864",
"oX c #F19F6C",
"OX c #F4A16E",
"+X c #878282",
"@X c #898484",
"#X c #8A8585",
"$X c #918A82",
"%X c #9B9B93",
"&X c #AEA198",
"*X c #B0A39A",
"=X c #B5B1A3",
"-X c #B8B5A7",
";X c #BAB7A9",
":X c #CDA986",
">X c #CEAA87",
",X c #CFAB88",
"<X c #D0AB88",
"1X c #D7B28D",
"2X c #DAB48F",
"3X c #E0B993",
"4X c #E1BA94",
"5X c #F3BC90",
"6X c #C6B8AE",
"7X c #C7B9B0",
"8X c #C8BAB0",
"9X c #C9BBB1",
"0X c #CABCB2",
"qX c #CCBEB4",
"wX c #E9C199",
"eX c #F7C194",
"rX c #FBC395",
"tX c #FCC699",
"yX c #F7CDA3",
"uX c #F7CEA4",
"iX c #F8CEA4",
"pX c #F9CEA4",
"aX c #FED0A3",
"sX c #FAD0A5",
"dX c #FBD1A6",
"fX c #FED0A4",
"gX c #FED1A5",
"hX c #FCD2A6",
"jX c #FDD2A7",
"kX c #FDD3A7",
"lX c #FED3A7",
"zX c #FFD4A8",
"xX c #FFD5A9",
"cX c #FFD6A9",
"vX c #FFD5AA",
"bX c #FFD6AA",
"nX c #FFD7AA",
"mX c #FFD7AB",
"MX c #FFD8AB",
"NX c #FFDAAC",
"BX c #DBD9C8",
"VX c #DFDECD",
"CX c #E3E2D0",
"ZX c #FAFAE6",
"AX c #FAFAE7",
"SX c #FBFBE7",
"DX c #FCFCE8",
"FX c #FDFDE9",
"GX c #FEFEEA",
"HX c #FFFFEB",
"JX c #FFFFED",
"KX c #FFFFEF",
"LX c ivory",
"PX c #FFFFF1",
"IX c #FFFFF4",
"UX c None",
/* pixels */
"UXUXUXUXUXUXUXUXUXUXUXUXUXUXUXUXUXUXUXUXUXUXUXUXUXUXUXUXUXUXUXUXUXUXUXUXUXUXUXUXUXUXUXUXUXUXUXUXUXUXUXUXUXUXUXUXUXUXUXUXUXUXUXUX",
"UXUXUXUXUXUXUXUXUXUXUXUXUXUXUXUXUXUXUXUXUXUXUXUXUXUXUXUXUXUXUXUXUXUXUXUXUXUXUXUXUXUXUXUXUXUXUXUXUXUXUXUXUXUXUXUXUXUXUXUXUXUXUXUX",
"UXUXUXUXUXUXUXUXUXUXUXUXUXUXUXUXUXUXUXUXUXUXUXUXUXUXUXUXUXUXUXUXUXUXUXUXUXUXUXUXUXUXUXUXUXUXUXUXUXUXUXUXUXUXUXUXUXUXUXUXUXUXUXUX",
"UXUXUXUXUXUXUXUXUXUXUXUXUXUXUXUXUXUXUXUXUXUXUXUXUXUXUXUXUXUXUXUXUXUXUXUXUXUXUXUXUXUXUXUXUXUXUXUXUXUXUXUXUXUXUXUXUXUXUXUXUXUXUXUX",
"UXUXUXUXUXUXUXUXUXUXUXUXUXUXUXUXUXUXUXUXUXUXUXUXUXUXUXUXUXUXUXUXUXUXUXUXUXUXUXUXUXUXUXUXUXUXUXUXUXUXUXUXUXUXUXUXUXUXUXUXUXUXUXUX",
"UXUXUXUXUXUXUXUXUXUXUXUXUXUXUXUXUXUXUXUXUXUXUXUXUXUXUXUXUXUXUXUXUXUXUXUXUXUXUXUXUXUXUXUXUXUXUXUXUXUXUXUXUXUXUXUXUXUXUXUXUXUXUXUX",
"UXUXUXUXUXUXUXUXUXUXUXUXUXUXUXUXUXUXUXUXUXUXUXUXUXUXUXUXUXUXUXUXUXUXUXUXUXUXUXUXUXUXUXUXUXUXUXUXUXUXUXUXUXUXUXUXUXUXUXUXUXUXUXUX",
"UXUXUXUXUXUXUXUXUXUXUXUXUXUXUXUXUXUXUXUXUXUXUXUXUXUXUXUXUXUXUXUXUXUXUXUXUXUXUXUXUXUXUXUXUXUXUXUXUXUXUXUXUXUXUXUXUXUXUXUXUXUXUXUX",
"UXUXUXUXUXUXUXUXUXUXUXUXUXUXUXUXUXUXUXUXUXUXUXUXUXUXUXUXUXUXUXUXUXUXUXUXUXUXUXUXUXUXUXUXUXUXUXUXUXUXUXUXUXUXUXUXUXUXUXUXUXUXUXUX",
"UXUXUXUXUXUXUXUXUXUXUXUXUXUXUXUXUXUXUXUXUXUXUXUXUXUXUXUXUXUXUXUXUXUXUXUXUXUXUXUXUXUXUXUXUXUXUXUXUXUXUXUXUXUXUXUXUXUXUXUXUXUXUXUX",
"UXUXUXUXUXUXUXUXUXUXUXUXUXUXUXUXUXUXUXUXUXUXUXUXUXUXUXUXUXUXUXUXUXUXUXUXUXUXUXUXUXUXUXUXUXUXUXUXUXUXUXUXUXUXUXUXUXUXUXUXUXUXUXUX",
"UXUXUXUXUXUXUXUXUXUXUXUXUXUXUXUXUXUXUXUXUXUXUXUXUXUXUXUXUXUXUXUXUXUXUXUXUXUXUXUXUXUXUXUXUXUXUXUXUXUXUXUXUXUXUXUXUXUXUXUXUXUXUXUX",
"UXUXUXUXUXUXUXUXUXUXUXUXUXUXUXUXUXUXUXUXUXUXUXUXUXUXUXUXUXUXUXUXUXUXUXUXUXUXUXUXUXUXUXUXUXUXUXUXUXUXUXUXUXUXUXUXUXUXUXUXUXUXUXUX",
"UXUXUXUXUXUXUXUXUXUXUXUXUXUXUXUXUXUXUXUXUXUXUXUXUXUXUXUXUXUXUXUXUXUXUXUXUXUXUXUXUXUXUXUXUXUXUXUXUXUXUXUXUXUXUXUXUXUXUXUXUXUXUXUX",
"UXUXUXUXUXUXUXUXUXUXUXUXUXUXUXUXUXUXUXUXUXUXUXUXUXUXUXUXUXUXUXUXUXUXUXUXUXUXUXUXUXUXUXUXUXUXUXUXUXUXUXUXUXUXUXUXUXUXUXUXUXUXUXUX",
"UXUXUXUXUXUXUXUXUXUXUXUXUXUXUXUXUXUXUXUXUXUXUXUXUXUXUXUXUXUXUXUXUXUXUXUXUXUXUXUXUXUXUXUXUXUXUXUXUXUXUXUXUXUXUXUXUXUXUXUXUXUXUXUX",
"UXUXUXUXUXUXUXUXUXUXUXUXUXUXUXUXUXUXUXUXUXUXUXUXUXUXUXUXUXUXUXUXUXUXUXUXUXUXUXUXUXUXUXUXUXUXUXUXUXUXUXUXUXUXUXUXUXUXUXUXUXUXUXUX",
"UXUXUXUXUXUXUXUXUXUXUXUXUXUXUXUXUXUXUXUXUXUXUXUXUXUXUXUXUXUXUXUXUXUXUXUXUXUXUXUXUXUXUXUXUXUXUXUXUXUXUXUXUXUXUXUXUXUXUXUXUXUXUXUX",
"UXUXUXUXUXUXUXUXUXUXUXUXUXUXUXUXUXUXUXUXUXUXUXUXUXUXUXUXUXUXUXUXUXUXUXUXUXUXUXUXUXUXUXUXUXUXUXUXUXUXUXUXUXUXUXUXUXUXUXUXUXUXUXUX",
"UXUXUXUXUXUXUXUXUXUXUXUXUXUXUXUXUXUXUXUXUXUXUXUXUXUXUXUXUXUXUXUXUXUXUXUXUXUXUXUXUXUXUXUXUXUXUXUXUXUXUXUXUXUXUXUXUXUXUXUXUXUXUXUX",
"UXUXUXUXUXUXUXUXUXUXUXUXUXUXUXUXUXUXUXUXUXUXUXUXUXUXUXe i i i i i i i i e UXUXUXUXUXUXUXUXUXUXUXUXUXUXUXUXUXUXUXUXUXUXUXUXUXUXUX",
"UXUXUXUXUXUXUXUXUXUXUXUXUXUXUXUXUXUXUXUXUXUXUXUXUXUXUXx x x x x x x x x x w.UXUXUXUXUXUXUXUXUXUXUXUXUXUXUXUXUXUXUXUXUXUXUXUXUXUX",
"UXUXUXUXUXUXUXUXUXUXUXUXUXUXUXUXUXUXUXUXUXUXUXUXUXo.^.2X1X1X1X1X1X1X1X1X2X^.o.$.UXUXUXUXUXUXUXUXUXUXUXUXUXUXUXUXUXUXUXUXUXUXUXUX",
"UXUXUXUXUXUXUXUXUXUXUXUXUXUXUXUXUXUXUXUXUXUXUXUXu r :XNXbXbXbXbXbXbXbXbXNX:Xr u UXUXUXUXUXUXUXUXUXUXUXUXUXUXUXUXUXUXUXUXUXUXUXUX",
"UXUXUXUXUXUXUXUXUXUXUXUXUXUXUXUXUXUXUXUXUXUXUXUXB.C.wXxXzXzXzXzXzXzXzXzXxXwXC.B.Z.j.UXUXUXUXUXUXUXUXUXUXUXUXUXUXUXUXUXUXUXUXUXUX",
"UXUXUXUXUXUXUXUXUXUXUXUXUXUXUXUXUXUXUXUXUXUX: ` dXMXxXzXcXMXnXzXzXzXzXcXMXMXMXdX` : UXUXUXUXUXUXUXUXUXUXUXUXUXUXUXUXUXUXUXUXUXUX",
"UXUXUXUXUXUXUXUXUXUXUXUXUXUXUXUXUXUXUXUXUXUX: ` yXzXzXxX4X[.,XkXzXzXxX3X[.<XlXyX` : UXUXUXUXUXUXUXUXUXUXUXUXUXUXUXUXUXUXUXUXUXUX",
"UXUXUXUXUXUXUXUXUXUXUXUXUXUXUXUXUXUXUXUXUXUX: ` yXzXzXMXM.@ { pXzXzXMXb.@ X.sXyX` : UXUXUXUXUXUXUXUXUXUXUXUXUXUXUXUXUXUXUXUXUXUX",
"UXUXUXUXUXUXUXUXUXUXUXUXUXUXUXUXUXUXUXUXUXUX: ` yXzXzXMXm.o [ iXzXzXMXv.X ..sXyX` : UXUXUXUXUXUXUXUXUXUXUXUXUXUXUXUXUXUXUXUXUXUX",
"UXUXUXUXUXUXUXUXUXUXUXUXUXUXUXUXUXUXUXUXUXUX: ` yXzXzXMXm.o [ iXzXzXMXv.X ..sXyX` : UXUXUXUXUXUXUXUXUXUXUXUXUXUXUXUXUXUXUXUXUXUX",
"UXUXUXUXUXUXUXUXUXUXUXUXUXUXUXUXUXUXUXUXUXUX: ` yXzXzXMXn.  ` iXzXzXMXc.  [ sXyX` : UXUXUXUXUXUXUXUXUXUXUXUXUXUXUXUXUXUXUXUXUXUX",
"UXUXUXUXUXUXUXUXUXUXUXUXUXUXUXUXUXUXUXUXUXUX: ` yXzXzXcX,XV.!.hXzXzXcX>XV.~.jXyX` : UXUXUXUXUXUXUXUXUXUXUXUXUXUXUXUXUXUXUXUXUXUX",
"UXUXUXUXUXUXUXUXUXUXUXUXUXUXUXUXUXUXUXUXUXUX: ' uXxXzXzXbXMXmXzXzXzXzXbXMXmXvXuX' : UXUXUXUXUXUXUXUXUXUXUXUXUXUXUXUXUXUXUXUXUXUX",
"UXUXUXUXUXUXUXUXUXUXUXUXUXUXUXUXUXUXUXUXUXUX: _ 5XrXfXzXzXzXzXzXzXzXzXzXzXfXrX5X_ : UXUXUXUXUXUXUXUXUXUXUXUXUXUXUXUXUXUXUXUXUXUX",
"UXUXUXUXUXUXUXUXUXUXUXUXUXUXUXUXUXUXUXUXUXUX4 ( {.XXtXxXzXzXzXzXzXzXzXzXxXtXXX{.( 4 UXUXUXUXUXUXUXUXUXUXUXUXUXUXUXUXUXUXUXUXUXUX",
"UXUXUXUXUXUXUXUXUXUXUXUXUXUXUXUXUXUXUXUXUXUXb ] (.].eXgXaXaXaXaXaXaXaXaXgXeX].(.] b UXUXUXUXUXUXUXUXUXUXUXUXUXUXUXUXUXUXUXUXUXUX",
"UXUXUXUXUXUXUXUXUXUXUXUXUXUXUXUXUXUXUXUXUXUXUXUXH A /.OXoXoXoXoXoXoXoXoXOX/.A H UXUXUXUXUXUXUXUXUXUXUXUXUXUXUXUXUXUXUXUXUXUXUXUX",
"UXUXUXUXUXUXUXUXUXUXUXUXUXUXUXUXUXUXUXUXUXUXUXUXg t S..X}. X|.|.|.|. X}..XS.t g UXUXUXUXUXUXUXUXUXUXUXUXUXUXUXUXUXUXUXUXUXUXUXUX",
"UXUXUXUXUXUXUXUXUXUXUXUXUXUXUXUXUXUXUXUXUXUXUXUXs p u.N.x.>.<.<.<.<.>.x.N.u.p l UXUXUXUXUXUXUXUXUXUXUXUXUXUXUXUXUXUXUXUXUXUXUXUX",
"UXUXUXUXUXUXUXUXUXUXUXUXUXUXUXUXUXUXUXUXUXUXe e e i r.g.R O + . . + O R g.r.i l UXUXUXUXUXUXUXUXUXUXUXUXUXUXUXUXUXUXUXUXUXUXUXUX",
"UXUXUXUXUXUXUXUXUXUXUXUXUXUXUXUXUXUXUXUXUXUXe e e r @.0.Q F P e.e.P F Q 0.@.r f UXUXUXUXUXUXUXUXUXUXUXUXUXUXUXUXUXUXUXUXUXUXUXUX",
"UXUXUXUXUXUXUXUXUXUXUXUXUXUXUXUXUXUXUXq.e e 0 0 0 0 e 9 E d.T.AXAXT.d.E 8 e 0 0 e e UXUXUXUXUXUXUXUXUXUXUXUXUXUXUXUXUXUXUXUXUXUX",
"UXUXUXUXUXUXUXUXUXUXUXUXUXUXUXUXUXUXUX9.e z C V V B d 3 E d.T.SXSXT.d.E 3 s M M a e UXUXUXUXUXUXUXUXUXUXUXUXUXUXUXUXUXUXUXUXUXUX",
"UXUXUXUXUXUXUXUXUXUXUXUXUXUXUXUXUXUXUX9.* h.CXVXVXBX+.$ E d.T.SXSXT.d.E * I *X&XK 3 UXUXUXUXUXUXUXUXUXUXUXUXUXUXUXUXUXUXUXUXUXUX",
"UXUXUXUXUXUXUXUXUXUXUXUXUXUXUXUXUXUXUX9.% Y.PXJXJXDX4.# W f.R.FXFXR.f.W & | 0X7XY 2 UXUXUXUXUXUXUXUXUXUXUXUXUXUXUXUXUXUXUXUXUXUX",
"UXUXUXUXUXUXUXUXUXUXUXUXUXUXUXUXUXUXUX9.% U.KXHXHXZX-.& N L 6.%X%X6.L N = } 8X6XU 2 UXUXUXUXUXUXUXUXUXUXUXUXUXUXUXUXUXUXUXUXUXUX",
"UXUXUXUXUXUXUXUXUXUXUXUXUXUXUXUXUXUXUX3.% Y.IXKXLXGX5.* 0 = N y.y.N = 0 =  .qX9XU 2 UXUXUXUXUXUXUXUXUXUXUXUXUXUXUXUXUXUXUXUXUXUX",
"UXUXUXUXUXUXUXUXUXUXUXUXUXUXUXUXUXUXUXA.t.E.;X-X-X=XT : e 0 m 7.7.m 0 e 3 J W.Q.UXUXUXUXUXUXUXUXUXUXUXUXUXUXUXUXUXUXUXUXUXUXUXUX",
"UXUXUXUXUXUXUXUXUXUXUXUXUXUXUXUXUXUXUXUXUXUXq q q q e e e e e e e e e w q q 0 k UXUXUXUXUXUXUXUXUXUXUXUXUXUXUXUXUXUXUXUXUXUXUXUX",
"UXUXUXUXUXUXUXUXUXUXUXUXUXUXUXUXUXUXUXUXUX$Xh h h h y e n D D D S d e j v v v Z UXUXUXUXUXUXUXUXUXUXUXUXUXUXUXUXUXUXUXUXUXUXUXUX",
"UXUXUXUXUXUXUXUXUXUXUXUXUXUXUXUXUXUXUXs.G z.G.F.F.D.~ < j.UXUXUXUXO.1 ,.K.J.J.H.UXUXUXUXUXUXUXUXUXUXUXUXUXUXUXUXUXUXUXUXUXUXUXUX",
"UXUXUXUXUXUXUXUXUXUXUXUXUXUXUXUXUXUXUX8.> k.I.P.P.L.) , #XUXUXUXUX2.; l.'._.`.)./ 4 UXUXUXUXUXUXUXUXUXUXUXUXUXUXUXUXUXUXUXUXUXUX",
"UXUXUXUXUXUXUXUXUXUXUXUXUXUXUXUXUXUXUX9.7 ! =.*.*.&.h q @XUXUXUXUX1.7 ^ :.;.;.%.c q UXUXUXUXUXUXUXUXUXUXUXUXUXUXUXUXUXUXUXUXUXUX",
"UXUXUXUXUXUXUXUXUXUXUXUXUXUXUXUXUXUXUX3.e 6 > > > > q e +XUXUXUXUX#.e 5 - - - ; q e UXUXUXUXUXUXUXUXUXUXUXUXUXUXUXUXUXUXUXUXUXUX",
"UXUXUXUXUXUXUXUXUXUXUXUXUXUXUXUXUXUXUXUXp.a.a.a.a.a.a.i.UXUXUXUXUXUXUXUXUXUXUXUXUXUXUXUXUXUXUXUXUXUXUXUXUXUXUXUXUXUXUXUXUXUXUXUX",
"UXUXUXUXUXUXUXUXUXUXUXUXUXUXUXUXUXUXUXUXUXUXUXUXUXUXUXUXUXUXUXUXUXUXUXUXUXUXUXUXUXUXUXUXUXUXUXUXUXUXUXUXUXUXUXUXUXUXUXUXUXUXUXUX",
"UXUXUXUXUXUXUXUXUXUXUXUXUXUXUXUXUXUXUXUXUXUXUXUXUXUXUXUXUXUXUXUXUXUXUXUXUXUXUXUXUXUXUXUXUXUXUXUXUXUXUXUXUXUXUXUXUXUXUXUXUXUXUXUX",
"UXUXUXUXUXUXUXUXUXUXUXUXUXUXUXUXUXUXUXUXUXUXUXUXUXUXUXUXUXUXUXUXUXUXUXUXUXUXUXUXUXUXUXUXUXUXUXUXUXUXUXUXUXUXUXUXUXUXUXUXUXUXUXUX",
"UXUXUXUXUXUXUXUXUXUXUXUXUXUXUXUXUXUXUXUXUXUXUXUXUXUXUXUXUXUXUXUXUXUXUXUXUXUXUXUXUXUXUXUXUXUXUXUXUXUXUXUXUXUXUXUXUXUXUXUXUXUXUXUX",
"UXUXUXUXUXUXUXUXUXUXUXUXUXUXUXUXUXUXUXUXUXUXUXUXUXUXUXUXUXUXUXUXUXUXUXUXUXUXUXUXUXUXUXUXUXUXUXUXUXUXUXUXUXUXUXUXUXUXUXUXUXUXUXUX",
"UXUXUXUXUXUXUXUXUXUXUXUXUXUXUXUXUXUXUXUXUXUXUXUXUXUXUXUXUXUXUXUXUXUXUXUXUXUXUXUXUXUXUXUXUXUXUXUXUXUXUXUXUXUXUXUXUXUXUXUXUXUXUXUX",
"UXUXUXUXUXUXUXUXUXUXUXUXUXUXUXUXUXUXUXUXUXUXUXUXUXUXUXUXUXUXUXUXUXUXUXUXUXUXUXUXUXUXUXUXUXUXUXUXUXUXUXUXUXUXUXUXUXUXUXUXUXUXUXUX",
"UXUXUXUXUXUXUXUXUXUXUXUXUXUXUXUXUXUXUXUXUXUXUXUXUXUXUXUXUXUXUXUXUXUXUXUXUXUXUXUXUXUXUXUXUXUXUXUXUXUXUXUXUXUXUXUXUXUXUXUXUXUXUXUX",
"UXUXUXUXUXUXUXUXUXUXUXUXUXUXUXUXUXUXUXUXUXUXUXUXUXUXUXUXUXUXUXUXUXUXUXUXUXUXUXUXUXUXUXUXUXUXUXUXUXUXUXUXUXUXUXUXUXUXUXUXUXUXUXUX"
};
