/* XPM */
static char *f22f9d842895404fe055e0e62da8058dy5JZvQ3rY8XX1Vun[] = {
/* columns rows colors chars-per-pixel */
"64 64 21 1 ",
"  c black",
". c #3F3F3F",
"X c gray36",
"o c gray40",
"O c #717171",
"+ c gray48",
"@ c gray50",
"# c gray52",
"$ c gray56",
"% c gray60",
"& c gray64",
"* c gray68",
"= c #B7B7B7",
"- c gray75",
"; c gray76",
": c gray80",
"> c gray84",
", c gray88",
"< c #EAEAEA",
"1 c #F4F4F4",
"2 c white",
/* pixels */
"2222222222222222222222222222222222222222222222222222222222222222",
"2222222222222222222222222222222222222222222222222222222222222222",
"2222222222222222222222222222222222222222222222222222222222222222",
"2222222222222222222222222222222222222222222222222222222222222222",
"2222222222222222222222222222222222222222222222222222222222222222",
"2222222222222222222222222222222222222222222222222222222222222222",
"2222222222222222222222222222222222222222222222222222222222222222",
"2222222222222222222222222222222222222222222222222222222222222222",
"2222222222222222222222222222222222222222222222222222222222222222",
"2222222222222222222222222222222222222222222222222222222222222222",
"2222222222222222222222222222222222222222222222222222222222222222",
"2222222222222222222222222222222222222222222222222222222222222222",
"2222222222222222222222222222222222222222222222222222222222222222",
"2222222222222222222222222222222222222222222222222222222222222222",
"2222222222222222222222222222222222222222222222222222222222222222",
"2222222222222222222222222222222222222222222222222222222222222222",
"2222222222222222222222222222222222222222222222222222222222222222",
"2222222222222222222222222222222222222222222222222222222222222222",
"2222222222222222222222222222222222222222222222222222222222222222",
"2222222222222222222222222222222222222222222222222222222222222222",
"2222222222222222222222222222222222222222222222222222222222222222",
"22222222222222222222222222222222222222:*>22222222222222222222222",
"2222222222222222222222222222222222222:   ,2222222222222222222222",
"2222222222222222222222222222222222222&   -2222222222222222222222",
"2222222222222222222222222222222222222:   ,2222222222222222222222",
"22222222222222222222222222222222222222& >22222222222222222222222",
"2222222222222222222222222222222222222<. <22222222222222222222222",
"2222222222222222222222222222222222222O  >22222222222222222222222",
"222222222222222222222222222222222222&   =22222222222222222222222",
"222222222222222222222222222222222222X#  #22222222222222222222222",
"222222222222222222222222222222222222OX @ >2222222222222222222222",
"222222222222222222222222222222222222#  <Oo2222222222222222222222",
"222222222222222222222222222222222222%  <, =222222222222222222222",
"222222222222222222222222222222222222&  X1% 222222222222222222222",
"222222222222222222222222222222222222= +.O- 122222222222222222222",
"2222222222222222222222222222222222222 =,.O>222222222222222222222",
"222222222222222222222222222222222222< >2: =222222222222222222222",
"222222222222222222222222222222222222> <2= ,222222222222222222222",
"222222222222222222222222222222222222=.2<.&2222222222222222222222",
"222222222222222222222222222222222222$+2%.12222222222222222222222",
"222222222222222222222222222222222222.*, =22222222222222222222222",
"22222222222222222222222222222222222< :- =22222222222222222222222",
"22222222222222222222222222222222222> <2:,22222222222222222222222",
"22222222222222222222222222222222222> :22222222222222222222222222",
"222222222222222222222222222222222222;,22222222222222222222222222",
"2222222222222222222222222222222222222222222222222222222222222222",
"2222222222222222222222222222222222222222222222222222222222222222",
"2222222222222222222222222222222222222222222222222222222222222222",
"2222222222222222222222222222222222222222222222222222222222222222",
"2222222222222222222222222222222222222222222222222222222222222222",
"2222222222222222222222222222222222222222222222222222222222222222",
"2222222222222222222222222222222222222222222222222222222222222222",
"2222222222222222222222222222222222222222222222222222222222222222",
"2222222222222222222222222222222222222222222222222222222222222222",
"2222222222222222222222222222222222222222222222222222222222222222",
"2222222222222222222222222222222222222222222222222222222222222222",
"2222222222222222222222222222222222222222222222222222222222222222",
"2222222222222222222222222222222222222222222222222222222222222222",
"2222222222222222222222222222222222222222222222222222222222222222",
"2222222222222222222222222222222222222222222222222222222222222222",
"2222222222222222222222222222222222222222222222222222222222222222",
"2222222222222222222222222222222222222222222222222222222222222222",
"2222222222222222222222222222222222222222222222222222222,;--;;===",
"2222222222222222222222222222222222222222222222222222222-$$$$##$+"
};
