/* XPM */
static char *ac07051d310946dda89087f57b822defAO5vWQyFth6QkKJn[] = {
/* columns rows colors chars-per-pixel */
"64 64 20 1 ",
"  c black",
". c #3F3F3F",
"X c gray36",
"o c #717171",
"O c gray48",
"+ c gray50",
"@ c gray52",
"# c gray56",
"$ c gray60",
"% c gray64",
"& c gray68",
"* c #B7B7B7",
"= c gray75",
"- c gray76",
"; c gray80",
": c gray84",
"> c gray88",
", c #EAEAEA",
"< c #F4F4F4",
"1 c white",
/* pixels */
"1111111111111111111111111111111111111111111111111111111111111111",
"1111111111111111111111111111111111111111111111111111111111111111",
"1111111111111111111111111111111111111111111111111111111111111111",
"1111111111111111111111111111111111111111111111111111111111111111",
"1111111111111111111111111111111111111111111111111111111111111111",
"1111111111111111111111111111111111111111111111111111111111111111",
"1111111111111111111111111111111111111111111111111111111111111111",
"1111111111111111111111111111111111111111111111111111111111111111",
"1111111111111111111111111111111111111111111111111111111111111111",
"1111111111111111111111111111111111111111111111111111111111111111",
"1111111111111111111111111111111111111111111111111111111111111111",
"1111111111111111111111111111111111111111111111111111111111111111",
"1111111111111111111111111111111111111111111111111111111111111111",
"1111111111111111111111111111111111111111111111111111111111111111",
"1111111111111111111111111111111111111111111111111111111111111111",
"1111111111111111111111111111111111111111111111111111111111111111",
"1111111111111111111111111111111111111111111111111111111111111111",
"1111111111111111111111111111111111111111111111111111111111111111",
"1111111111111111111111111111111111111111111111111111111111111111",
"1111111111111111111111111111111111111111111111111111111111111111",
"1111111111111111111111111111111111111111111111111111111111111111",
"1111111111111111111111111111111111111111111111111111111111111111",
"1111111111111111111111111111111111111111111111111111111111111111",
"1111111111111111111111111111111111111111111::1111111111111111111",
"111111111111111111111111111111111111111111$  $111111111111111111",
"11111111111111111111111111111111111111111<    <11111111111111111",
"111111111111111111111111111111111111111111X  X111111111111111111",
"111111111111111111111111111111111111111111,.X,111111111111111111",
"111111111111111111111111111111111111111111& #1111111111111111111",
"11111111111111111111111111111111111111111&  .1111111111111111111",
"1111111111111111111111111111111111111111* o  ,111111111111111111",
"1111111111111111111111111111111111111111.#-  =111111111111111111",
"111111111111111111111111111111111111111: :&.+ ;11111111111111111",
"111111111111111111111111111111111111111%.1@+<@ -1111111111111111",
"11111111111111111111111111111111111111<.%1X%11# ;111111111111111",
"11111111111111111111111111111111111111+.>> .<11+O111111111111111",
"11111111111111111111111111111111111111:>1$. &11>;111111111111111",
"1111111111111111111111111111111111111111< && ,111111111111111111",
"1111111111111111111111111111111111111111* ,<.@111111111111111111",
"111111111111111111111111111111111111111,X#11; :11111111111111111",
"11111111111111111111111111111111111111;.X,111OX<1111111111111111",
"1111111111111111111111111111111111111% @<1111> &1111111111111111",
"11111111111111111111111111111111111<O *1111111% ,111111111111111",
"11111111111111111111111111111111111, &11111111<X &11111111111111",
"111111111111111111111111111111111111->111111111:@>11111111111111",
"1111111111111111111111111111111111111111111111111111111111111111",
"1111111111111111111111111111111111111111111111111111111111111111",
"1111111111111111111111111111111111111111111111111111111111111111",
"1111111111111111111111111111111111111111111111111111111111111111",
"1111111111111111111111111111111111111111111111111111111111111111",
"1111111111111111111111111111111111111111111111111111111111111111",
"1111111111111111111111111111111111111111111111111111111111111111",
"1111111111111111111111111111111111111111111111111111111111111111",
"1111111111111111111111111111111111111111111111111111111111111111",
"1111111111111111111111111111111111111111111111111111111111111111",
"1111111111111111111111111111111111111111111111111111111111111111",
"1111111111111111111111111111111111111111111111111111111111111111",
"1111111111111111111111111111111111111111111111111111111111111111",
"1111111111111111111111111111111111111111111111111111111111111111",
"1111111111111111111111111111111111111111111111111111111111111111",
"1111111111111111111111111111111111111111111111111111111111111111",
"1111111111111111111111111111111111111111111111111111111111111111",
"1111111111111111111111111111111111111111111111111111111>-==--***",
"1111111111111111111111111111111111111111111111111111111=####@@#O"
};
