/* XPM */
static char *_42dd98e1b4a47408745253369ac6c24CVUmFFVqZQ0AIKbu[] = {
/* columns rows colors chars-per-pixel */
"64 64 21 1 ",
"  c black",
". c #3F3F3F",
"X c gray36",
"o c gray40",
"O c #717171",
"+ c gray48",
"@ c gray50",
"# c gray52",
"$ c gray56",
"% c gray60",
"& c gray64",
"* c gray68",
"= c #B7B7B7",
"- c gray75",
"; c gray76",
": c gray80",
"> c gray84",
", c gray88",
"< c #EAEAEA",
"1 c #F4F4F4",
"2 c white",
/* pixels */
"2222222222222222222222222222222222222222222222222222222222222222",
"2222222222222222222222222222222222222222222222222222222222222222",
"2222222222222222222222222222222222222222222222222222222222222222",
"2222222222222222222222222222222222222222222222222222222222222222",
"2222222222222222222222222222222222222222222222222222222222222222",
"2222222222222222222222222222222222222222222222222222222222222222",
"2222222222222222222222222222222222222222222222222222222222222222",
"2222222222222222222222222222222222222222222222222222222222222222",
"2222222222222222222222222222222222222222222222222222222222222222",
"2222222222222222222222222222222222222222222222222222222222222222",
"2222222222222222222222222222222222222222222222222222222222222222",
"2222222222222222222222222222222222222222222222222222222222222222",
"2222222222222222222222222222222222222222222222222222222222222222",
"2222222222222222222222222222222222222222222222222222222222222222",
"2222222222222222222222222222222222222222222222222222222222222222",
"2222222222222222222222222222222222222222222222222222222222222222",
"2222222222222222222222222222222222222222222222222222222222222222",
"2222222222222222222222222222222222222222222222222222222222222222",
"2222222222222222222222222222222222222222222222222222222222222222",
"2222222222222222222222222222222222222222222222222222222222222222",
"2222222222222222222222222222222222222222222222222222222222222222",
"2222222222222222222222222222222222222222222222222222222222222222",
"2222222222222222222222222222222222222222222222222222222222222222",
"22222222222222222222222222222222>@&12222222222222222222222222222",
"2222222222222222222222222222222<   %2222222222222222222222222222",
"2222222222222222222222222222222>   +2222222222222222222222222222",
"22222222222222222222222222222221o  ;2222222222222222222222222222",
"22222222222222222222222222222222: =22222222222222222222222222222",
"2222222222222222222222222222222:  $22222222222222222222222222222",
"222222222222222222222222222222* .  <2222222222222222222222222222",
"22222222222222222222222222222: **. =2222222222222222222222222222",
"22222222222222222222222222221X@2$@%.>222222222222222222222222222",
"2222222222222222222222222222* <2X&1@ ;22222222222222222222222222",
"22222222222222222222222222<$ *21 -22% *2222222222222222222222222",
"22222222222222222222222222,#$12, &222* :222222222222222222222222",
"2222222222222222222222222222222:  -222*>222222222222222222222222",
"2222222222222222222222222222222&X% :2222222222222222222222222222",
"2222222222222222222222222222222O%2$ >222222222222222222222222222",
"2222222222222222222222222222222 =21oO222222222222222222222222222",
"222222222222222222222222222222* >22%X222222222222222222222222222",
"2222222222222222222222222222,O *222%X222222222222222222222222222",
"222222222222222222222222222= o,2222*X222222222222222222222222222",
"22222222222222222222222222& *122222*X222222222222222222222222222",
"22222222222222222222222222+%2222222* =22222222222222222222222222",
"22222222222222222222222222<12222222<-,22222222222222222222222222",
"2222222222222222222222222222222222222222222222222222222222222222",
"2222222222222222222222222222222222222222222222222222222222222222",
"2222222222222222222222222222222222222222222222222222222222222222",
"2222222222222222222222222222222222222222222222222222222222222222",
"2222222222222222222222222222222222222222222222222222222222222222",
"2222222222222222222222222222222222222222222222222222222222222222",
"2222222222222222222222222222222222222222222222222222222222222222",
"2222222222222222222222222222222222222222222222222222222222222222",
"2222222222222222222222222222222222222222222222222222222222222222",
"2222222222222222222222222222222222222222222222222222222222222222",
"2222222222222222222222222222222222222222222222222222222222222222",
"2222222222222222222222222222222222222222222222222222222222222222",
"2222222222222222222222222222222222222222222222222222222222222222",
"2222222222222222222222222222222222222222222222222222222222222222",
"2222222222222222222222222222222222222222222222222222222222222222",
"2222222222222222222222222222222222222222222222222222222222222222",
"2222222222222222222222222222222222222222222222222222222222222222",
"2222222222222222222222222222222222222222222222222222222,;--;;===",
"2222222222222222222222222222222222222222222222222222222-$$$$##$+"
};
