/* XPM */
static char *ac06bac1417949f9cf176c3eb3ef1b5aszAyXLZaylStPkf3[] = {
/* columns rows colors chars-per-pixel */
"64 64 20 1 ",
"  c black",
". c #3F3F3F",
"X c gray36",
"o c gray40",
"O c #717171",
"+ c gray48",
"@ c gray50",
"# c gray52",
"$ c gray56",
"% c gray64",
"& c gray68",
"* c #B7B7B7",
"= c gray75",
"- c gray76",
"; c gray80",
": c gray84",
"> c gray88",
", c #EAEAEA",
"< c #F4F4F4",
"1 c white",
/* pixels */
"1111111111111111111111111111111111111111111111111111111111111111",
"1111111111111111111111111111111111111111111111111111111111111111",
"1111111111111111111111111111111111111111111111111111111111111111",
"1111111111111111111111111111111111111111111111111111111111111111",
"1111111111111111111111111111111111111111111111111111111111111111",
"1111111111111111111111111111111111111111111111111111111111111111",
"1111111111111111111111111111111111111111111111111111111111111111",
"1111111111111111111111111111111111111111111111111111111111111111",
"1111111111111111111111111111111111111111111111111111111111111111",
"1111111111111111111111111111111111111111111111111111111111111111",
"1111111111111111111111111111111111111111111111111111111111111111",
"1111111111111111111111111111111111111111111111111111111111111111",
"1111111111111111111111111111111111111111111111111111111111111111",
"1111111111111111111111111111111111111111111111111111111111111111",
"1111111111111111111111111111111111111111111111111111111111111111",
"1111111111111111111111111111111111111111111111111111111111111111",
"1111111111111111111111111111111111111111111111111111111111111111",
"1111111111111111111111111111111111111111111111111111111111111111",
"1111111111111111111111111111111111111111111111111111111111111111",
"1111111111111111111111111111111111111111111111111111111111111111",
"1111111111111111111111111111111111111111111111111111111111111111",
"1111111111111111111111111111111111111111111111111111111111111111",
"1111111111111111111111111111111111111111111111111111111111111111",
"111111111111111111111111111111111111111111111,>11111111111111111",
"11111111111111111111111111111111111111111111-  $1111111111111111",
"11111111111111111111111111111111111111111111X   ,111111111111111",
"11111111111111111111111111111111111111111111O   <111111111111111",
"11111111111111111111111111111111111111111111,X.;1111111111111111",
"11111111111111111111111111111111111111111111- X11111111111111111",
"1111111111111111111111111111111111111111111&   :1111111111111111",
"111111111111111111111111111111111111111111% $  $1111111111111111",
"11111111111111111111111111111111111111111: *> @ ,111111111111111",
"11111111111111111111111111111111111111111oo1- >X.>11111111111111",
"111111111111111111111111111111111111111<* :1&.1<O ;1111111111111",
"111111111111111111111111111111111111111. $11#+11<# ;111111111111",
"111111111111111111111111111111111111111>:<11. ;111$X111111111111",
"1111111111111111111111111111111111111111111< . :11<,111111111111",
"1111111111111111111111111111111111111111111: >+.>111111111111111",
"1111111111111111111111111111111111111111111*.1<oX<11111111111111",
"1111111111111111111111111111111111111111111#@11: >11111111111111",
"11111111111111111111111111111111111111111,# =11: >11111111111111",
"1111111111111111111111111111111111111111-..;111> >11111111111111",
"11111111111111111111111111111111111111<# $<1111, >11111111111111",
"11111111111111111111111111111111111111; ;111111, *11111111111111",
"11111111111111111111111111111111111111>$1111111<..11111111111111",
"1111111111111111111111111111111111111111111111111111111111111111",
"1111111111111111111111111111111111111111111111111111111111111111",
"1111111111111111111111111111111111111111111111111111111111111111",
"1111111111111111111111111111111111111111111111111111111111111111",
"1111111111111111111111111111111111111111111111111111111111111111",
"1111111111111111111111111111111111111111111111111111111111111111",
"1111111111111111111111111111111111111111111111111111111111111111",
"1111111111111111111111111111111111111111111111111111111111111111",
"1111111111111111111111111111111111111111111111111111111111111111",
"1111111111111111111111111111111111111111111111111111111111111111",
"1111111111111111111111111111111111111111111111111111111111111111",
"1111111111111111111111111111111111111111111111111111111111111111",
"1111111111111111111111111111111111111111111111111111111111111111",
"1111111111111111111111111111111111111111111111111111111111111111",
"1111111111111111111111111111111111111111111111111111111111111111",
"1111111111111111111111111111111111111111111111111111111111111111",
"1111111111111111111111111111111111111111111111111111111111111111",
"1111111111111111111111111111111111111111111111111111111>-==--***",
"1111111111111111111111111111111111111111111111111111111=$$$$##$+"
};
