/* XPM */
static char *b9b26e1e3fbc43b9c2e1176c24afce0aLoNl2Jg0vPzv5LdU[] = {
/* columns rows colors chars-per-pixel */
"64 64 21 1 ",
"  c black",
". c #3F3F3F",
"X c gray36",
"o c gray40",
"O c #717171",
"+ c gray48",
"@ c gray50",
"# c gray52",
"$ c gray56",
"% c gray60",
"& c gray64",
"* c gray68",
"= c #B7B7B7",
"- c gray75",
"; c gray76",
": c gray80",
"> c gray84",
", c gray88",
"< c #EAEAEA",
"1 c #F4F4F4",
"2 c white",
/* pixels */
"2222222222222222222222222222222222222222222222222222222222222222",
"2222222222222222222222222222222222222222222222222222222222222222",
"2222222222222222222222222222222222222222222222222222222222222222",
"2222222222222222222222222222222222222222222222222222222222222222",
"2222222222222222222222222222222222222222222222222222222222222222",
"2222222222222222222222222222222222222222222222222222222222222222",
"2222222222222222222222222222222222222222222222222222222222222222",
"2222222222222222222222222222222222222222222222222222222222222222",
"2222222222222222222222222222222222222222222222222222222222222222",
"2222222222222222222222222222222222222222222222222222222222222222",
"2222222222222222222222222222222222222222222222222222222222222222",
"2222222222222222222222222222222222222222222222222222222222222222",
"2222222222222222222222222222222222222222222222222222222222222222",
"2222222222222222222222222222222222222222222222222222222222222222",
"2222222222222222222222222222222222222222222222222222222222222222",
"2222222222222222222222222222222222222222222222222222222222222222",
"2222222222222222222222222222222222222222222222222222222222222222",
"2222222222222222222222222222222222222222222222222222222222222222",
"2222222222222222222222222222222222222222222222222222222222222222",
"2222222222222222222222222222222222222222222222222222222222222222",
"2222222222222222222222222221222222222222222222222222222222222222",
"2222222222222222222222222,. %22222222222222222222222222222222222",
"2222222222222222222222222#   ,2222222222222222222222222222222222",
"2222222222222222222222222#   ,2222222222222222222222222222222222",
"2222222222222222222222222<X *22222222222222222222222222222222222",
"22222222222222222222222221o.222222222222222222222222222222222222",
"2222222222222222222222222%  122222222222222222222222222222222222",
"222222222222222222222222;   ,22222222222222222222222222222222222",
"222222222222222222222221 O  ;22222222222222222222222222222222222",
"222222222222222222222222 @ .O22222222222222222222222222222222222",
"222222222222222222222222.  : ;2222222222222222222222222222222222",
"222222222222222222222222X .2%.1222222222222222222222222222222222",
"222222222222222222222222+  ;1.%222222222222222222222222222222222",
"222222222222222222222222@   >&X222222222222222222222222222222222",
"222222222222222222222222: -# &&222222222222222222222222222222222",
"222222222222222222222222, ,1O.<222222222222222222222222222222222",
"222222222222222222222222: 12; ,222222222222222222222222222222222",
"222222222222222222222222*X21.#2222222222222222222222222222222222",
"222222222222222222222222+$2* <2222222222222222222222222222222222",
"222222222222222222222222.=< &22222222222222222222222222222222222",
"22222222222222222222222< >& ,22222222222222222222222222222222222",
"22222222222222222222222: 1>.:22222222222222222222222222222222222",
"22222222222222222222222* 122222222222222222222222222222222222222",
"22222222222222222222222<.>22222222222222222222222222222222222222",
"2222222222222222222222222222222222222222222222222222222222222222",
"2222222222222222222222222222222222222222222222222222222222222222",
"2222222222222222222222222222222222222222222222222222222222222222",
"2222222222222222222222222222222222222222222222222222222222222222",
"2222222222222222222222222222222222222222222222222222222222222222",
"2222222222222222222222222222222222222222222222222222222222222222",
"2222222222222222222222222222222222222222222222222222222222222222",
"2222222222222222222222222222222222222222222222222222222222222222",
"2222222222222222222222222222222222222222222222222222222222222222",
"2222222222222222222222222222222222222222222222222222222222222222",
"2222222222222222222222222222222222222222222222222222222222222222",
"2222222222222222222222222222222222222222222222222222222222222222",
"2222222222222222222222222222222222222222222222222222222222222222",
"2222222222222222222222222222222222222222222222222222222222222222",
"2222222222222222222222222222222222222222222222222222222222222222",
"2222222222222222222222222222222222222222222222222222222222222222",
"2222222222222222222222222222222222222222222222222222222222222222",
"2222222222222222222222222222222222222222222222222222222222222222",
"2222222222222222222222222222222222222222222222222222222,;--;;===",
"2222222222222222222222222222222222222222222222222222222-$$$$##$+"
};
