/* XPM */
static char *_20c14499b0444e38bf5378195b32810ggKfangv4F05drFm[] = {
/* columns rows colors chars-per-pixel */
"64 64 21 1 ",
"  c black",
". c #3F3F3F",
"X c gray36",
"o c gray40",
"O c #717171",
"+ c gray48",
"@ c gray50",
"# c gray52",
"$ c gray56",
"% c gray60",
"& c gray64",
"* c gray68",
"= c #B7B7B7",
"- c gray75",
"; c gray76",
": c gray80",
"> c gray84",
", c gray88",
"< c #EAEAEA",
"1 c #F4F4F4",
"2 c white",
/* pixels */
"2222222222222222222222222222222222222222222222222222222222222222",
"2222222222222222222222222222222222222222222222222222222222222222",
"2222222222222222222222222222222222222222222222222222222222222222",
"2222222222222222222222222222222222222222222222222222222222222222",
"2222222222222222222222222222222222222222222222222222222222222222",
"2222222222222222222222222222222222222222222222222222222222222222",
"2222222222222222222222222222222222222222222222222222222222222222",
"2222222222222222222222222222222222222222222222222222222222222222",
"2222222222222222222222222222222222222222222222222222222222222222",
"2222222222222222222222222222222222222222222222222222222222222222",
"2222222222222222222222222222222222222222222222222222222222222222",
"2222222222222222222222222222222222222222222222222222222222222222",
"2222222222222222222222222222222222222222222222222222222222222222",
"2222222222222222222222222222222222222222222222222222222222222222",
"2222222222222222222222222222222222222222222222222222222222222222",
"2222222222222222222222222222222222222222222222222222222222222222",
"2222222222222222222222222222222222222222222222222222222222222222",
"2222222222222222222222222222222222222222222222222222222222222222",
"2222222222222222222222222222222222222222222222222222222222222222",
"2222222222222222222222222222222222222222222222222222222222222222",
"2222222222222222222222222222222222222222222222222222222222222222",
"2222222222222222222222222222222222222222222222222222222222222222",
"2222222222222222222222222222222222222222222222222222222222222222",
"222222222222222222222222222222<$#,222222222222222222222222222222",
"222222222222222222222222222222o  .222222222222222222222222222222",
"222222222222222222222222222222    122222222222222222222222222222",
"222222222222222222222222222222&  $222222222222222222222222222222",
"2222222222222222222222222222221.@2222222222222222222222222222222",
"222222222222222222222222222221O o2222222222222222222222222222222",
"22222222222222222222222222221O   1222222222222222222222222222222",
"2222222222222222222222222222%.*  :222222222222222222222222222222",
"2222222222222222222222222221 *; .#222222222222222222222222222222",
"222222222222222222222222222: <*.: @12222222222222222222222222222",
"222222222222222222222222222#o2##2>.O1222222222222222222222222222",
"22222222222222222222222222> =2.@22,.$222222222222222222222222222",
"22222222222222222222222222#@1:  >22*o222222222222222222222222222",
"22222222222222222222222222222+OOo2221222222222222222222222222222",
"2222222222222222222222222222, ;, -222222222222222222222222222222",
"2222222222222222222222222222&.12%.122222222222222222222222222222",
"222222222222222222222222222* *22<.%22222222222222222222222222222",
"22222222222222222222222221# *2222= ,2222222222222222222222222222",
"222222222222222222222222,X.:222222oO2222222222222222222222222222",
"222222222222222222222221 o<2222222> &,22222222222222222222222222",
"222222222222222222222222X*222222222% %22222222222222222222222222",
"222222222222222222222222122222222221>222222222222222222222222222",
"2222222222222222222222222222222222222222222222222222222222222222",
"2222222222222222222222222222222222222222222222222222222222222222",
"2222222222222222222222222222222222222222222222222222222222222222",
"2222222222222222222222222222222222222222222222222222222222222222",
"2222222222222222222222222222222222222222222222222222222222222222",
"2222222222222222222222222222222222222222222222222222222222222222",
"2222222222222222222222222222222222222222222222222222222222222222",
"2222222222222222222222222222222222222222222222222222222222222222",
"2222222222222222222222222222222222222222222222222222222222222222",
"2222222222222222222222222222222222222222222222222222222222222222",
"2222222222222222222222222222222222222222222222222222222222222222",
"2222222222222222222222222222222222222222222222222222222222222222",
"2222222222222222222222222222222222222222222222222222222222222222",
"2222222222222222222222222222222222222222222222222222222222222222",
"2222222222222222222222222222222222222222222222222222222222222222",
"2222222222222222222222222222222222222222222222222222222222222222",
"2222222222222222222222222222222222222222222222222222222222222222",
"2222222222222222222222222222222222222222222222222222222,;--;;===",
"2222222222222222222222222222222222222222222222222222222-$$$$##$+"
};
