/* XPM */
static char *_449fb50b09443c8a2dd9730bd759235SKLVF5uKe7HiJvkq[] = {
/* columns rows colors chars-per-pixel */
"97 64 40 1 ",
"  c #07060C",
". c #07060E",
"X c #08050C",
"o c #09060D",
"O c #08070D",
"+ c #0B060D",
"@ c #08050E",
"# c #09060F",
"$ c #0A070E",
"% c #0C070E",
"& c #0E070F",
"* c #0D080F",
"= c #080510",
"- c #090611",
"; c #0A0710",
": c #0A0712",
"> c #0D0711",
", c #0C0612",
"< c #0D0713",
"1 c #0F0712",
"2 c #0A0614",
"3 c #0B0715",
"4 c #0B0811",
"5 c #0B0813",
"6 c #0F0810",
"7 c #0E0910",
"8 c #0F0A11",
"9 c #0E0812",
"0 c #0C0914",
"q c #0E0814",
"w c #0F0915",
"e c #0C0816",
"r c #0D0917",
"t c #100911",
"y c #100813",
"u c #100B12",
"i c #110C13",
"p c #100815",
"a c #100A16",
"s c #110B17",
/* pixels */
"333333333223333eeeeeeeeeeeeeeeeeeeeeeeee333333333555555555555555$5.5255 22 22 22.2.22+.2=======@ ",
"33333333222333eeeeeeeeeeeeeeeeeeeeeeeeee33333333035555555555555525525 25.2.+2.+..222 22.=======@.",
"33333333222333eeeeeeeeeeeeeeeeeeeeeeeeee00ee3333555555555555555552522$52222.22+222+.+22.=======@.",
"33333333222333eeeeeeeeeeeeeeeeeeeeeeeeeeeeee30ee5555555555555555 52552.5 .22.2. 2 .2. 22=======@.",
"33333333222333eeeeeeeeeeeeeeeeeeeeeeeeeeeeeeeeee5555555555555555252.525.2+2.2222.22.22.2=======@.",
"33333333222333eeeeeeeeeeeeeeeeeeeeeeeeeerrrrrrrr55555555555555555 $5 5252..+2..222.+.2 2=======@.",
"33333333222333eeeeeeeeeeeeeeeeeeeeeeeeeerrrrrrrr555555555555555525.5522$..222+.22  2222+======2 .",
"33333333223333eeeeeeeeeeeeeeeeeeeeeeeeeerrrrrrrw5555555555555555525$2552222  22.+222..2.======  .",
"333333333eeeeeeeeeeeeeeeeeeeeeeeeeeeeeeeeeeeeeee00000000555555555.525  5.55225 5.22.2.22+.222+.2.",
"33333333eeeeeeeeeeeeeeeeeeeeeeeeeeeeeeeeeeeeeeee0000000055555555$22525525$25$2522.222.2 .22. 22..",
"33333333eeeeeeeeeeeeeeeeeeeeeeeeeeeeeeeeeeeeeeee0000000055555555252555.5255 5.252. 2.222.22  22 .",
"33333333eeeeeeeeeeeeeeeeeeeeeeeeeeeeeeeeeeeeeeee00000000555555555 522$525225255.22.++2 .2.+222.+.",
"33333333eeeeeeeeeeeeeeeeeeeeeeeeeeeeeeeeeeeeeeee000000005555555552$5 525 52$5255.222.2222..22..2.",
"33333333eeeeeeeeeeeeeeeeeeeeeeeeeeeeeeeeeeeeeeee0000000055555555255.525.52.5.52$ 2.2 2.2222.222 .",
"33333333eeeeeeeeeeeeeeeeeeeeeeeeeeeeeeeeeeeeeeee00000000555555555 5.25$55 522$.522..22.. .2+ .2+.",
"33333333eeeeeeeeeeeeeeeeeeeeeeeeeeeeeeeeeeeeeeee00000005555555552525$22525255252+.2++.2+2+.22+.2 ",
"eeeeeeee333eeerrey9ey9ey9ey9ey9e9ye9ye9ywwwwwwwwey9ey9ey9ey9ey9e5555555555-55 552 +  +.+.+ +.+2  ",
"eeeeeeee333eerrryeyeeyyeyeeyyeyeeeyy9yeewwwwwwww9eeyeyyeeyeyyeey555555555$5-252$ + ++ 2 2 + + ++ ",
"eeeeeeee333eerrr9eyye99eeyye9eyyyeyeeyeywwwwwwww9yy99ee9yyee9yy955555555-5-552252o+  + ++  + ++  ",
"eeeeeeee333eerrrey9eyyey9ye9ey9e9ye9ye9ywwwwwwwweeyeyeyy9ey9eeye555555555-5-.5$O+o2 + +  +2 +  + ",
"eeeeeeee333eerrrye9yeeyey9eyeyyeey9eey9ewwwwwwwwyeeyeyyeeyyey9ey55555555-5-5-5-5 + + + ++ + + +  ",
"eeeeeeee333eerrr9yeey99yeyyeye9yyeeyyeeywwwwwwww9y9ye9e9ye9yeyye555555555-5-5-5$2X+ +2+  + + 2 + ",
"eeeeeeee33eeerrreyeyyeey9ee99e9e9yy9y99ewwwwwwwwey9ey9ey9e9ee99e55555555-5-5-5-5.+ ++ + + + + +  ",
"eeeeeeee333eerreye9ye9yeyeyyeye9eeyeeye9wwwwwwwwyeeyeyyeeyyeyyey555555555-5-5-5O2 +  + + + 2 + + ",
"3eeeree3eeeeeeee9<<eeaywwwwwwwwwapwwwwwwwwwwwwwwwwwwwwwwpaaape9e5555555555555555$$$$$$$$ 2 + ++  ",
"3eerreeeeeeeeeee<<<99pwwwwwwwwwwyawwwwwwwwwwwwwwwwwwwwwwaapew9ey555555555555555$5$$$$$$$+ + +  ++",
"eeerree3eeeeeeee<<<eeayawwwwwwwwwwwwwwwwwwwwwwwwwwwwwwwwaaepyey95555555555555555$$$$$$$$ + + +   ",
"3eereee3eeeeeeee<<<y9wwpwwwwwwwwwwwwwwwwwwwwwwwwwwwwwwwwppi9e99e555555555555555$5 $$$$$$+ + + 2+.",
"3eerree3eeeeeeee<<<eyppewwwwwwwwwwwwwwwwwwwwwwwwwwwwwwwwepy<ye<<5555555555555555$$$$$$$$+ 2++ + O",
"3eerree3eeeeeeee<<<y9piewwwwwwwwwwwwwwwwwwwwwwwwwwwwyawwpqq<99<<55555555555555555$$$$$$$ ++  + +O",
"3eerree3eeeeeeee<<<eepeawwwwwwwwwwwwwwwwwwwwwwwwwwwweppp9e<<<<<25555555555555555+$$$$$$$+ + + + O",
"3eeereeeeeeeeeee<<<99papwwwwwwwwwwwwwwwwwwwwwwwwwwwwpiepey<<<<<%55559$555$555$55$$$$$$$$ + + 2 +O",
"eyyeyeeyye9yeyyewwwwwwww99ewpye9wwwwwwwwy9ey9ey9ey9ey9ey9ey9ey9e%*<*%*<*<*%t<*%*%+$$$$$$ + + 2 2$",
"ye9ye9ye9yeeye9ywwwwwwwwe9aawe99wwwwwwwweyyeeyeyyeeyeyyeeyeyye9y<**********%****$$$$$$$$+ + + + $",
"9e9ey9y9eyey9e9ewwwwwwwwpeaaaawwwwwwwwww9ee9yyee9yy99ee9yyeeyeey<***************$$$$$$$$ +2  + +O",
"eyyeyeeyye9yeyyewwwwwwwwaasssaaawwwwwwwwyeyy9ey9eeyeyeyy9ey9e999%***************$$$$$$$$+ +++ + o",
"yyeyeyee9ey9yeyywwwwwwwwaaaaaaaawwwwwwwwey9eyeeyyeeyeyyee9yeyyey<***************$$$$$$$$+ + + +2o",
"9ee99yy9eyyee99ewwwwwwwwpaaaaaaawwwwwwwwyeeye9ye9y9ye9e9yye99e99%***************$$$$$$$$ + + +  o",
"eyyeyeeyyeeyeyyewwwwwwwpe9aapwe9wwwwwwwwy99yy9y9ey9ey9eyeyeyye99<***************$$$$$$$$+ + +  +o",
"ye9ye9ye9ye9ye9ywwwwwwwp9e9ype99wwwwwwwweyeeyeeyyeeyeyyee9ye9ye9<***************$$$$$$$$ 2 + ++ o",
"9ey9ey9e9ey9ey9ewwwwwwwwwwwwwwwwwwwwwwww9eyeeyee9ye9ye9yyeeyeey9%***************$$$$$$$$++ + + +o",
"eyeyyeeyyeeyyeyewwwwwwwwwwwwwwwwwwwwwwwwe99y9yy9eeyy9yee9y9yy9e99***************$$$$$$$$+ + + + o",
"yyee9yy9eyye9eyywwwwwwwwwwwwwwwwwwwwwwwwyeeyyeeyyeyeeyeyey9eeyy99***************$$$$$$$$+  + 2 +X",
"9ey9eeye9ye9ey9ewwwwwwwwwwwwwwwwwwwwwwwwe9yee9ye9ye9ye9yyeeyye99****************$$$$$$$$ +2 + + X",
"eyyey9eyy9eyeyyewwwwwwwwwwwwwwwpwwwwwwwwy9ey9ey9ey9eey9e9ye99ey99***************$$$$$$$$+ + +  +o",
"ye9yeyyeeyyeye9ywwwwwwwwwwwwwwwawwwwwwwwyeyeeyeyyeeyyeeyeeyyey999***************$$$$$$$$ + + ++ o",
"9e9ee99e9ee99e9ewwwwwwwwwwwwwwppwwwwwwwweey9yyeee9y9y9e9yeyeyeey****************$$$$$$$$+ + + 2+o",
"eyyeyyeyyeyyeye9wwwwwwwwwwwwwwppwwwwwwwwy9ey9ey9yye9e9y99ye99999****************$$$$$$$$ + 2 ++ $",
"yyeyyeyyeyyeyyeyppppppppppppppppppppppppppppppppyty*666616161616*****************+*+*+*+++++++++o",
"9ee9e99ee9e99ee9pppppppppppppppppppppppppppppppyy*tt666666666666****************+*+*+*+*++++++++o",
"eyyeeyyey9eyeyyepppppppppppppppppppppppppppppppy6t%t666666666666*****************+*+*+*+++++++++o",
"ye9yye9yeyyeye9ypppppppppppppppppppppppppppppppy6&t&666666666666****************+*+*+*+*++++++++o",
"9ey9ey9ee9ye9ey9pppppppppppppppppppppppppppppppy6666666666666666*****************+*+*+*+++++++++o",
"eyeyyeyeyye9eyyepppppppppppppppppppppppppppppppy6666666666666666****************+*+*+*+*++++++++o",
"yyee9eyyeyeyyeeypppppppppppppppppppppppppppppppyy&66666666666666*****************+*+*+*+++++++++o",
"9ey9ey9ee9ye9ye9pppppppppppppppppppppppppppppppyy<66666666666666****************+*+*+*+*++++++++o",
"eyyeyeeyyeeyeeyepppppppppppppppppppppppppppppppy6ttttttt11&&&&&&8*8*8*8*++O%*****t8******+*+*+*+o",
"ye9ye9ye9y9yy99ypppppppppppppppppppppppppppppppy6ttttttt&&&&&&&&*8*8*8*8++%************O+*+*+*+*o",
"9e9ey9y9ey9eyeeypppppppppppppppppppppppppppppppyyytttttt&&&&&&&&8*8*8*8*%%****8*t**8***%*+*+*+*+o",
"eyyeyeeyyeeye9yepppppppppppppppppppppppppppppppyyytttttt&&666666*8*8*8*8*******8888*****+*+*+*+*o",
"yyeyeyee9ye9yyeypppppppppppppppppppppppppppppppyytttttttt&tt66668*8*8*8***t*888*88i*tt***+*+*+*+o",
"9ee99yy9eeyy9ee9pppppppppppppppppppppppppppppppyyttttttttttt66y6*8*8*8*8t*88*iiii888****+*+*+*+*o",
"eyyeyeeyyeyeeyyepppppppppppppppppppppppppppppppyytttttttttttttyy8*8*8*8*888ii8ii8i*8i*8**+*+*+*+o",
"ye9ye9ye9ye9ye9yppppppppppppppppppppppppppppppyyyttttttttttttttt*8*8*8**88i88iiii8i888*8+*+*+*o*o"
};
