/* XPM */
static char *result[] = {
/* columns rows colors chars-per-pixel */
"64 64 234 2 ",
"   c #503C0F",
".  c #452D14",
"X  c #4B3216",
"o  c #543916",
"O  c #56391B",
"+  c #5B3C1C",
"@  c #613F1E",
"#  c #4B3728",
"$  c #533B24",
"%  c #5A3E22",
"&  c #553E2A",
"*  c #593D2A",
"=  c #4F3E34",
"-  c #5A460F",
";  c #5A4614",
":  c #644D0E",
">  c #67510E",
",  c #6B530E",
"<  c #725B0F",
"1  c #644818",
"2  c #6B5411",
"3  c #6C5A16",
"4  c #786416",
"5  c #5C4127",
"6  c #5B412B",
"7  c #5C4331",
"8  c #554338",
"9  c #644424",
"0  c #6A4622",
"q  c #6D4925",
"w  c #63462C",
"e  c #65482D",
"r  c #6B4B2D",
"t  c #724D26",
"y  c #724E29",
"u  c #6D552C",
"i  c #76522A",
"p  c #79552B",
"a  c #7B592E",
"s  c #644937",
"d  c #6B4D33",
"f  c #6A4D3A",
"g  c #6F5033",
"h  c #6D513C",
"j  c #735232",
"k  c #7A5533",
"l  c #7C5C32",
"z  c #74553C",
"x  c #7D5B3A",
"c  c #786727",
"v  c #7D6237",
"b  c #675142",
"n  c #745541",
"m  c #795B47",
"M  c #7C5B44",
"N  c #7E604B",
"B  c #876C16",
"V  c #8B7315",
"C  c #947B18",
"Z  c #83592E",
"A  c #835C34",
"S  c #885D35",
"D  c #835D3B",
"F  c #8C742A",
"G  c #846235",
"H  c #8B623A",
"J  c #88663A",
"K  c #93663C",
"L  c #946A3D",
"P  c #9B6C3D",
"I  c #98733C",
"U  c #A2723F",
"Y  c #815E45",
"T  c #846245",
"R  c #876843",
"E  c #84634C",
"W  c #8A664B",
"Q  c #8D6A4C",
"!  c #936A44",
"~  c #9B6E43",
"^  c #936D4C",
"/  c #89754A",
"(  c #9B7343",
")  c #9B7748",
"_  c #99724D",
"`  c #896954",
"'  c #8D6B54",
"]  c #936E53",
"[  c #936F56",
"{  c #957155",
"}  c #9B7454",
"|  c #9E7B53",
" . c #95725A",
".. c #9A765C",
"X. c #9D795D",
"o. c #A36F41",
"O. c #A47343",
"+. c #A67847",
"@. c #AB7B4B",
"#. c #B37D49",
"$. c #A77D54",
"%. c #A37B5D",
"&. c #997761",
"*. c #9D7A62",
"=. c #A37E63",
"-. c #A97F62",
";. c #9B8618",
":. c #A58D15",
">. c #A38E1B",
",. c #AA9617",
"<. c #A6911C",
"1. c #AA951B",
"2. c #AE981C",
"3. c #B19B16",
"4. c #B29C1B",
"5. c #BAA21A",
"6. c #9B8724",
"7. c #AC8B2D",
"8. c #AB9721",
"9. c #B39C23",
"0. c #BAA225",
"q. c #C3A928",
"w. c #CCB333",
"e. c #AA814D",
"r. c #B3844D",
"t. c #BC844D",
"y. c #BA9847",
"u. c #AB8357",
"i. c #B68754",
"p. c #BB8B5A",
"a. c #B99259",
"s. c #A68165",
"d. c #AB8365",
"f. c #A88567",
"g. c #AC856A",
"h. c #AE886C",
"j. c #B58A67",
"k. c #B48B6D",
"l. c #BA9466",
"z. c #BB936D",
"x. c #AE8A71",
"c. c #B48D71",
"v. c #B88F71",
"b. c #B69175",
"n. c #BC9374",
"m. c #BD9B75",
"M. c #B4937B",
"N. c #BC967A",
"B. c #BD997D",
"V. c #BBA177",
"C. c #C48C53",
"Z. c #C78F57",
"A. c #C4925A",
"S. c #CB9459",
"D. c #CC995D",
"F. c #D29C5D",
"G. c #C5A447",
"H. c #C59867",
"J. c #CB9C64",
"K. c #D39E60",
"L. c #C19675",
"P. c #C59B77",
"I. c #C49C74",
"U. c #C49B7C",
"Y. c #C99E7C",
"T. c #CBA26A",
"R. c #D4A263",
"E. c #D2A46B",
"W. c #D6A969",
"Q. c #D9AC6B",
"!. c #C7A377",
"~. c #CBA37C",
"^. c #CCAB7D",
"/. c #D4A873",
"(. c #D4AB74",
"). c #D4AD7B",
"_. c #CEB17A",
"`. c #D4B374",
"'. c #DBB374",
"]. c #D6B27B",
"[. c #D9B47B",
"{. c #DCBA7C",
"}. c #BE9C83",
"|. c #C79E80",
" X c #C5A183",
".X c #CBA483",
"XX c #CDA985",
"oX c #C8A788",
"OX c #CDAB89",
"+X c #D0A783",
"@X c #D2AC84",
"#X c #D1AC8A",
"$X c #CDB388",
"%X c #D5B385",
"&X c #D9B682",
"*X c #DCBC83",
"=X c #D3B38C",
"-X c #D6B98C",
";X c #DABC8B",
":X c #CFAF92",
">X c #D4B491",
",X c #D6BA93",
"<X c #D9BE94",
"1X c #D8BE99",
"2X c #DEC285",
"3X c #D6C18F",
"4X c #DDC38C",
"5X c #DCC393",
"6X c #DECA95",
"7X c #D7C19A",
"8X c #DBC59C",
"9X c #DECA9C",
"0X c #E1C686",
"qX c #E0C68A",
"wX c #E2CA8D",
"eX c #E0C793",
"rX c #E2CD93",
"tX c #E1CE9A",
"yX c #E4D295",
"uX c #E3D49B",
"iX c #E6D99E",
"pX c #DDCCA3",
"aX c #DCCAA6",
"sX c #DFD1A8",
"dX c #E0CFA0",
"fX c #E2D5A4",
"gX c #E6DBA3",
"hX c #E8DEA4",
"jX c #E2D5AA",
"kX c #E5DCAA",
"lX c #E4DBB2",
"zX c #E8E2AB",
"xX c #E9E4B6",
"cX c #EAE8C0",
/* pixels */
"zXzXgXiXyXqXwX0X2X{.rXrXhXiXhXhXyXwX2XE.(.T.y.) ) ( I G v v a a a p a p p Z p p a v a a a i a a a a p t p p a p p p p a p a a l ",
"zXzXzXzXyXwXwX{.0XyXqX*XrXhXhXtXrXyXwX(.`.`.J.e.e.e.( ( L G G a a a p p a c a p a l a a i i i i p p a a a a a a a p a a p a a l ",
"zXzXyXiXuXrX&X{.0X2X'.2XqXhXzXhXiXiX6X2X{.{.T.a.i.y.e.e.I I J G Z G G p a l a a l a a i i k a i t i p p p p p y u l p a a l a a ",
"iXiXgXiXhXhXyXwX0X0X*X].*XiXyXuXyXiX6X4X*X*X{.`.V.V.a.a.e.+.P Z J J G p p a y p a a a a a c l i i p a a a a p a c l a p a a i i ",
"yXyXyXwXiXiXiXuXwXqX*XqXyXyXyXiXuXiXuXyX6XrX2X[.Q.T.D.a.r.@.e.P L K S t i p Z a i a a i i a p i p Z a a p y u a c v a i i i p p ",
"wXyXyXiXyXiXiXrXeX2X*XwXqXwXrXuXiXgXfXtXyXrX2X[.`.J.J.J.i.@.( K Z Z i i y t p i i i l q p p i l l c v v p t i v l a a a a p a a ",
"0XwXiXiXyXyXuXtXiXrX2XwX{.0X0XwXyXgXxXgXyXrX6X*Xl.a.H.$.r.z.! H A r w 0 9 t q t i i R v l i p a a a l a a a p t k a a a i i a a ",
"{.{.0XwXrXeXtXgXhXhXiXyX2X0X2X*X&XdXzXiXfXgXsX5X!.l.H.p.u.^.p.@.@.K A k k p y G x u v v i i a c l a a a a a p i y i a p p q i a ",
"{.0XqX2X4X&XrXiXhXxXhXyXwX&X[.'.[.4XtXfXjXfX5X<X%X).].].H.5X(.H.A.i.u.+.( I ) ) g 5 1 i p a a a a a a c a v l l a a a a p p a G ",
"yXyXrX0X/.&XiXhXhXhXhXiXwX*X)./.[.[.&XjX9X;X6X5X6XfXuXeX4XfX4X)./.T.T.H.a.l.V.| l r 9 9 y a Z t 1 i l v R v v l p t 1 i p y a a ",
"iXyXyXrX4X4XyXiXgXgXiXtXeX4X[.[.'.J.I.pXfX4X9XkXkXkXuX5X5XlX1XP.j.$.$.u.l.$X^.a.u.J k i q q p t q t i N / N v a i y y a a p a a ",
"yXiXyXrXrX2XqXwXyXhXgXyX4X;X2X&X&XXXH.$XkXfXuXfX5X5X,X,XpXcXlX|.X.X.X.^ ^ m.$X^.T.i.+.K A q q 0 9 1 u c / N v l a a a a a v a l ",
"yXeXyXiXrX0XqXrXyXyXiXeX4XeX;X;XpXjX<X1XlXuX-X%X=X>X>X1XaXlXjXM.' X.d.M m j.v.P.oX_.V.r.I J i u y 0 9 0 i A l a a a a i i p p a ",
"hXuXeXiXiXrXqX0XwXrXwX;X4XeX<X8X9X-X4XdXfX;XP.~.XXOX>X>X,X>X:X-.' } %.n h -.%.Q | m.$X$Xl.( J ) Y 9 9 % 9 t p A G v p t i p p a ",
"hXgXhXhXiXyXyXwXqX2X4X*X4XeXtXaX-X%X4X4X#Xn.N.n.n.U..X.X:X|.|.x.*.=.g.m n d.] M m Q u.!._.V.!.j.Y 9 9 9 9 9 t A l c c p p i p p ",
"eXtXtXeXiXgXiXyXwXwX2X2X&X<XaX<X;XtXiX-Xz.z..Xh.-.x.|..X>X.X+XM.x.c.v.' Y d.Q n h N E u.3XtXT.+.A e 9 t 9 % + 9 p G v a a p a p ",
"&X&XeXiXyXiXzXxXiXwX*X[.&X<X9X5XeXkXfX%XL.U..X=.&.=.x.U.#X|.#XN.M.U.L. .[ -.} n f z m { XX4X].a.~ A w r 9 O X 5 y G Z Z a a a a ",
"[.wXrXyXiXhXxXxXgX*X).(.%X<X-XqXuXkXtX>X#X~.Y.X. . .-.v.|.|.|.N.N..X|.=.*.k.%.W f f s W k.5X2X/.@._ k w w $ # O 1 p S J G Z p i ",
"[.{.2XrXiXiXzXhXrX*X)./.,X,X@X5XkXfX5X,X>X.X~.=.[ ' &.k.L.v.U.b.B..X.XN.g.L.g.` n f s n ..^.6X*XJ.t.+.j w 5 $ $ $ 9 p H G G a p ",
"Q.[.*XwXrXiXuXiXeX4X).L.+XeX4XeXtX5X,X>X,X.X.Xg.&.[ %.g.c.g.v.x.B.#X#XU.N..Xv. .E m h M ' j.;XuX).p.+.R r w # 5 r 9 i Z S L L G ",
"K.F.'.*X0XrXyXrXeX4X@X~.~.<XfXkXtX-X#X>X,X#X=XN.g.=.g.-.g.=.g.&.x.oX>X X|.#XU.g. .` m ' Q -.n.6X;XE.r.! k w # 5 Z y y p S I ( I ",
"E.E.Q.Q.*X0XeX4XeX&X-XeXfXkXxXxXdX@X.X.X>X#X>XU.c.g.k.-.g...*.` =.|.1XXX.X:XXXL.g. .` ] Q %.%.%XuX*XH.^ Q d # & k k j l U #.( O.",
"F.'.'.'.[.[.&X&X;X-X-XsX5X;XuXfX-XU.U.U.@X#X,X.XL.N.n.j.d.....`  .v.|.U.|.>X=X.Xv.=...%.] ..^ m.kXuX3X^.l.k 6 6 e k k k P i.i.a.",
"Q.Q.'.'.'.'.Q.*X*X-X<XsX<X;XuXtX%XU.N.n..X.X,XoXY.Y.|.v.d...&.N ` -.L.n.|.>X=X#XU.c.g.k.%.[ ] v.tXeXT.$.R d w d d r i g p D @.Z.",
"R.Q.Q.Q.W.Q./.[.&X@X<XtX-XeXgXuXjX8X|.x.U.Y.=X X.X.XXXn.k.=...m m  .j.-.c.OX=X#X|.U.L.N.&.%.} -.-XrXT.+.D d e T z w e e j @.J.S.",
"K.K.R.R.W.Q.K.H./.Y.1X<X<XtXzXkXxXlX|.x.L.L.#XY.Y..X.XU.U.g.=.E m  .g.%.*.oXXX.X.X|.|.U.h.g.=.-.!.tX/.@.J e r d j d e w i +.R.W.",
"F.R.F.F.R.Q.R.S.J.).8X;X5XuXzXfXaX>XN.k.n.v.+XN.U.|.#XXX.Xv.g.` N  .-. . .P.|.|.|.|.|..XU.Y.-.g.N.9X).i._ d d g g k w e d P Z.D.",
"Q.R.Z.S.S.K.F.C.J./.;X+X;XfXzXdX,X|.N.h.k.v.~.c.L.|.#X=X=XU.k.&.` &.&.` ` n.L.L.U.|..XOX.X#XN.v.m.9X*XA.@.D k k r g w w r K S.S.",
"Q.Q.R.W.F.S.C.C.C.A.@X-X;XgXzXdX1XOX|.x.c.c.|.h.x.v.|.:X,X.X|.x.*.-.%.` E k.k.h.x.N.|.OX:X:X X|. X6X;XH.@.D j A k g e d k H t.F.",
"Q.Q.Q.R.F.S.t.t.t.$.I.dXlXxXcXkX1X:X X}.x.b.c.f.=.g.N.oX>X|.|.b.g.c.-.` Y =.-...s.x.b.}.oXOXoXoX X5XeX].H.| z x x A j g k K C.F.",
"Q.F.F.Z.C.F.C.#.#.@.L.<XdXlXxXjX>XoX|.M.M.b.N.&. .=.x.|.#X|.|.L.M.N.g.[ ` -.%.[  . .=.b.}.|.U.oX>XfXxXgX<X!.T z k A S A k S t.R.",
"R.R.R.R.Z.F.t.U o.~ L.P.~.uXzXeX#XOX.X|.|.|.+Xs. .*.x.k..XU.|.|.N.U.v.*.' v.-.Y E '  .c.M..XoX>XsXjXkX6X~.l.T z D D K H l S #.R.",
"Q.Q.Q.R.Z.Z.o.U #.@.l.L.-XxXxX5X.X|. X X#X.X=Xk.&. .g.g.U.N.|.b.N.|. Xh.*.n.-.E N ` E *.x..X|.#XjXjXkX4X!.z.%.] ! ! P H k k @.R.",
"Q.F.R.R.R.F.t.#.O.+./.I.%XxXxX@XU.N.U. X>X=X1XN.=.&.g.h.L.c.L.M.N.OX#Xb.h.U.k.` m E m &.-.Y.N.oXsXjXzXuX%X%X=Xm.| ~ ~ H j k t.Q.",
"R.F.F.R.Q.K.#.K K ~ ~.I.H.eX6XI.v.h.c.|.>X,X8X|.x.=.x.b.L.g.c.c.N..X1X|.N.OXL. .N m n ' =.v.g.B.pXjXkXdX5XpXlXaXz.^ ! L D A U F.",
"Q.Q.K.Q.Q.F.t.U K K ~./.A.(.(.j.-.=.=.N.=X>XaXoXN.x.!.5XaXm.h.=.M.=XjXlX:X>X.X=.[ E m ` ..-.&.c.7XsXzXuX9XsXsX5Xj.W T K K S o.D.",
"'.'.{.'.Q.R.C.#.P L P.I.r.T.J.$.%.*. .x.@X#X8X#XU.m.!.9XtXXXg...f.^.jXlX9X1X$Xc.=.' E [ [ =. .g.>XsXgX9X6X3X=X~.d.Q Y Y A S o.S.",
"Q.{.iXhX0XW.t.o.K L !.).H.]./.d.-...[ g.+X.XaX#X|.U.m.^.!.L.f. .X.l.$X;X-XaX,X Xc.*. .&. .%.' =.oX9XiX6X;X#X!.n.d.$.! D j k S @.",
"R.'.iXxXgX'.Z.+.H ~ -X<X%X5X4X~.L.g...-.Y.U.,XOXoXXXV.z.N.v.-.` ..u.f.!.oX1X,X@X|.c.g.-.=.=.] =.$XsXzXkX9X-Xm.j.%.{ T ~ S j d ~ ",
"R.'.0XyXwXQ.Z.o.S D ^.~.p.(.!.$...E n W v.n.#X XY.oX$XOX|.|.}.` ' f.b.z.N.,X,XXX|.U.v.h.d.-.` g.$X-X9XtX9X5Xz.*.| { R Y D d j @.",
"R.Q.W.E.J.D.C.O.r d n.~.H.E.H._ [ Y s M -.-..Xn.|.|.:X1X>X|.|.[ ' x.!.f.h.OX>X#X X|.P.L.v.v...h.XX/.%X/.H.z.../ ' _ T x l A ~ #.",
"Z.K.J.C.D.C.t.U j D I.8X5X&XA.^ W n f n %.=.Y.-.-.|.#X:X>X+X.X=.&.h.n.*.=.|.OX|..X.X|.|.|.Y.-.c.OX~.[./.u.| E N M R M d k H L O.",
"r.a.J.D.R.C.+.k y z I.<X/./.p.^ W n s Y -.[ d.%.-.-..X:X,X#X+X-.f.n.P.X...n.|.L.|..X.X#XOX.Xc.N.=X).[.J.$.Q x z z x j w d S K #.",
"@.r.a.Z.C.#.S k A R V.;XA.J.p.]  .E b b m W %.[ %.-.|..X>X:X#Xv.x.L.Y.f...j.U.~.|.|.OX=XoX XU.|.>X%X[.J.u.T g 7 e j d d w r ! S.",
"I +.#.t.t.U k j j H  X-Xp.J.i.^ N b 8 = = 8 b b Y &.v.|.:X#X.Xv.}.|..Xg.%.g.v.L.c.M.}.|.}.}.}.x.:X5X*XT.p.R d 6 * d j r w d #.F.",
"K ~ O.o.U K A y e G V.-Xp.J.i.^ m = # # # s n s n ` -.N..X.X:X|.|..X.Xk.=.d.d.g.=.=.c.|.}.}.N.|.>X9X;XT.p.! d 6 * w e d e A o.C.",
"G J K S A A k w w _ oX6X@X*X/.$.[ M s f Y Y [ z f Y -.-.n.|..X|.|.:X=XN.f.n.j.-.*.=.x..XoX#X#X1X8XsX6X].A._ f 6 & 6 w w e A ~ Z.",
"G Z Z Z S Z y * e f.;X=X%XeX-Xk.Q m s z ] Y } s s Y [ [ -.j.|.|.|.#X,X|.x.U.L.=. . .-.U.U.XX=X1XpXxXzXfX3XV.N 7 6 & w w e H U S.",
"p t t t Z Z 9 * * _ I.$.$.E.H.{ W n f Y } Y } f 7 f Y W -.-.L.-.U.OX1X#XU.XXY.s...[  .h.n.+X#X8XsXxXjXdX;XL.T h e 6 6 6 u S o.t.",
"y q 9 1 q q * 9 9 ! l.} @.E.A._ W Y b Y } Y } f 7 s Y W -...j.%.c..X1XaX7X<X.Xk.&.[ [ =.k.Y..X,XjXxXgX3X~.j.Q M h 6 6 6 j G ~ #.",
"t @ + + + * % * w ! j._ $.E.H.^ [ Y f Y ] Y } j 7 s f W ....-.[ =.|.>XaXlXaX#XU.-.&.` [ -.Y. X,XsXxXzX6X).z.%.Q N g 7 g Z k H O.",
"+ + O + + O O % 9 S j.$.#.J.A.^ ] Y * f } W } f 7 s s Y } [ %.Y ' c.#XOX>X1X#XY.h.=.` Y =.L.L.#X9XzXzX9X-X!.g.} R N z l D S K #.",
"+ + o O @ + O % % k u.i.#.J.H.^ W Y * f ^ W ^ d * 7 s n ] Y W n m =.Y.b.N.=X#X.Xv.-.' m ] g.d.P.1XkXgX9X5XXXL.d.} W ! K K K K C.",
"@ o O + @ @ O @ % i X.u.@.H.p.^ ] f * s ^ W ^ s * 7 s Y ] Y W f n  .v.=.k.XX#XoXv.g.&.N E -.%.L.;XsXgX6X5X%X~.k.%.} ! Y x S K C.",
"@ O O O X O O @ % t ^ ) @.a.i.^ W Y * f } ] } f # 7 f Y ] n n 7 f Q -...=.oX@XY.v.=.*.` E -.{ j.$XdXtX4X-X@X).L.d.Q Y K D k A o.",
"@ o o o X . X X O + j G ! +.( G Y j * f } ! } j * 7 w f ! d q * * M } Q ^ n.Y.v.-...^ Y Y _ T | !.5X2X%X^.P.I.H.d.] Y Y k k j A ",
"o X o X . . . . . . o   ; ; 1 3 < 4 < B C V B B B B B B B V V V V F 7.7.7.G.G.G.y.y.8.8.6.6.;.F F u.a.a.j.j.l.f.$.{ R D k k g d ",
"o o X X X X . . . . .       ; 1 < V C ;.2.2.2.2.2.1.4.4.3.,.<.,.4.4.q.q.w.w.w.w.w.w.w.0.0.0.8.;.c c c v / | $.$.$.+.! ! K D S k ",
"O o + + o - o o o o   - - - - 3 < V V ;.<.1.3.9.2.<.1.2.2.4.4.4.3.4.4.5.q.q.q.q.0.0.0.0.8.<.8.;.3 3 c u c J | | ) +.P ( U I I I ",
"1 : > : : : : : - : 2 2 < , < < < V V ;.C <.1.<.<.1.1.1.1.<.,.3.4.4.9.9.q.9.9.q.0.0.0.8.0.8.8.,.6.c 3 u c c F F c c c 4 4 4 4 C ",
"> > > : : : : > > , , > , , , , < < 4 V V C C :.:.C >.1.,.,.,.4.,.4.4.8.,.8.8.8.8.8.8.8.>.<.>.2.,.<.6.6.6.6.6.6.6.6.6.;.;.;.>.>.",
"> , , , > > : > > , , , , : > 3 < < 4 B B V V :.:.<.1.4.3.5.3.3.4.2.4.2.4.,.>.<.8.8.8.8.8.8.8.8.8.,.2.8.8.8.8.8.8.2.4.5.5.5.4.3.",
", , > , , , , , , < , , , > > > , , < < < B V C :.:.:.1.3.3.4.2.<.<.1.<.1.4.,.,.,.<.<.,.,.2.,.8.,.8.,.2.,.,.2.2.8.2.2.4.4.5.5.5.",
", , , , , 2 , , < , , 3 , , , , < , , < < < B B V C C :.3.5.3.1.<.,.,.4.4.4.3.3.3.4.8.2.2.8.4.2.2.,.2.2.<.<.<.>.>.<.8.<.4.5.5.5."
};
