/* XPM */
static char *result[] = {
/* columns rows colors chars-per-pixel */
"64 64 58 1 ",
"  c #FCFEFC",
". c gray93",
"X c #D0D0D4",
"o c #CBCCCC",
"O c #D8D9DE",
"+ c #F9FAF9",
"@ c #B2B2B0",
"# c #3E3F40",
"$ c #090A0A",
"% c #171919",
"& c #757271",
"* c #E5E5EC",
"= c #101313",
"- c #D4D4D5",
"; c #A9AAAA",
": c #2E2F31",
"> c #625E5C",
", c #EDEFEF",
"< c gray25",
"1 c #F6F4F5",
"2 c #FCFDFC",
"3 c #FBFDFB",
"4 c #C8C7C7",
"5 c #646563",
"6 c #6D6C6D",
"7 c gray3",
"8 c #2C2B2C",
"9 c #FBFBFA",
"0 c #DDDEE4",
"q c #1A1E1E",
"w c #A0A0A0",
"e c #FBFCFB",
"r c gray99",
"t c #333435",
"y c #040304",
"u c #050405",
"i c #0A0D0D",
"p c #8F8C88",
"a c #2E2627",
"s c #BABAB9",
"d c #F5F5F7",
"f c #E9EAEC",
"g c #515257",
"h c #4B4A4E",
"j c #FAFAF9",
"k c #0D1111",
"l c #C2C2C0",
"z c #939698",
"x c #121515",
"c c #060606",
"v c #939090",
"b c #464546",
"n c #363634",
"m c #81726F",
"M c #58595D",
"N c #9C9A9A",
"B c #191B1A",
"V c #2A2A90",
/* pixels */
"                                                                ",
"                                                                ",
"                                                                ",
"                                                                ",
"                                                                ",
"                                                                ",
"                                                                ",
"                                                                ",
"                                                                ",
"                                                                ",
"                                                                ",
"                                                                ",
"                                                                ",
"                                                                ",
"                          .XoO+                                 ",
"                        +@#$$%&*                                ",
"                        @=&o-;:>,                               ",
"                       .<&1 234%;2                              ",
"                       X$4 222+56+                              ",
"                       47X2222o8=;9                             ",
"                       0qwe rotyui;+                            ",
"                       +pasdo:yy#&=;+                           ",
"                        f6$g8y8#h.pi;j                          ",
"                         1pygwOph11pk;+                         ",
"                30OO-ooll;85f 3ph12dpkzlll4oooX.                ",
"                08xxk77uuc5f  3ph12 dviuuuc777$z                ",
"                d4lloXX00012  3ph1   +*000OXXXXf                ",
"                              3ph12                             ",
"                              3ph12                             ",
"                              3ph1                              ",
"                              3ph1                              ",
"                              3pb12                             ",
"                              0#kl                              ",
"                             1&n5#*                             ",
"                            3;=s0#&+                            ",
"                            Xqp+2sks                            ",
"                           ,gg, 2+&n*                           ",
"                          +pqX2 220t&+                          ",
"                          si;e    2sks                          ",
"                         0n6d      +&n0                         ",
"                        2m:0        0np3                        ",
"                        2vt,        +M&3                        ",
"                         oi4        *x;                         ",
"                         ,hm3       s=-                         ",
"                          z8f       pb1                         ",
"                          -is2     +#p3                         ",
"                          +h&+     Oil                          ",
"                           ;q0     ;%*                          ",
"                           Ox;    9&g+                          ",
"                           +6>+   .:N                           ",
"                            @B*   o$4                           ",
"                            ,;1   4g,                           ",
"                                  j1                            ",
"                                                                ",
"                                                                ",
"                                                                ",
"                                                                ",
"                                                                ",
"                                                                ",
"                                                                ",
"                                                                ",
"                                                                ",
"                                                                ",
"                                                                "
};
