/* XPM */
static char *result[] = {
/* columns rows colors chars-per-pixel */
"64 64 57 1 ",
"  c #FCFEFC",
". c #EDEFEF",
"X c #C2C2C0",
"o c #A0A0A0",
"O c #A9AAAA",
"+ c #C8C7C7",
"@ c #F6F4F5",
"# c #D8D9DE",
"$ c #58595D",
"% c #090A0A",
"& c #2E2F31",
"* c #2C2B2C",
"= c #757271",
"- c gray93",
"; c #515257",
": c #464546",
"> c #E9EAEC",
", c #B2B2B0",
"< c #2E2627",
"1 c #F9FAF9",
"2 c #121515",
"3 c #D0D0D4",
"4 c #D4D4D5",
"5 c #CBCCCC",
"6 c #0A0D0D",
"7 c #FBFBFA",
"8 c #DDDEE4",
"9 c #BABAB9",
"0 c #050405",
"q c #040304",
"w c #625E5C",
"e c #646563",
"r c #171919",
"t c #101313",
"y c #FBFDFB",
"u c #191B1A",
"i c #8F8C88",
"p c #0D1111",
"a c #1A1E1E",
"s c #333435",
"d c #070807",
"f c gray3",
"g c #4B4A4E",
"h c #939090",
"j c #060606",
"k c #F5F5F7",
"l c #939698",
"z c #E5E5EC",
"x c #3E3F40",
"c c #363634",
"v c #FCFDFC",
"b c #FBFCFB",
"n c #6D6C6D",
"m c #81726F",
"M c #9C9A9A",
"N c #FAFAF9",
"B c #2A2A90",
/* pixels */
"                                                                ",
"                                                                ",
"                                                                ",
"                                                                ",
"                                                                ",
"                                                                ",
"                                                                ",
"                                                                ",
"                                                                ",
"                                                                ",
"                                                                ",
"                                                                ",
"                                                                ",
"                                                                ",
"                                                                ",
"                                 .XoO+@                         ",
"                                #$%&*%=-                        ",
"                               .;:+.>,<=1                       ",
"                               ,23    O24                       ",
"                              5&6O7   869                       ",
"                             5&0q6O1  8%9                       ",
"                            5&weqrtO1you#                       ",
"                           +&w>iqrp%ooai1                       ",
"                          +*e>yisedq0fi.                        ",
"                y8##455XXO*e> yig-5,ifhXXX+5553-                ",
"                8*22pff00je>  yig@  kh6000jfff%l                ",
"                k+XX533888@   yig@   1z888#3333>                ",
"                              yig@                              ",
"                              yig@                              ",
"                              yig@                              ",
"                              yig@                              ",
"                              yi:@                              ",
"                              8xpX                              ",
"                             @=cexz                             ",
"                            yOt98x=1                            ",
"                            3ai1v9p9                            ",
"                           .;;. v1=cz                           ",
"                          1ia3v vv8s=1                          ",
"                          96Ob    v9p9                          ",
"                         8cnk      1=c8                         ",
"                        vm&8        8ciy                        ",
"                        vhs.        1$=y                        ",
"                         56+        z2O                         ",
"                         .gmy       9t4                         ",
"                          l*>       i:@                         ",
"                          469v     1xiy                         ",
"                          1g=1     #6X                          ",
"                           Oa8     Orz                          ",
"                           #2O    7=;1                          ",
"                           1nw1   -&M                           ",
"                            ,uz   5%+                           ",
"                            .O@   +;.                           ",
"                                  N@                            ",
"                                                                ",
"                                                                ",
"                                                                ",
"                                                                ",
"                                                                ",
"                                                                ",
"                                                                ",
"                                                                ",
"                                                                ",
"                                                                ",
"                                                                "
};
