/* XPM */
static char *result[] = {
/* columns rows colors chars-per-pixel */
"64 64 57 1 ",
"  c #FCFEFC",
". c #F6F4F5",
"X c #C8C7C7",
"o c #BABAB9",
"O c #DDDEE4",
"+ c #FBFDFB",
"@ c #D4D4D5",
"# c #58595D",
"$ c gray3",
"% c #121515",
"& c #0A0D0D",
"* c #1A1E1E",
"= c #A9AAAA",
"- c #F9FAF9",
"; c #CBCCCC",
": c #2E2F31",
"> c #040304",
", c #757271",
"< c #D8D9DE",
"1 c #8F8C88",
"2 c #B2B2B0",
"3 c #333435",
"4 c #2C2B2C",
"5 c #0D1111",
"6 c gray25",
"7 c #EDEFEF",
"8 c #101313",
"9 c #090A0A",
"0 c #5D5C5C",
"q c #4B4A4E",
"w c #646563",
"e c #E9EAEC",
"r c #939698",
"t c #363634",
"y c gray93",
"u c #C2C2C0",
"i c #6D6C6D",
"p c #464546",
"a c #D0D0D4",
"s c #050405",
"d c #060606",
"f c #191B1A",
"g c #3E3F40",
"h c #515257",
"j c #F5F5F7",
"k c #9C9A9A",
"l c #A0A0A0",
"z c #E5E5EC",
"x c #FCFDFC",
"c c #FBFCFB",
"v c #81726F",
"b c #939090",
"n c #171919",
"m c #FBFBFA",
"M c #625E5C",
"N c #FAFAF9",
"B c #2A2A90",
/* pixels */
"                                                                ",
"                                                                ",
"                                                                ",
"                                                                ",
"                                                                ",
"                                                                ",
"                                                                ",
"                                                                ",
"                                                                ",
"                                                                ",
"                                                                ",
"                                                                ",
"                                                                ",
"                                                                ",
"                                                                ",
"                                                                ",
"                                                                ",
"                                .XooO+                          ",
"                               @#$%&*=-                         ",
"                              ;:>,O<1&2                         ",
"                             ;34,5=--,67                        ",
"                            ;:>,718=-X9@                        ",
"                           X:0q,+.1&=X9@                        ",
"                          X4werte .15q:y                        ",
"                +O<<@;;uu=4we <4i@.Op>#ouuX;;;ay                ",
"                O4%%5$$ssdwe  +1>fg49h&sssd$$$9r                ",
"                jXuu;aaOOO.   +1g=kla.zOOO<aaaae                ",
"                              +1q.                              ",
"                              +1q.                              ",
"                              +1q.x                             ",
"                              +1q.x                             ",
"                              +1p.                              ",
"                              Og5u                              ",
"                             .,twgz                             ",
"                            +=8oOg,-                            ",
"                            a*1-xo5o                            ",
"                           7hh7 x-,tz                           ",
"                          -1*ax xxO3,-                          ",
"                          o&=c    xo5o                          ",
"                         Otij      -,tO                         ",
"                        xv:O        Ot1+                        ",
"                        xb37        -#,+                        ",
"                         ;&X        z%=                         ",
"                         7qv+       o8@                         ",
"                          r4e       1p.                         ",
"                          @&ox     -g1+                         ",
"                          -q,-     <&u                          ",
"                           =*O     =nz                          ",
"                           <%=    m,h-                          ",
"                           -iM-   y:k                           ",
"                            2fz   ;9X                           ",
"                            7=.   Xh7                           ",
"                                  N.                            ",
"                                                                ",
"                                                                ",
"                                                                ",
"                                                                ",
"                                                                ",
"                                                                ",
"                                                                ",
"                                                                ",
"                                                                ",
"                                                                ",
"                                                                "
};
