/* XPM */
static char *be052aa46c8f419b966f4332af610535jaNlNhHO1e67w2Jx[] = {
/* columns rows colors chars-per-pixel */
"64 64 62 1 ",
"  c None",
". c black",
"X c #010101",
"o c #020202",
"O c gray1",
"+ c #040404",
"@ c gray2",
"# c #060606",
"$ c #070707",
"% c gray3",
"& c #090909",
"* c gray4",
"= c #0B0B0B",
"- c #0C0C0C",
"; c gray5",
": c #0E0E0E",
"> c gray6",
", c #101010",
"< c #111111",
"1 c gray7",
"2 c #131313",
"3 c gray8",
"4 c #151515",
"5 c #161616",
"6 c gray9",
"7 c #181818",
"8 c #191919",
"9 c gray10",
"0 c #1B1B1B",
"q c gray11",
"w c #1D1D1D",
"e c #1E1E1E",
"r c gray12",
"t c #202020",
"y c gray13",
"u c #222222",
"i c #232323",
"p c gray14",
"a c #252525",
"s c gray15",
"d c #282828",
"f c gray16",
"g c #2A2A2A",
"h c gray17",
"j c #2C2C2C",
"k c #2F2F2F",
"l c gray19",
"z c #323232",
"x c gray20",
"c c #343434",
"v c #353535",
"b c gray21",
"n c #373737",
"m c #3C3C3C",
"M c #3F3F3F",
"N c #414141",
"B c #484848",
"V c #4E4E4E",
"C c gray31",
"Z c #535353",
"A c gray34",
"S c gray37",
/* pixels */
"                                                                ",
"                                                                ",
"                          ,,38333388,,                          ",
"                    t-,$$$ooooooooooooo$$,-t                    ",
"                 ,%$oooooooooooooooooooooooo$%,                 ",
"               ,oooooooooooooooooooooooooooooooo,               ",
"             8$oooooooooooooooooooooooooooooooooo$8             ",
"            ,oooooooooooooooooooooooooooooooooooooo,            ",
"           3oooooooooooooooooooooooooooooooooooooooo3           ",
"          CooooooooooooooooooooooooooooooooooooooooooC          ",
"          aooooooooooooooooooooooooooooooooooooooooooa          ",
"          goooooooooooooooooooooooooooooooooooooooooog          ",
"           ooooooooooooooooooooooooooooooooooooooooo$           ",
"           toooooooooooooooooooooooooooooooooooooooot           ",
"            woooooooooooooooooooooooooooooooooooooow            ",
"             g%oooooooooooooooooooooooooooooooooo%g             ",
"               w-$oooooooooooooooooooooooooooo$-w               ",
"                  8%ooooooooooooooooooooooo$$8                  ",
"                     a%%oooooooooooooooo-%t                     ",
"                      8-oooo$$oooooooooowa                      ",
"                  3%%o$o--t  ZooooN t-,$$o$$3w                  ",
"               --$o$%33       $$o$      w8$$o$$-a               ",
"            3%$o$%,           oooo          t,ooo%3             ",
"          3$oo%3              $o$$             3%oo$-t          ",
"        8$oo$3                $$o$               t-$oo%a        ",
"      l-ooo3                  oooo                 g-ooo,       ",
"     aooo%g                   $o$o                   t$o$$l     ",
"    aooo%                     o$o$                    l$oo$c    ",
"   Nooo$                      oooo                     mooo$    ",
"   %oool                      $o$$                      tooo-   ",
"  Zoooo                       $$o$                       $oo$   ",
"  lo$o$                       oooo                       $oooc  ",
"  g$o$,                       $o$o                       ,ooog  ",
"   38,                        o$o$                        838   ",
"                              ooo$                              ",
"                              $o$o                              ",
"                              $$oo                              ",
"                              oo$$                              ",
"                              o$o$                              ",
"                              $ooo                              ",
"                              $o$o                              ",
"                              o$o$                              ",
"                              $ooo                              ",
"                              $o$$                              ",
"                             Bo$ooB                             ",
"                    t,----%%$oooooo$%%-,,%-t                    ",
"               3-%$o$$%-,-%--,,,,,-,-%-,-%$$o$%-3               ",
"            ,-oo$%3-                        ,3%oo$-,            ",
"          ,$oo%,                                -%$o$,          ",
"        8$oo$8                                    8$oo$8        ",
"       ,ooo3                                        3ooo,       ",
"      -ooot                                          wooo-      ",
"     ,ooow                                            wooo3     ",
"    nooo$                                              %o$oc    ",
"    %oooc                                              cooo$    ",
"   S$oo$                                                $oo$    ",
"   c$oo%                                                $oool   ",
"   wooo3                                                3ooow   ",
"   ,ooot                                                wooo3   ",
"   ,ooow                                                wo$o3   ",
"   8ooow                                                8o$o8   ",
"    w38                                                  838    ",
"                                                                ",
"                                                                "
};
