/* XPM */
static char *result[] = {
/* columns rows colors chars-per-pixel */
"64 64 62 1 ",
"  c black",
". c #010101",
"X c #020202",
"o c gray1",
"O c #040404",
"+ c gray2",
"@ c #060606",
"# c #070707",
"$ c gray3",
"% c #090909",
"& c gray4",
"* c #0B0B0B",
"= c #0C0C0C",
"- c gray5",
"; c #0E0E0E",
": c gray6",
"> c #101010",
", c #111111",
"< c gray7",
"1 c #131313",
"2 c gray8",
"3 c #151515",
"4 c #161616",
"5 c gray9",
"6 c #181818",
"7 c #191919",
"8 c gray10",
"9 c #1B1B1B",
"0 c gray11",
"q c #1D1D1D",
"w c #1E1E1E",
"e c gray12",
"r c #202020",
"t c gray13",
"y c #222222",
"u c #232323",
"i c gray14",
"p c #252525",
"a c #272727",
"s c #282828",
"d c gray16",
"f c #2A2A2A",
"g c gray17",
"h c gray18",
"j c #2F2F2F",
"k c gray19",
"l c #323232",
"z c gray20",
"x c #343434",
"c c #353535",
"v c #373737",
"b c #3C3C3C",
"n c gray25",
"m c gray26",
"M c #484848",
"N c gray31",
"B c gray33",
"V c gray34",
"C c #5B5B5B",
"Z c gray37",
"A c #5F5F5F",
"S c None",
/* pixels */
"SSSSSSSSSSSSSSSSSSSSSSSSSSSSSSSSSSSSSSSSSSSSSSSSSSSSSSSSSSSSSSSS",
"SSSSSSSSSSSSSSSSSSSSSSSSSSSSSSSSSSSSSSSSSSSSSSSSSSSSSSSSSSSSSSSS",
"SSSSSSSSSSSSSSSSSSSSSSSSSS,,67544576<1SSSSSSSSSSSSSSSSSSSSSSSSSS",
"SSSSSSSSSSSSSSSSSSSSu=:@Oo.          .oO@:-iSSSSSSSSSSSSSSSSSSSS",
"SSSSSSSSSSSSSSSSS<$#X.                    .X#%<SSSSSSSSSSSSSSSSS",
"SSSSSSSSSSSSSSS>O.                            .O,SSSSSSSSSSSSSSS",
"SSSSSSSSSSSSS8#X                                X#8SSSSSSSSSSSSS",
"SSSSSSSSSSSS,X.                                  .X<SSSSSSSSSSSS",
"SSSSSSSSSSS2..                                    ..3SSSSSSSSSSS",
"SSSSSSSSSSNXo                                      oXNSSSSSSSSSS",
"SSSSSSSSSSpXX                                      XXpSSSSSSSSSS",
"SSSSSSSSSSfXX                                      XXfSSSSSSSSSS",
"SSSSSSSSSSCoo                                      ooCSSSSSSSSSS",
"SSSSSSSSSSSrX.                                    .XtSSSSSSSSSSS",
"SSSSSSSSSSSSqO.                                  .OwSSSSSSSSSSSS",
"SSSSSSSSSSSSSd&X                                X&fSSSSSSSSSSSSS",
"SSSSSSSSSSSSSSSe;+.                          .+;eSSSSSSSSSSSSSSS",
"SSSSSSSSSSSSSSSSSS7#+X                    X+#7SSSSSSSSSSSSSSSSSS",
"SSSSSSSSSSSSSSSSSSSSSa-%.              .>*uSSSSSSSSSSSSSSSSSSSSS",
"SSSSSSSSSSSSSSSSSSSSSS6&  .X%#.  .Oo.  XwuSSSSSSSSSSSSSSSSSSSSSS",
"SSSSSSSSSSSSSSSSSS3&%.oo-*rSSVoooomSt-:ooX#@6wSSSSSSSSSSSSSSSSSS",
"SSSSSSSSSSSSSSS>=+.X$43SSSSSSSOOOOSSSSSSr6#@XoO;iSSSSSSSSSSSSSSS",
"SSSSSSSSSSSS2#XXO*,SSSSSSSSSSSOOOOSSSSSSSSSSy:o X%3SSSSSSSSSSSSS",
"SSSSSSSSSS3@XX$2SSSSSSSSSSSSSSOOOOSSSSSSSSSSSSS2$. +;ySSSSSSSSSS",
"SSSSSSSS6#X.@4SSSSSSSSSSSSSSSSOOOOSSSSSSSSSSSSSSSt:O X%iSSSSSSSS",
"SSSSSSj=X.o4SSSSSSSSSSSSSSSSSSOOOOSSSSSSSSSSSSSSSSSd;X.o>SSSSSSS",
"SSSSSp+XX$dSSSSSSSSSSSSSSSSSSSOOOOSSSSSSSSSSSSSSSSSSStOX.$lSSSSS",
"SSSSpoXX%SSSSSSSSSSSSSSSSSSSSSOOOOSSSSSSSSSSSSSSSSSSSSl+XXOxSSSS",
"SSSnXXXOSSSSSSSSSSSSSSSSSSSSSSOOOOSSSSSSSSSSSSSSSSSSSSSboXX+SSSS",
"SSS$XoXkSSSSSSSSSSSSSSSSSSSSSSOOOOSSSSSSSSSSSSSSSSSSSSSSuXXX;SSS",
"SSBooXoSSSSSSSSSSSSSSSSSSSSSSSOOOOSSSSSSSSSSSSSSSSSSSSSSSooooZSS",
"SShXo.$SSSSSSSSSSSSSSSSSSSSSSSOOOOSSSSSSSSSSSSSSSSSSSSSSS@.oozSS",
"SSgoo.,SSSSSSSSSSSSSSSSSSSSSSSOOOOSSSSSSSSSSSSSSSSSSSSSSS; oXsSS",
"SSS36>SSSSSSSSSSSSSSSSSSSSSSSSOOOOSSSSSSSSSSSSSSSSSSSSSSSS628SSS",
"SSSSSSSSSSSSSSSSSSSSSSSSSSSSSSOOOOSSSSSSSSSSSSSSSSSSSSSSSSSSSSSS",
"SSSSSSSSSSSSSSSSSSSSSSSSSSSSSSOOOOSSSSSSSSSSSSSSSSSSSSSSSSSSSSSS",
"SSSSSSSSSSSSSSSSSSSSSSSSSSSSSSOOOOSSSSSSSSSSSSSSSSSSSSSSSSSSSSSS",
"SSSSSSSSSSSSSSSSSSSSSSSSSSSSSSOOOOSSSSSSSSSSSSSSSSSSSSSSSSSSSSSS",
"SSSSSSSSSSSSSSSSSSSSSSSSSSSSSSOOOOSSSSSSSSSSSSSSSSSSSSSSSSSSSSSS",
"SSSSSSSSSSSSSSSSSSSSSSSSSSSSSSOOOOSSSSSSSSSSSSSSSSSSSSSSSSSSSSSS",
"SSSSSSSSSSSSSSSSSSSSSSSSSSSSSSOOOOSSSSSSSSSSSSSSSSSSSSSSSSSSSSSS",
"SSSSSSSSSSSSSSSSSSSSSSSSSSSSSSOOOOSSSSSSSSSSSSSSSSSSSSSSSSSSSSSS",
"SSSSSSSSSSSSSSSSSSSSSSSSSSSSSSOOOOSSSSSSSSSSSSSSSSSSSSSSSSSSSSSS",
"SSSSSSSSSSSSSSSSSSSSSSSSSSSSSSOOOOSSSSSSSSSSSSSSSSSSSSSSSSSSSSSS",
"SSSSSSSSSSSSSSSSSSSSSSSSSSSSSMooooMSSSSSSSSSSSSSSSSSSSSSSSSSSSSS",
"SSSSSSSSSSSSSSSSSSSSt>&::=%#+O....O+#%=::&:tSSSSSSSSSSSSSSSSSSSS",
"SSSSSSSSSSSSSSS2:$@.+O#;:*&=;>:11:>;=&*:;#O+.@%:2SSSSSSSSSSSSSSS",
"SSSSSSSSSSSS<=+.X$1>SSSSSSSSSSSSSSSSSSSSSSSS,1$X.+=1SSSSSSSSSSSS",
"SSSSSSSSSS<@XX$,SSSSSSSSSSSSSSSSSSSSSSSSSSSSSSSS,$XX@1SSSSSSSSSS",
"SSSSSSSS9+..$9SSSSSSSSSSSSSSSSSSSSSSSSSSSSSSSSSSSS9$..+0SSSSSSSS",
"SSSSSSS>XXX2SSSSSSSSSSSSSSSSSSSSSSSSSSSSSSSSSSSSSSSS2XXX>SSSSSSS",
"SSSSSS-XXXrSSSSSSSSSSSSSSSSSSSSSSSSSSSSSSSSSSSSSSSSSSrXXX=SSSSSS",
"SSSSS<XoX0SSSSSSSSSSSSSSSSSSSSSSSSSSSSSSSSSSSSSSSSSSSS9XoX<SSSSS",
"SSSSvXoX#SSSSSSSSSSSSSSSSSSSSSSSSSSSSSSSSSSSSSSSSSSSSSS@XoXvSSSS",
"SSSS#XoocSSSSSSSSSSSSSSSSSSSSSSSSSSSSSSSSSSSSSSSSSSSSSScooX#SSSS",
"SSSZoOooSSSSSSSSSSSSSSSSSSSSSSSSSSSSSSSSSSSSSSSSSSSSSSSSooOoASSS",
"SSSzoo.#SSSSSSSSSSSSSSSSSSSSSSSSSSSSSSSSSSSSSSSSSSSSSSSS#.oozSSS",
"SSS9Xo.4SSSSSSSSSSSSSSSSSSSSSSSSSSSSSSSSSSSSSSSSSSSSSSSS4.oX0SSS",
"SSS<.oXeSSSSSSSSSSSSSSSSSSSSSSSSSSSSSSSSSSSSSSSSSSSSSSSSeXo.1SSS",
"SSS2.oXwSSSSSSSSSSSSSSSSSSSSSSSSSSSSSSSSSSSSSSSSSSSSSSSSqXo.2SSS",
"SSS8.o.qSSSSSSSSSSSSSSSSSSSSSSSSSSSSSSSSSSSSSSSSSSSSSSSS0.o.8SSS",
"SSSS748SSSSSSSSSSSSSSSSSSSSSSSSSSSSSSSSSSSSSSSSSSSSSSSSSS747SSSS",
"SSSSSSSSSSSSSSSSSSSSSSSSSSSSSSSSSSSSSSSSSSSSSSSSSSSSSSSSSSSSSSSS",
"SSSSSSSSSSSSSSSSSSSSSSSSSSSSSSSSSSSSSSSSSSSSSSSSSSSSSSSSSSSSSSSS"
};
