/* XPM */
static char *result[] = {
/* columns rows colors chars-per-pixel */
"64 64 93 2 ",
"   c #261D2D",
".  c #281F2D",
"X  c #2A212F",
"o  c #292130",
"O  c #3E3745",
"+  c #433D4C",
"@  c #46404F",
"#  c #4D434A",
"$  c #51474C",
"%  c #554A4F",
"&  c #474150",
"*  c #494352",
"=  c #4F4955",
"-  c #4F4A59",
";  c #554E52",
":  c #514C5C",
">  c #595257",
",  c #5A5459",
"<  c #5F595B",
"1  c #625C5C",
"2  c #565262",
"3  c #595465",
"4  c #5C5869",
"5  c #6D6261",
"6  c #706968",
"7  c #686678",
"8  c #6C6A7C",
"9  c #877A73",
"0  c #887B74",
"q  c #84797C",
"w  c #858078",
"e  c #777688",
"r  c #787789",
"t  c #7B7A8C",
"y  c #7F7F91",
"u  c #827F89",
"i  c #7F8093",
"p  c #958B86",
"a  c #9F9184",
"s  c #818194",
"d  c #8B8B95",
"f  c #87889A",
"g  c #8B8D9F",
"h  c #A09385",
"j  c #A2968B",
"k  c #AA9C8C",
"l  c #A5A393",
"z  c #BDAE9A",
"x  c #8D8EA1",
"c  c #8F91A6",
"v  c #9294A7",
"b  c #9C9BA5",
"n  c #9496A9",
"m  c #9698AB",
"M  c #989AAB",
"N  c #A39FA5",
"B  c #9FA1AC",
"V  c #A5A1A4",
"C  c #ADA5A2",
"Z  c #AEADA1",
"A  c #A4A4AC",
"S  c #A8A6AB",
"D  c #ABA9AB",
"F  c #B3AAA3",
"G  c #B9AEA1",
"H  c #B2B1A5",
"J  c #BDB2A3",
"K  c #A5A7B1",
"L  c #B4B6B5",
"P  c #B6B8B6",
"I  c #B8BAB6",
"U  c #B8BAB8",
"Y  c #C4B49E",
"T  c #C6B7A1",
"R  c #C7B9A2",
"E  c #C9BAA3",
"W  c #C3C2AA",
"Q  c #CCC1A9",
"!  c #CBCAB4",
"~  c #C2C3BA",
"^  c #CFCDB8",
"/  c #D5CCB0",
"(  c #DEDBBE",
")  c #E0DDBF",
"_  c #D6D7C1",
"`  c #D7D8C2",
"'  c #D9DBC3",
"]  c #E2DFC0",
"[  c #E4E5C7",
"{  c #E6E7C8",
"}  c #E7E8C8",
"|  c #E8E9C8",
" . c None",
/* pixels */
" . . . . . . . . . . . . . . . . . . . . . . . . . . . .o o o o o o o o  . . . . . . . . . . . . . . . . . . . . . . . . . . . .",
" . . . . . . . . . . . . . . . . . . . . . . . . . . . .$ $ $ $ $ $ $ $  . . . . . . . . . . . . . . . . . . . . . . . . . . . .",
" . . . . . . . . . . . . . . . . . . . . . . . .o     # 0 h a a a h h 0 #     o  . . . . . . . . . . . . . . . . . . . . . . . .",
" . . . . . . . . . . . . . . . . . . . . . . . .# $ # 5 l E E T R E E k 5 $ $ #  . . . . . . . . . . . . . . . . . . . . . . . .",
" . . . . . . . . . . . . . . . . . . . .o     # 0 h a k z T T T T E T z k a a 0 #     X  . . . . . . . . . . . . . . . . . . . .",
" . . . . . . . . . . . . . . . . . . . .# $ # 5 k E E T Y Y Y Y Y Y Y T T E E k 5 # @ +  . . . . . . . . . . . . . . . . . . . .",
" . . . . . . . . . . . . . . . . . .  # 9 h a k z E R T Y Y Y T Y Y T Y Y E E z k p s 7 +    . . . . . . . . . . . . . . . . . .",
" . . . . . . . . . . . . . . . . . .# 5 k E E T G J E Q Q Q Q E Q E J G G G G J Y J V i 2 +  . . . . . . . . . . . . . . . . . .",
" . . . . . . . . . . . . . . . . .$ 0 k z E E G N D ^ ( ( ( ( ' ' ^ D N b b b C J J B g s 8 @ X  . . . . . . . . . . . . . . . .",
" . . . . . . . . . . . . . . . .. % j E R Y z F S L _ { { { | [ ' ~ A c v c c b C F b v n i @ X  . . . . . . . . . . . . . . . .",
" . . . . . . . . . . . . . . . .o ; h E E G N S ~ ` [ { { | | ' P A n v v v v n b b n n n t @ X  . . . . . . . . . . . . . . . .",
" . . . . . . . . . . . . . . . .  $ a R G F S P _ | | [ [ [ ` ~ B c c v v v v v c v v n n r + X  . . . . . . . . . . . . . . . .",
" . . . . . . . . . . . . . . . .  # h J V S ~ _ [ [ | { | ' P B n v v v v v v v v v v n n t + X  . . . . . . . . . . . . . . . .",
" . . . . . . . . . . . . . . . .; 6 j F S L ' | [ } [ [ ' ~ A x c v v v v v v v v v v v v i 3 +  . . . . . . . . . . . . . . . .",
" . . . . . . . . . . . . . . .< l H V S ~ ' [ { [ [ | ' L M m c v v v v v v v v v v v v v c i 8 =  . . . . . . . . . . . . . . .",
" . . . . . . . . . . . . . .. 1 W ' P L _ | | [ } [ ` ~ N c v v v v v v v v v v v v v v v n n s -  . . . . . . . . . . . . . . .",
" . . . . . . . . . . . . . .  1 R } ' _ [ { { { { ` L M m v v v v v v v v v v v v v v v v m n s -  . . . . . . . . . . . . . . .",
" . . . . . . . . . . . . . .  , Z ' [ } [ [ { [ ] ^ K c v v v v v v v v v v v v v v v v v n n s -  . . . . . . . . . . . . . . .",
" . . . . . . . . . . . . . .X = f P ` } { { } ] / J N c v v v v n v v v v v v v v v v v v v v s :  . . . . . . . . . . . . . . .",
" . . . . . . . . . . . . . .X = d U ` } { [ ` ! J C b v v v v v v v v v v v v v v v v v v m v f :  . . . . . . . . . . . . . . .",
" . . . . . . . . . . . . . .  < H ' [ | } ` P A M b m v v v v v v v v v v v v v v v v v v v n f  . . . . . . . . . . . . . . . .",
" . . . . . . . . . . . . . . .1 l ! ] [ ` ~ B c c n v v v v v v v v v v v v v v v v v v v c s 8  . . . . . . . . . . . . . . . .",
" . . . . . . . . . . . . . . . ., w ! ' I B n v n m n v v v v v n v v v v v v v v v v n n s 3 O  . . . . . . . . . . . . . . . .",
" . . . . . . . . . . . . . . . .  > H ~ B c c x u t x n n n v v v v v v v v v v v v v m n y * .  . . . . . . . . . . . . . . . .",
" . . . . . . . . . . . . . . . .  = d K M v n y 2 2 y m m n n c v v v v v v v v v v v m m t =    . . . . . . . . . . . . . . . .",
" . . . . . . . . . . . . . . . . .@ 8 i g m m t 2 - 7 r e y g n v v v v v v v v v v v c f 8 *  . . . . . . . . . . . . . . . . .",
" . . . . . . . . . . . . . . . . . .@ 3 y v m g y 8 : + + 2 y n n v v v v v v v v v m s 4 +  . . . . . . . . . . . . . . . . . .",
" . . . . . . . . . . . . . . . . . .o & t m m m m u 2 + + 2 y n n v v v v v v v m n n t @    . . . . . . . . . . . . . . . . . .",
" . . . . . . . . . . . . . . . . . .. * t m m m m x y e e y x n v v v v v v v n m m n t & X  . . . . . . . . . . . . . . . . . .",
" . . . . . . . . . . . . . . . . . . .* e t t y x m m m m n n x v v v n n n n g s t t 8 @  . . . . . . . . . . . . . . . . . . .",
" . . . . . . . . . . . . . . . . . . . .@ & + 3 y m m m n n n n v v n n n n M s 3 @ + +  . . . . . . . . . . . . . . . . . . . .",
" . . . . . . . . . . . . . . . . . . . . .. . + 8 y t y x n n n n n n g s t t 8 + . X  . . . . . . . . . . . . . . . . . . . . .",
" . . . . . . . . . . . . . . . . . . . . . . . .@ * + 3 s M m m n n M s 3 + * @  . . . . . . . . . . . . . . . . . . . . . . . .",
" . . . . . . . . . . . . . . . . . . . . . . . . .. . + 8 t t t t t t 8 + . .  . . . . . . . . . . . . . . . . . . . . . . . . .",
" . . . . . . . . . . . . . . . . . . . . . . . . . . . .+ * * + @ @ * @  . . . . . . . . . . . . . . . . . . . . . . . . . . . .",
" . . . . . . . . . . . . . . . . . . . . . . . . . . . . .o X X X X X  . . . . . . . . . . . . . . . . . . . . . . . . . . . . .",
" . . . . . . . . . . . . . . . . . . . . . . . . . . . . . . . . . . . . . . . . . . . . . . . . . . . . . . . . . . . . . . . .",
" . . . . . . . . . . . . . . . . . . . . . . . . . . . . . . . . . . . . . . . . . . . . . . . . . . . . . . . . . . . . . . . .",
" . . . . . . . . . . . . . . . . . . . . . . . . . . . . . . . . . . . . . . . . . . . . . . . . . . . . . . . . . . . . . . . .",
" . . . . . . . . . . . . . . . . . . . . . . . . . . . . . . . . . . . . . . . . . . . . . . . . . . . . . . . . . . . . . . . .",
" . . . . . . . . . . . . . . . . . . . . . . . . . . . . . . . . . . . . . . . . . . . . . . . . . . . . . . . . . . . . . . . .",
" . . . . . . . . . . . . . . . . . . . . . . . . . . . . . . . . . . . . . . . . . . . . . . . . . . . . . . . . . . . . . . . .",
" . . . . . . . . . . . . . . . . . . . . . . . . . . . . . . . . . . . . . . . . . . . . . . . . . . . . . . . . . . . . . . . .",
" . . . . . . . . . . . . . . . . . . . . . . . . . . . . . . . . . . . . . . . . . . . . . . . . . . . . . . . . . . . . . . . .",
" . . . . . . . . . . . . . . . . . . . . . . . . . . . . . . . . . . . . . . . . . . . . . . . . . . . . . . . . . . . . . . . .",
" . . . . . . . . . . . . . . . . . . . . . . . . . . . . . . . . . . . . . . . . . . . . . . . . . . . . . . . . . . . . . . . .",
" . . . . . . . . . . . . . . . . . . . . . . . . . . . . . . . . . . . . . . . . . . . . . . . . . . . . . . . . . . . . . . . .",
" . . . . . . . . . . . . . . . . . . . . . . . . . . . . . . . . . . . . . . . . . . . . . . . . . . . . . . . . . . . . . . . .",
" . . . . . . . . . . . . . . . . . . . . . . . . . . . . . . . . . . . . . . . . . . . . . . . . . . . . . . . . . . . . . . . .",
" . . . . . . . . . . . . . . . . . . . . . . . . . . . . . . . . . . . . . . . . . . . . . . . . . . . . . . . . . . . . . . . .",
" . . . . . . . . . . . . . . . . . . . . . . . . . . . . . . . . . . . . . . . . . . . . . . . . . . . . . . . . . . . . . . . .",
" . . . . . . . . . . . . . . . . . . . . . . . . . . . . . . . . . . . . . . . . . . . . . . . . . . . . . . . . . . . . . . . .",
" . . . . . . . . . . . . . . . . . . . . . . . . . . . . . . . . . . . . . . . . . . . . . . . . . . . . . . . . . . . . . . . .",
" . . . . . . . . . . . . . . . . . . . . . . . . . . . .q q q q q q q q  . . . . . . . . . . . . . . . . . . . . . . . . . . . .",
" . . . . . . . . . . . . . . . . . . . . . . . . . . . .q q q q q q q q  . . . . . . . . . . . . . . . . . . . . . . . . . . . .",
" . . . . . . . . . . . . . . . . . . . . . . . .q q q q q q q q q q q q q q q q  . . . . . . . . . . . . . . . . . . . . . . . .",
" . . . . . . . . . . . . . . . . . . . . . . .q q q q q q q q q q q q q q q q q q  . . . . . . . . . . . . . . . . . . . . . . .",
" . . . . . . . . . . . . . . . . . . . . . . .q q q q q q q q q q q q q q q q q q  . . . . . . . . . . . . . . . . . . . . . . .",
" . . . . . . . . . . . . . . . . . . . . . . . .q q q q q q q q q q q q q q q q  . . . . . . . . . . . . . . . . . . . . . . . .",
" . . . . . . . . . . . . . . . . . . . . . . . . . . . .q q q q q q q q  . . . . . . . . . . . . . . . . . . . . . . . . . . . .",
" . . . . . . . . . . . . . . . . . . . . . . . . . . . .q q q q q q q q  . . . . . . . . . . . . . . . . . . . . . . . . . . . .",
" . . . . . . . . . . . . . . . . . . . . . . . . . . . . . . . . . . . . . . . . . . . . . . . . . . . . . . . . . . . . . . . .",
" . . . . . . . . . . . . . . . . . . . . . . . . . . . . . . . . . . . . . . . . . . . . . . . . . . . . . . . . . . . . . . . .",
" . . . . . . . . . . . . . . . . . . . . . . . . . . . . . . . . . . . . . . . . . . . . . . . . . . . . . . . . . . . . . . . ."
};
