/* XPM */
static char *result[] = {
/* columns rows colors chars-per-pixel */
"64 64 92 1 ",
"  c #434841",
". c #40443E",
"X c #444842",
"o c #424740",
"O c #41453F",
"+ c #40453F",
"@ c #3D403B",
"# c #373A36",
"$ c #3E423C",
"% c #3E423D",
"& c #434741",
"* c #444943",
"= c #454A43",
"- c #444942",
"; c #424640",
": c #3C403A",
"> c #3B3F39",
", c #3F433D",
"< c #3B3F3A",
"1 c #3C403B",
"2 c #3C3F3A",
"3 c #393C38",
"4 c #3A3D38",
"5 c #393C37",
"6 c #3D413C",
"7 c #3F433E",
"8 c #414640",
"9 c #424741",
"0 c #3A3E39",
"q c #3D413B",
"w c #3B3E39",
"e c #3E413C",
"r c #40443F",
"t c #3F443E",
"y c #41463F",
"u c #373A35",
"i c #40453E",
"p c #454943",
"a c #383B37",
"s c #3A3D39",
"d c #3F423D",
"f c #383C37",
"g c #434842",
"h c #383B36",
"j c #3E433D",
"k c #393D38",
"l c #3A3E38",
"z c #3D423C",
"x c #353834",
"c c #363935",
"v c #373B36",
"b c #393D37",
"n c #3C413B",
"m c #343733",
"M c #363934",
"N c #363A34",
"B c #363A35",
"V c #353934",
"C c #383C36",
"Z c #333732",
"A c #2F322E",
"S c #323530",
"D c #373B35",
"F c #464A44",
"G c #31342F",
"H c #343833",
"J c #353833",
"K c #343732",
"L c #323531",
"P c #2D302C",
"I c #333631",
"U c #323631",
"Y c #313430",
"T c #30342F",
"R c #313530",
"E c #3F443D",
"W c #30332F",
"Q c #30332E",
"! c #2E312D",
"~ c #464B44",
"^ c #333632",
"/ c #323430",
"( c #414540",
") c #333531",
"_ c #343632",
"` c #30322F",
"' c #353733",
"] c #323431",
"[ c #313330",
"{ c #363834",
"} c #454A44",
"| c white",
/* pixels */
" ..XXoO+@#.X$%+OO&+.*=-;:>,.O.%<12344<54$,;o&&O%,Oo&;15<6OO@$OO&",
"O7O;8&9O,5<X,$..7;8$6O&.0@,6qw0w1@<1e,q6,+o;;&9O>q,.Oq2q.9,,..OO",
"78oooo99O$4O%1O,.&r,%$,.,;..@6.,.Ooo,et8;y.$@+.1u7.7.$.;%16%.;;O",
";&9;;;;i,O,62w;%%&X8.ee,q.q7,Op X ;6w@1<w435a<@14%.r&11>u0<@..;.",
",,;&9;O8O.O1sw9d6,-=p&;;q6@7rOo98$<4<6102.&8$6q$.;9X=,af,0>2$6o,",
"102,++7e%rO6sq&.e$8;,,%,1:%+.....,1<<:ww7g9,q6t,$$d&-%1@r,.72%or",
"O,11<<<16.;$4,%q$7;t42eqe2%%$OO.<ahuuf327%6:6.6qq@%.;O.<e.,820y;",
" ;,@2q,..7$wq,20w.9r4$8,,:<1jo.,0s2qqq$t.O;6.$@16er%6.6,.t1.63@8",
"$%OOqq..+t%7+,61k6O%@qq6.....+7$,.<:q:$O+%,O;662%,6q+O@tO,w@ds2<",
"5<+.6%,,OO..71:.$qO.lw6$e6q6q$$@..2443##4<>$%.%4w,.8.14<Or0>.@1q",
"wk04as111q@2<wfhkeo.<r%,@@2$dq<4440<6$6<h5ww<;,4>1q1<$70$.e4$.:1",
"w:>4004f##401r.7::O$>.;&;,11<<w<,OOr@<6O,001,,qw1;7e$.oO$1<5wd7<",
"wk<<k#afkw:@q6,7,%.,<O .,O9O$e.O.%q<40$.r$,w%%@1:9-98;;&&zhaf<d.",
"76@$>356,$ha4>$7.Oo-,,=9%7y;;,%@<11ww2,+;7O@f%,%e. 7,7%,,%:aa3w$",
",76<sw1,%4x5q,,,.+Oy,>8po.,$r<0ww>kf4w@.O,2hc0t7eq%6@<a466qfua3k",
"0,1fa<q$lv5bh0::nq6qq0<,.+t2:340w502w3kkk2<5#f$1wwe,,q,r6<0<qq>5",
"2@02q%4vmMkhv><<luNB:qkhw.+@2k<12>q0f5kk27$@kM21w1OO,Ore3<.y+,,$",
"8Or760fVN>:<>kCVZASMk:qk%g8q1<1w<035h#2%6@d$qa1:ww,%35h$@;-;O,q7",
"&o;.q::>1>>:bvDuVul>kVk:qF+$$<f#f040xxc56$.%6$:0ww20vaw.O* %,+,.",
"O &$ffflDGSVHJJHMMKVfKAv>X7<<545w,$<v310hw4k4626111<qt.j;O,q,r8&",
"<.+aJZVlLPIHHBk:q1>kvKPZ:yO4kk227:ks55O$>c3@0$O%041,8;rqO$1,,1<2",
"68.>uUMMPYJMkq,+y8yO$hTU4to23w6@0xxux1&r.fwq<:10s@7.O8%4e$w7q20q",
"OO7kmHRIHJf<$E9&;888;.HJJ$O$1<72ux#u5;9+%,7.$7.%,O.; p.k.$0d7$.*",
":<1MVHKBnf:$i9;&8  ;.$fJY2t$1w7q<qq@d$,641q$:87@+;;;;o,5,w<7Oro;",
",;$KVSJ0t>q+oo9X- 9oi$:SZ77;76,.,e1ww<,<5410$o%6O;;;OO.ce7,$.;..",
",74AIAMzy1j9   X- ;-9.bWJ..%%.OOO,w#31q5q,<6;;.O;o&& gi#0.;7.& o",
"2w0SQmBt8,O -- &o89-;$JGC;o:<:6105a50w4,;qw%&&& Xggg&;-<a9X;O=9q",
",-.M!Vf$;o o;;;oo&--9+HYf60#f35af020ahqo.q<.&  -&,,,,OF+w~g9X-.q",
"O.<uTWM0;o;;;8&& ==- qUZ$O.,,,%7.6kc#06%,,:y97,O:0167+ g4=X99;r$",
"12q1JZIH.oo  y;o =pX.DHh.87q6,,$1w<:6<0%.6$;%..102440$.O4; 98,<<",
"@O&7>l556+o9o;o& - .>MBq,,%%,.$$,t,1>f<.+$,.,1w00203wwqO:%&&O,$d",
"6Oo%,>qj,t.iii..O8.,Bxki;o9;8O,q>$,$:<$&;..$6q<441$2:1%g<@ X &9,",
":%,2$e$+.O;;O.E..+8.u:,o;q17,$.102O;$1q19;O%e<f0:6,.14<O<$=&&&81",
"O8,,O$;,OO;&&&9ooOt.,.,ew551@@e4c1$+$w41$O,$60e$$7,.4<k.>1+7,$$%",
"..;9;,O$$$Oooo;8%6O+,2:0w22q$6<$h0ww$:qr..O.ew%,.Oe%#q;;<4:,.O8O",
".,O&O6,$$7&-O,,%h1,.,%.OO;;O,$:2@^aq8q1<1q,O$<2%,6$1u4pO2k:.9r..",
".wq +$;$O.8&r,$qfw26%;&&;;8r%21$eM^0OO2a440qe6@0k1,2:5twfww1OrOO",
";e0O7$.$O,,,8;O$hv0qO9O.r&&&8@2.qu/m6-+e212ww>ww@%2rg%.u#<34(&9O",
"rOwO,21.,r,678$0)M@=-..q%&.1<<2,6#m_1tO$0k<<11@$14<89+ ##wk4r;Oq",
"$&406.d ,.621qfx`c7g,6$.O%2>e$2%$xcMfwq0ahf>@1<4sqq$@,OMx544+.%1",
"#kmxeO,,w2$q11hL`v.,<h<;.Oeq@%$e1xm#mv5505w16%2w,&;O..rMmu32,1@2",
"c##xeO225>.6OO2^W5.ehhqO.7<>$.760umM^xfqOtOO;.23<.7e$.&vL'u3$<03",
"sa#x@;qe$40qO$qx^<.<03240k#a%+.6044#mm5&82:O;$,@4www.  5)]c#qkk2",
"6:03:,%7Ol5@,1:Mx2,4<3k41<5<%O.1k.$kcal&%aq..@,.@6.,9 O0M[cx#h5.",
"9,<5<$$01417%6VBa%e4$<k@616e78$20$.1h#5.:5t%%@,O8+,O,8;1aY#xMxc,",
"+$vu4t%060.%,,4%:,<0&74w<160.&y+7;-,k#57:,$f2+oO;=,<yO.q5mucfhMk",
"h1k3:7,151%2:$o7kek2X%<01e.%6r+O;O.%@4$&;Oww$+.7,..2$X+%fkxhsw{L",
"x0q40<11<&%1k1;<2e5@p&,<w2%88OOO,q%O%$ty;1@7,7;8$%Oo%$+Olwhu<<f/",
"_u@<,.$>$O703<$k@<5q*&8$66q,+O;8+t..7.61s:7.8O7$,+9&9,q..04x0<4m",
"5x%,.O<k66.>1kkf,t67-;&,$%$.X-O<qq67..wq<$.%@@q6q66@q%.,::<ch<3m",
"%a$$$,1111.$65k2,.,O;8&X9OO&X7h3$%$.Ow5w2,<0%+%.1<2>2q1q6l0hc0<x",
"1%tOO+64k<62qhs,6@.&XpoXg&8%<42,7,,.4a34e2f1..7.+e>w@<6.X.545<q#",
".&ot,O$222k5@05,<r==pXO 9q44w:qOo,:0661%,03$7,e,&;%$%3k1,$<<10q2",
"...$%7%:w1t>wda0w8;88d,;7w6,0>$..;t6d6qO%427,9& o;+$$kkk#5:6@<<$",
"$6,.O8;;.@.:u@:4:;&  .OO$6%f0,66. 6.$>qO,4@,e8-;; ;.%21scc1:1$$$",
"6%t,%+ &&;,6xa6:0,XXg98O.,<q&X;99;2@qw,$6s<r.,9;-=;.,6.<#f<h<$,O",
".,602O+.,.7,0$$@>2.y;&&OO.j;}&OO.%354wO.<<w.O%O&-O7&%$.5cf<u>$q,",
"q<21;,66$6$,$O;O.O.,%,.$;O$;.:22<@q035,;ew1,..r&-gXX1%7#0qqlw2<%",
"ww28;7e2$661O.O X &;O%$.&>eo&71:,XX:$7$<,$w1..&*p=*.1,$<6>a45f66",
".qq;o8$%t,6@O:O&;9&&&&.;8q9;.qe7OOO41qe@w,6qOO;X- .1O9%:k1l<0<%<",
" ,<q,..O$$7,w1g;&;&.$.&;.j;;,7.$201046;,:06,7,$,%61Opg$26,6$:62%",
";.12@,7,q6qw:. &-gO1,@o.t,7%1044<6%$:t.,qqq,,6q6q$.+,64#<we6$@1O",
"$r6e6qe%1w1q.>;-} +Og%.,;$,,$$t8;,6e:><62%%$,q6,,.%@<<534..1w0.%",
".O9;8+,<4:67dk;p=&& -O.;.q.p&; ;,1@163h31,t.O,@<<qq,O.q2q7e3k6+,"
};
