/* XPM */
static char *result[] = {
/* columns rows colors chars-per-pixel */
"64 64 169 2 ",
"   c #333138",
".  c #333139",
"X  c #343139",
"o  c #343239",
"O  c #353339",
"+  c #35333A",
"@  c #36343B",
"#  c #37353B",
"$  c #37353C",
"%  c #37363C",
"&  c #38363C",
"*  c #38373D",
"=  c #39373D",
"-  c #39383D",
";  c #3A383D",
":  c #3A383E",
">  c #3B393E",
",  c #3B393F",
"<  c #3B3A3E",
"1  c #3B3A3F",
"2  c #3C3A3F",
"3  c #3C3B3F",
"4  c #3C3A40",
"5  c #3D3B40",
"6  c #3C3B41",
"7  c #3D3B41",
"8  c #3D3C40",
"9  c #3E3C40",
"0  c #3E3D40",
"q  c #3E3C41",
"w  c #3E3D41",
"e  c #3F3E41",
"r  c #3E3D42",
"t  c #3F3E42",
"y  c #403F42",
"u  c #403E43",
"i  c #403F43",
"p  c #414043",
"a  c #424143",
"s  c #424144",
"d  c #424244",
"f  c #434244",
"g  c #434245",
"h  c #434345",
"j  c #444345",
"k  c #444346",
"l  c #444347",
"z  c #444445",
"x  c #444446",
"c  c #454446",
"v  c #454447",
"b  c #454547",
"n  c #464647",
"m  c gray28",
"M  c #454448",
"N  c #464549",
"B  c #474648",
"V  c #474748",
"C  c #474649",
"Z  c #474749",
"A  c #47464A",
"S  c #49474D",
"D  c #484848",
"F  c #494849",
"G  c #494949",
"H  c #48484A",
"J  c #49484A",
"K  c #49494A",
"L  c gray29",
"P  c #4A4A4B",
"I  c #4B4A4B",
"U  c #4B4B4B",
"Y  c #4C4C4C",
"T  c #4D4C4D",
"R  c gray30",
"E  c #4E4D4E",
"W  c #4E4E4E",
"Q  c #4E4E4F",
"!  c gray31",
"~  c #4E4D50",
"^  c #4F4E50",
"/  c #504F51",
"(  c #505050",
")  c #515151",
"_  c #515052",
"`  c #515153",
"'  c gray32",
"]  c #525253",
"[  c #535353",
"{  c #525254",
"}  c #535354",
"|  c gray33",
" . c #555555",
".. c #555556",
"X. c #565656",
"o. c gray34",
"O. c #585858",
"+. c #585859",
"@. c gray35",
"#. c #59595A",
"$. c #5A595A",
"%. c #5A5A5A",
"&. c #5A5A5B",
"*. c #5B5A5B",
"=. c #5B5B5B",
"-. c #5B5B5C",
";. c #5C5B5C",
":. c gray36",
">. c #5D5D5D",
",. c #5E5D5E",
"<. c gray37",
"1. c #5E5E5F",
"2. c #5F5F5F",
"3. c #5F5F60",
"4. c #605F60",
"5. c #606060",
"6. c gray38",
"7. c #616162",
"8. c #626163",
"9. c #626262",
"0. c gray39",
"q. c #646364",
"w. c #646464",
"e. c #656565",
"r. c #656566",
"t. c gray40",
"y. c #676767",
"u. c #686868",
"i. c DimGray",
"p. c #69696A",
"a. c #6A6A6A",
"s. c #6A6A6B",
"d. c gray42",
"f. c #6C6C6C",
"g. c #6D6D6D",
"h. c gray43",
"j. c #6F6F6F",
"k. c #70706F",
"l. c #6F6F70",
"z. c gray44",
"x. c #707071",
"c. c #717071",
"v. c #717171",
"b. c #727271",
"n. c #727272",
"m. c gray45",
"M. c #737374",
"N. c #747474",
"B. c #747475",
"V. c gray46",
"C. c #767675",
"Z. c #767676",
"A. c #767677",
"S. c #777777",
"D. c gray47",
"F. c #797979",
"G. c gray48",
"H. c #7B7B7B",
"J. c #7C7C7C",
"K. c gray49",
"L. c #7E7E7E",
"P. c gray50",
"I. c #808080",
"U. c #818181",
"Y. c gray51",
"T. c #838383",
"R. c #848484",
"E. c #888888",
"W. c None",
/* pixels */
"W.W.W.W.W.W.W.W.W.W.W.W.W.W.W.W.W.W.W.W.W.W.W.W.W.W.W.W.W.W.W.W.W.W.W.W.W.W.W.W.W.W.W.W.W.W.W.W.W.W.W.W.W.W.W.W.W.W.W.W.W.W.W.W.",
"W.W.W.W.W.W.W.W.W.W.W.W.W.W.W.W.W.W.W.W.W.W.W.W.W.W.W.W.W.W.W.W.W.W.W.W.W.W.W.W.W.W.W.W.W.W.W.W.W.W.W.W.W.W.W.W.W.W.W.W.W.W.W.W.",
"W.Y.P.P.P.P.P.P.P.P.I.I.P.K.J.H.D.L.R.I.P.P.P.P.P.P.P.P.P.P.P.P.P.P.P.P.P.P.P.P.P.P.P.P.P.P.P.P.P.P.P.P.P.P.P.P.P.P.P.P.P.P.P.W.",
"E.I.P.P.P.P.P.P.L.F.f.j.n.z.v.F.I.U.I.P.P.P.P.P.P.P.P.P.P.P.P.P.P.P.P.P.P.P.P.P.P.P.P.P.P.P.P.P.P.P.P.P.P.P.P.P.P.P.P.P.P.P.P.P.",
"S.K.L.K.K.K.K.L.j.O.:.d.j.S.L.L.L.P.L.K.K.K.K.K.K.K.L.P.P.P.L.K.K.L.P.P.P.P.L.K.K.K.K.K.K.K.K.K.L.L.K.K.K.K.K.K.K.K.K.K.K.L.J.N.",
"d.v.m.m.m.m.m.z.>.o.i.n.Z.V.m.n.m.D.V.n.m.m.m.m.m.n.m.S.D.D.V.n.n.m.D.K.K.F.V.n.m.m.m.m.m.m.m.n.V.m.n.m.m.m.m.m.m.m.m.m.m.m.h.w.",
"f.z.v.v.v.v.v.9. .6.f.v.m.v.v.v.v.v.v.v.v.v.v.v.v.v.v.v.v.v.v.v.v.v.v.n.n.v.v.v.v.v.v.v.v.v.v.v.v.v.v.v.v.v.v.v.v.v.v.v.v.v.f.w.",
"f.z.v.v.v.v.h.O.:.i.h.v.v.v.v.v.v.v.v.v.v.v.v.v.v.v.v.v.v.v.v.v.v.v.v.v.v.v.v.v.v.v.v.v.v.v.v.v.v.v.v.v.v.v.v.v.v.v.v.v.v.v.g.e.",
"f.z.v.v.v.v.g.:.t.z.v.v.v.v.v.v.v.v.v.v.v.v.v.v.v.v.v.v.v.v.v.v.v.v.v.v.v.v.v.z.v.v.v.v.v.v.v.v.v.v.v.v.v.v.v.v.v.v.v.v.v.v.a.>.",
"f.z.v.v.j.j.t.t.z.v.v.v.v.v.v.v.v.v.v.v.v.v.v.v.v.v.v.v.v.v.v.v.v.v.v.v.v.v.v.j.z.v.v.v.v.v.v.v.v.v.z.v.v.v.v.v.v.v.v.v.v.v.y.o.",
"f.z.v.j.a.f.d.z.v.v.v.z.z.h.v.v.v.v.v.j.j.z.v.v.v.v.v.v.z.j.v.v.v.v.v.v.v.v.v.g.h.v.z.v.v.j.z.v.v.h.h.z.v.v.v.v.v.v.v.v.v.j.e.o.",
"d.h.g.d.a.i.j.j.f.g.f.d.d.j.v.z.z.h.f.d.a.f.h.g.g.f.f.f.d.g.z.z.z.j.f.g.j.z.h.9.i.f.d.f.g.g.z.h.f.f.g.h.z.h.f.g.h.f.f.g.g.f.e.o.",
"a.a.i.i.i.f.f.a.i.i.i.i.a.g.g.d.a.i.i.i.i.i.i.i.i.i.i.i.i.d.f.d.a.a.i.i.a.a.9.o.0.a.i.i.i.a.a.u.y.y.y.i.a.i.i.i.i.i.i.i.i.i.0.o.",
"W.<.:.=.=.:.=.=.=.=.=.=.=.=.=.=.=.=.=.>.<.<.<.<.<.<.<.<.>.>.>.:.:.>.>.>.<.<.:.=.>.<.<.<.>.=.=.=.=.=.=.=.=.=.=.=.:.:.:.=.=.:.:.W.",
"W.W.u.i.i.i.i.i.i.i.i.i.i.i.i.i.i.i.i.0.6.6.6.6.6.6.6.2.%.%.=.O.O.=.%.%.2.6.w.w.9.6.6.6.w.a.i.i.i.i.i.i.i.i.i.i.w.5.5.u.a.5.W.W.",
"W.W.N.Y.I.L.L.L.L.K.J.P.P.L.P.I.P.L.V.6.0.e.y.y.y.y.y.w.<.>.5.6.6.0.2.<.0.y.i.i.u.y.y.t.i.L.T.Y.P.L.L.L.P.P.L.L.J.v.F.L.K.t.W.W.",
"W.W.d.v.g.z.n.n.v.v.Z.m.N.z.n.S.m.j.0.>.e.i.a.a.a.a.d.y.6.6.y.u.y.u.9.6.y.d.a.a.a.a.a.a.u.v.N.N.m.m.n.v.m.m.v.v.m.z.f.n.f.:.W.W.",
"W.W.d.g.a.f.j.h.d.n.m.z.z.d.g.z.z.d.9.>.y.a.a.a.a.y.0.5.w.9.y.f.a.y.9.w.5.0.y.a.a.a.a.a.u.h.h.v.v.v.h.g.g.g.a.f.z.h.u.f.y.:.W.W.",
"W.W.d.h.a.a.g.g.a.j.f.g.z.d.d.g.d.i.9.>.y.a.a.y.5.9.e.y.;.2.u.u.u.u.2.;.y.e.9.5.y.a.a.a.u.j.d.j.v.j.a.a.d.d.a.a.f.f.i.f.y.:.W.W.",
"W.W.d.h.a.a.a.a.a.a.a.d.g.a.a.a.a.i.9.>.y.i.0.9.w.3.` l : ~ 6.y.y.6.~ : l ` 3.w.9.0.i.a.u.j.d.f.g.d.a.a.i.f.a.a.a.i.a.d.y.:.W.W.",
"W.W.a.f.a.a.a.a.a.a.a.a.a.a.a.a.a.i.9.>.t.0.w.<.C * +   o + r ` ` r + o   + * C <.w.0.i.u.h.d.a.a.a.a.a.i.f.a.a.a.i.f.a.y.:.W.W.",
"W.W.e.y.y.y.y.y.y.y.y.y.y.y.y.y.y.t.2.>.6.0.{ q   o o o o o   + +   o o o o o   q { 0.0.t.u.y.y.y.y.y.t.w.y.y.y.e.e.u.y.0.=.W.W.",
"W.W.:.>.<.<.<.>.>.<.<.<.<.<.>.:.=.=.o.@.0./ @   o o o o o o o o o o o o o o o o   @ / 0.=.=.<.<.<.<.<.<.:.:.<.<.:.<.<.>.%. .W.W.",
"W.W.X.5.e.e.e.5.:.2.2.6.5.>.%.X.| | | 2.-.& o o o o o o o o o o o o o o o o o o o o & -.2.@.0.e.w.w.e.e.9.0.0.2.<.<.%.@.| | W.W.",
"W.W.W.>.2.5.5.2.:.<.<.:.%.=.@.X.| | O.*.i o o o o o o o o o o o o o o o o o o o o o o i *.%.=.2.2.<.5.5.6.5.<.:.=.=.X.| | W.W.W.",
"W.W.W.W.w.w.0.w.u.d.i.a.a.e.t.t.%. .>.N   o o o o o o o o o o o o o o o o o o o o o o   N >.%.9.w.e.e.a.a.i.d.y.e.w.6.@.| W.W.W.",
"W.W.W.F.a.i.i.g.F.H.Z.F.D.z.a.i.t.@...* o o o o o o o o o o o o o o o o o o o o o o o o & O.t.u.i.a.n.G.F.Z.G.N.f.i.u.e.@.W.W.W.",
"W.W.W.J.f.i.g.F.Z.g.Z.Z.z.N.z.a.y.=.l o o o o o o o o o o o o o o o o o o o o o o o o o o A a.i.a.m.G.z.v.D.n.v.N.f.i.i.<.W.W.W.",
"W.W.W.F.a.a.Z.S.g.v.g.V.h.f.v.f.i.#.* o o o o o o o o o o o o o o o o o o o o o o o o o . 4 r.i.g.G.v.j.j.v.N.a.z.h.a.y.:.W.W.W.",
"W.W.W.G.d.g.D.d.v.n.y.f.d.y.z.v.a.&.# o o o o o o o o o o o o o o o o o o o o o o o o o o , r.a.m.m.a.Z.d.y.j.y.d.N.f.u.>.W.W.W.",
"W.W.W.G.f.f.Z.d.h.n.z.v.a.i.j.a.d.;.$ o o o o o o o o o o o o o o o o o o o o o o o o o . 4 p.a.n.n.a.v.v.z.j.u.f.g.i.i.>.W.W.W.",
"W.W.W.K.v.a.a.n.n.a.v.g.f.Z.g.u.d.>.# o o o o o o o o o o o o o o o o o o o o o o o o o   6 c.d.i.h.Z.g.h.v.a.m.n.i.i.g.2.W.W.W.",
"W.W.W.P.V.a.u.h.S.g.y.u.V.N.i.i.f.1.# o o o o o o o o o o o o o o o o o o o o o o o o o   6 B.h.i.i.N.V.u.y.g.S.h.u.a.n.5.W.W.W.",
"W.W.W.J.S.g.i.i.m.V.a.h.S.h.u.a.n.;.# o o o o o o o o o o o o o o o o o o o o o o o o o   6 n.m.a.u.h.S.h.a.V.m.i.i.g.N.<.W.W.W.",
"W.W.W.J.V.m.a.u.h.S.h.N.m.i.i.g.N.$.$ o o o o o o o o o o o o o o o o o o o o o o o o o   6 z.Z.g.i.i.m.N.h.S.h.u.a.m.n.<.W.W.W.",
"W.W.W.J.m.z.a.d.d.m.S.S.g.i.a.v.v.#.$ o o o o o o o o o o o o o o o o o o o o o o o o o   6 z.v.g.a.d.h.S.S.m.i.a.f.N.z.<.W.W.W.",
"W.W.W.J.j.u.g.F.z.h.D.m.a.v.z.d.i.@.$ o o o o o o o o o o o o o o o o o o o o o o o o o   6 l.a.i.m.S.d.N.D.h.d.m.f.a.f.<.W.W.W.",
"W.W.W.G.d.d.D.Z.j.h.D.h.g.v.S.z.u.+.$ o o o o o o o o o o o o o o o o o o o o o o o o o   7 f.u.n.G.v.g.V.N.d.j.V.V.d.u.>.W.W.W.",
"W.W.W.G.f.f.Z.d.u.N.Z.u.y.h.n.h.a.&.$ o o o o o o o o o o o o o o o o o o o o o o o o o   7 f.a.m.n.y.f.D.j.t.i.v.v.d.i.>.W.W.W.",
"W.W.W.P.N.i.f.v.m.S.j.i.z.S.n.u.f.,.# o o o o o o o o o o o o o o o o o o o o o o o o o   6 M.g.i.v.v.V.V.a.f.m.S.d.i.v.5.W.W.W.",
"W.W.W.J.S.g.i.z.n.j.y.d.n.n.d.i.n.;.# o o o o o o o o o o o o o o o o o o o o o o o o o   6 n.m.i.d.n.n.a.u.j.n.z.i.g.N.<.W.W.W.",
"W.W.W.J.N.n.d.u.a.h.i.g.i.u.i.j.m.$.$ o o o o o o o o o o o o o o o o o o o o o o o o o   6 z.N.h.i.u.g.d.d.d.u.u.d.m.v.<.W.W.W.",
"W.W.W.J.n.d.a.a.m.N.i.h.N.g.a.g.j.$.$ o o o o o o o o o o o o o o o o o o o o o o o o o   6 x.h.a.a.g.Z.j.a.m.n.a.d.j.j.<.W.W.W.",
"W.W.W.J.j.u.a.g.Z.g.y.i.m.m.a.a.i.@.$ o o o o o o o o o o o o o o o o o o o o o o o o o   7 l.a.i.a.m.m.i.y.g.Z.g.a.i.f.<.W.W.W.",
"W.W.W.H.d.i.a.m.m.i.i.u.g.Z.g.a.u.+.$ o o o o o o o o o o o o o o o o o o o o o o o o o . 4 s.i.a.g.Z.g.u.i.i.m.m.a.a.u.>.W.W.W.",
"W.W.W.h.u.a.g.Z.g.u.h.d.u.m.m.a.a.#.$ o o o o o o o o o o o o o o o o o o o o o o o o o o & =.a.a.m.m.u.d.g.u.g.Z.g.a.y.:.W.W.W.",
"W.W.W.w.i.a.n.m.i.n.H.V.a.g.Z.g.a.-.$ o o o o o o o o o o o o o o o o o o o o o o o o o o # -.a.g.Z.g.d.D.S.j.i.m.n.a.i.>.W.W.W.",
"W.W.W.e.i.f.Z.g.h.F.v.V.N.a.m.n.a.;.$ o o o o o o o o o o o o o o o o o o o o o o o o o o $ ;.a.n.m.a.Z.Z.v.S.h.g.Z.f.i.>.W.W.W.",
"W.W.W.w.i.g.Z.i.f.z.u.g.v.u.z.n.a.-.$ o o o o o o o o o o o O < 3 3 1 + o o o o o o o o o $ -.a.N.z.u.v.f.i.v.g.i.V.f.i.>.W.W.W.",
"W.W.W.y.g.d.j.j.g.f.m.Z.a.a.g.a.d.>.# o o o o o + # # + O < 3 w e 0 # o o o o o o o o o o # 4.f.h.j.j.d.j.Z.v.y.h.d.a.f.:.W.W.W.",
"W.W.W.a.n.a.u.h.S.Z.G.h.a.n.i.i.f.1.# o o o o @ > e e w 5 e p 8 y y 3 < + o o o o o o o o # q.h.i.i.N.V.S.V.i.j.h.u.a.z.@.W.W.W.",
"W.W.W.t.m.g.a.u.g.n.g.i.j.a.i.a.b.=.# o o o + 1 3 2 3 e ; w V p D z ; = # # + o o o o o o # 7.m.a.i.i.v.v.i.f.g.u.a.g.n.O.W.W.W.",
"W.W.W.W.v.N.g.a.u.u.u.u.u.i.d.v.j.} # o o o o . o > 9 h j m b a F P c f 8 3 - & O X o o o @ 2.V.z.d.i.u.u.u.u.u.a.g.N.f.X.W.W.W.",
"W.W.W.j.h.z.m.v.g.i.i.i.a.v.N.m.e. .u o o + % 1 < y x s p V Z g v g h s e w y k y t + o o M 0.k.n.n.z.a.i.i.d.z.n.N.z.2. .W.W.W.",
"W.W.S.J.N.v.j.m.i.y.y.i.a.h.f.6.=.0.e.u + 1 k k c G G G U T g E ( ! ! W L G V h g v w O S A.S.n.n.N.m.d.a.d.g.V.j.y.5.O.9.5.W.W.",
"W.W.n.F.L.L.D.F.H.G.G.H.H.H.S.z.v.N.m._ B J C b L R W W ) B n ' [ ] ) ) W R L D e g I k 8.C.K.L.L.L.L.J.H.J.N.f.V.N.z.v.v.0.W.W.",
"W.v.v.g.v.m.v.n.V.m.m.m.m.m.m.m.m.n.9.O.c s K ' ( ( [ ( ( Q ' ( ( W I ' ( ( ) ' R H d ^ j.j.h.m.m.m.m.m.m.m.v.e.i.N.m.m.d.<.>.W.",
"W.v.j.f.v.v.g.h.v.v.v.v.v.v.v.v.v.v.u.=.( Y ( ( ) [ | | | O.O.| | | ) X.| | | ' W Y ! t.n.f.j.v.v.v.v.v.v.v.v.i.i.v.v.v.j.5.<.o.",
"v.v.f.j.v.j.f.f.j.v.v.v.v.v.v.v.v.v.j.>.( W W W ( [ ' X.@.%.@.@.X.[ ' [ @.O. .( W Y W g.z.d.v.v.v.v.v.v.v.v.v.a.d.n.v.v.v.y.:.O.",
"z.z.f.z.v.f.j.j.f.v.v.v.v.v.v.v.v.v.v.5.! L L W  .' ( ) ' O. .) ) ( ' ' | o.o.| ! W ' g.h.h.v.v.v.v.v.v.v.v.v.j.f.v.v.v.n.f.:. .",
"t.u.y.a.u.e.a.u.t.d.a.a.a.a.a.a.u.u.i.<.[ [ O.:.6.:.| | X.@.o.X.@. .X.X.X.o.X. .O.%.X.e.y.i.a.a.a.a.a.a.a.a.a.a.a.i.u.u.u.y.@.[ ",
"W.0.0.9.>.<.:.=.%.>.:.:.:.:.:.=.X. .X. .W.W.o.%.5.2.9.0.6.:.=.@.W.W.<.2.5.2.o.6.e.5.X.:.0.0.0.0.0.0.2.:.:.:.:.:.:.@. .X.X. .| W.",
"W.W.W.W.W.W.W.W.W.W.W.W.W.W.W.W.W.W.W.W.W.W.W.W.i.i.y.t.9.>.W.W.u.i.t.y.t.0.W.i.i.t.5.W.W.W.W.W.W.W.W.W.W.W.W.W.W.W.W.W.W.W.W.W.",
"W.W.W.W.W.W.W.W.W.W.W.W.W.W.W.W.W.W.W.W.W.W.W.W.W.u.i.e.>.<.W.W.e.u.a.a.u.<.W.W.W.w.@.W.W.W.W.W.W.W.W.W.W.W.W.W.W.W.W.W.W.W.W.W."
};
