/* XPM */
static char *result[] = {
/* columns rows colors chars-per-pixel */
"32 64 96 2 ",
"   c black",
".  c #0F0200",
"X  c #110300",
"o  c #110700",
"O  c #120700",
"+  c #170900",
"@  c #180D00",
"#  c #000015",
"$  c #000B1E",
"%  c #140D17",
"&  c #110D1C",
"*  c #1F1910",
"=  c #171018",
"-  c #1C1519",
";  c #19121D",
":  c #1B141C",
">  c #1B141E",
",  c #201400",
"<  c #251A00",
"1  c #2A1C00",
"2  c #2E1C00",
"3  c #211708",
"4  c #251E0D",
"5  c #251C11",
"6  c #201914",
"7  c #231A16",
"8  c #241B16",
"9  c #251619",
"0  c #301D14",
"q  c #2C2000",
"w  c #2C2100",
"e  c #2F2002",
"r  c #292B00",
"t  c #2C2E00",
"y  c #322500",
"u  c #322504",
"i  c #382903",
"p  c #3D2D00",
"a  c #373500",
"s  c #383500",
"d  c #3F3D00",
"f  c #2E2113",
"g  c #392017",
"h  c #412F00",
"j  c #442F08",
"k  c #463300",
"l  c #4B3500",
"z  c #4B3600",
"x  c #493800",
"c  c #4B3800",
"v  c #4E3800",
"b  c #533203",
"n  c #643706",
"m  c #7B3D05",
"M  c #743A0F",
"N  c #613110",
"B  c #354100",
"V  c #464700",
"C  c #4E4200",
"Z  c #4A4500",
"A  c #746C21",
"S  c #004149",
"D  c #5E5151",
"F  c #644B46",
"G  c #E25322",
"H  c #806353",
"J  c #93756B",
"K  c #816277",
"L  c #9B7B78",
"P  c #988843",
"I  c #9E8958",
"U  c #9E836D",
"Y  c #A28372",
"T  c #A08278",
"R  c #364280",
"E  c #7C6D99",
"W  c #90738B",
"Q  c #97758A",
"!  c #8468A1",
"~  c #838895",
"^  c #918692",
"/  c #AA8288",
"(  c #B29285",
")  c #A58694",
"_  c #B28293",
"`  c #BBB39B",
"'  c #BAB39C",
"]  c #B7B3B1",
"[  c #CCC1BE",
"{  c #FADDB3",
"}  c #FFEBAC",
"|  c #FAEABE",
" . c #FCF2EE",
".. c #FDF5F1",
"X. c #FDF7F4",
"o. c None",
/* pixels */
"o.o.o.o.o.o.o.o.o.o.o.o.o.o.o.o.o.o.o.o.o.o.o.o.o.o.o.o.o.o.o.o.",
"o.o.o.o.o.o.o.o.o.o.o.o.o.o.o.o.o.o.o.o.o.o.o.o.o.o.o.o.o.o.o.o.",
"o.o.o.o.o.o.o.o.o.o.o.o.o.o.o.o.o.o.o.o.o.o.o.o.o.o.o.o.o.o.o.o.",
"o.o.o.o.o.o.o.o.o.o.o.o.o.o.o.o.o.o.o.o.o.o.o.o.o.o.o.o.o.o.o.o.",
"o.o.o.o.o.o.o.o.o.o.o.o.o.o.o.o.o.o.o.o.o.o.o.o.o.o.o.o.o.o.o.o.",
"o.o.o.o.o.o.o.o.o.o.o.o.o.o.o.o.o.o.o.o.o.o.o.o.o.o.o.o.o.o.o.o.",
"o.o.o.o.o.o.o.o.o.o.o.o.o.o.o.o.o.o.o.o.o.o.o.o.o.o.o.o.o.o.o.o.",
"o.o.o.o.o.o.o.o.o.o.o.o.o.o.o.o.o.o.o.o.o.o.o.o.o.o.o.o.o.o.o.o.",
"o.o.o.o.o.o.o.o.o.o.o.o.o.o.o.o.o.o.o.o.o.o.o.o.o.o.o.o.o.o.o.o.",
"o.o.o.o.o.o.o.o.o.o.o.o.o.o.o.o.o.o.o.o.o.o.o.o.o.o.o.o.o.o.o.o.",
"o.o.o.o.o.o.o.o.o.o.o.o.o.o.o.o.o.o.o.o.o.o.o.o.o.o.o.o.o.o.o.o.",
"o.o.o.o.o.o.o.o.o.o.o.o.o.o.o.o.o.o.o.o.o.o.o.o.o.o.o.o.o.o.o.o.",
"o.o.o.o.o.o.o.o.o.o.o.o.o.o.o.o.o.o.o.o.o.o.o.o.o.o.o.o.o.o.o.o.",
"o.o.o.o.o.o.o.o.o.o.o.o.o.o.o.o.o.o.o.o.o.o.o.o.o.o.o.o.o.o.o.o.",
"o.o.o.o.o.o.o.o.o.o.o.o.o.o.o.o.o.o.o.o.o.o.o.o.o.o.o.o.o.o.o.o.",
"o.o.o.o.o.o.o.o.o.o.o.o.o.o.o.o.o.o.o.o.o.o.o.o.o.o.o.o.o.o.o.o.",
"o.o.o.o.o.o.o.o.o.o.o.o.o.o.o.o.o.o.o.o.o.o.o.o.o.o.o.o.o.o.o.o.",
"o.o.o.o.o.o.o.o.o.o.o.o.o.o.o.o.o.o.o.o.o.o.o.o.o.o.o.o.o.o.o.o.",
"o.o.o.o.o.o.o.o.o.o.o.o.o.o.o.o.o.o.o.o.o.o.o.o.o.o.o.o.o.o.o.o.",
"o.o.o.o.o.o.o.o.o.o.! ! ! ! ! ! ! o.o.o.o.o.o.o.o.o.o.o.o.o.o.o.",
"o.o.o.o.o.o.o.o.! ! ! > > > > > ! E o.o.o.o.o.o.o.o.o.o.o.o.o.o.",
"o.o.o.o.o.o.o.~ ! > > ........[ > > o.o.o.o.o.o.o.o.o.o.o.o.o.o.",
"o.o.o.o.o.o.o.! > [ ........[ [ [ ^ > o.o.o.o.o.o.o.o.o.o.o.o.o.",
"o.o.o.o.o.o.o.> [ ..........[ [ [ [ [ o.o.o.o.o.o.o.o.o.o.o.o.o.",
"o.o.o.o.o.o.o.> ............[ ^ [ [ [ $ o.o.o.o.o.o.o.o.o.o.o.o.",
"o.o.o.o.o.o.o.> ..........> > ^ ^ [ [ & o.o.o.o.o.o.o.o.o.o.o.o.",
"o.o.o.o.o.o.o.> [ ..[ [ > > > > ^ [ ^ ; o.o.o.o.o.o.o.o.o.o.o.o.",
"o.o.o.o.o.o.o.> > > > ..> G > > ..[ > R o.o.o.o.o.o.o.o.o.o.o.o.",
"o.o.o.o.o.o.o.Q > > G ^ ..> > ..[ > ^ > o.o.o.o.o.o.o.o.o.o.o.o.",
"o.o.o.o.o.o.o./ > > > ^ [ ....[ [ ^ > > o.# o.o.o.o.o.o.o.o.o.o.",
"o.o.o.o.o.o.o.o.> ..............[ ^ > ^ > o.o.S o.o.o.o.o.o.o.o.",
"o.o.o.o.o.o.o.o._ > [ ..^ ..^ > > > ....] %   o.o.> o.o.o.o.o.o.",
"o.o.o.o.o.o.o.o.o.9 > ..[ > >  .^ ....[ > o.o.> o.> o.o.o.o.o.o.",
"o.o.o.o.o.o.o.o.o.g 0 > > ) W > ` > ' > D o.o.> [ > o.o.o.o.o.o.",
"o.o.o.o.o.o.o.o.N o.| { > ( T > 3 ^ . o o.o.= X.....> o.o.o.o.o.",
"o.o.o.o.o.o.o.o.M o.o.} f o.> o.P [ A o.X o.> ^ ....> o.o.o.o.o.",
"o.o.o.o.o.o.o.o.o.m o.o.j o.8 o.o.1 o.o.O o.F > [ ..> o.o.o.o.o.",
"o.o.o.o.o.o.o.o.o.o.n b o.v o.u 7 o.e 2 o.@ H K > > o.o.o.o.o.o.",
"o.o.o.o.o.o.o.o.o.o.o.o.o.k o.i o.o.o.q o.> J L Y o.o.o.o.o.o.o.",
"o.o.o.o.o.o.o.o.o.o.o.o.o.z o.c o.o.o.5 o.> U o.o.o.o.o.o.o.o.o.",
"o.o.o.o.o.o.o.o.o.o.o.o.o.l o.x o.o.o.> o.- I o.o.o.o.o.o.o.o.o.",
"o.o.o.o.o.o.o.o.o.o.o.o.o.h y o.C o.o.o.4 o.6 o.o.o.o.o.o.o.o.o.",
"o.o.o.o.o.o.o.o.o.o.o.o.p o.o.o.Z o.o.o.: o.* o.o.o.o.o.o.o.o.o.",
"o.o.o.o.o.o.o.o.o.o.o.o.s a d V o.o.o.o.> > o.t o.o.o.o.o.o.o.o.",
"o.o.o.o.o.o.o.o.o.o.o.o.o.o.o.o.o.o.o.r o.o.o.B o.o.o.o.o.o.o.o.",
"o.o.o.o.o.o.o.o.o.o.o.o.o.o.o.o.o.o.o.+ , < w o.o.o.o.o.o.o.o.o.",
"o.o.o.o.o.o.o.o.o.o.o.o.o.o.o.o.o.o.o.o.o.o.o.o.o.o.o.o.o.o.o.o.",
"o.o.o.o.o.o.o.o.o.o.o.o.o.o.o.o.o.o.o.o.o.o.o.o.o.o.o.o.o.o.o.o.",
"o.o.o.o.o.o.o.o.o.o.o.o.o.o.o.o.o.o.o.o.o.o.o.o.o.o.o.o.o.o.o.o.",
"o.o.o.o.o.o.o.o.o.o.o.o.o.o.o.o.o.o.o.o.o.o.o.o.o.o.o.o.o.o.o.o.",
"o.o.o.o.o.o.o.o.o.o.o.o.o.o.o.o.o.o.o.o.o.o.o.o.o.o.o.o.o.o.o.o.",
"o.o.o.o.o.o.o.o.o.o.o.o.o.o.o.o.o.o.o.o.o.o.o.o.o.o.o.o.o.o.o.o.",
"o.o.o.o.o.o.o.o.o.o.o.o.o.o.o.o.o.o.o.o.o.o.o.o.o.o.o.o.o.o.o.o.",
"o.o.o.o.o.o.o.o.o.o.o.o.o.o.o.o.o.o.o.o.o.o.o.o.o.o.o.o.o.o.o.o.",
"o.o.o.o.o.o.o.o.o.o.o.o.o.o.o.o.o.o.o.o.o.o.o.o.o.o.o.o.o.o.o.o.",
"o.o.o.o.o.o.o.o.o.o.o.o.o.o.o.o.o.o.o.o.o.o.o.o.o.o.o.o.o.o.o.o.",
"o.o.o.o.o.o.o.o.o.o.o.o.o.o.o.o.o.o.o.o.o.o.o.o.o.o.o.o.o.o.o.o.",
"o.o.o.o.o.o.o.o.o.o.o.o.o.o.o.o.o.o.o.o.o.o.o.o.o.o.o.o.o.o.o.o.",
"o.o.o.o.o.o.o.o.o.o.o.o.o.o.o.o.o.o.o.o.o.o.o.o.o.o.o.o.o.o.o.o.",
"o.o.o.o.o.o.o.o.o.o.o.o.o.o.o.o.o.o.o.o.o.o.o.o.o.o.o.o.o.o.o.o.",
"o.o.o.o.o.o.o.o.o.o.o.o.o.o.o.o.o.o.o.o.o.o.o.o.o.o.o.o.o.o.o.o.",
"o.o.o.o.o.o.o.o.o.o.o.o.o.o.o.o.o.o.o.o.o.o.o.o.o.o.o.o.o.o.o.o.",
"o.o.o.o.o.o.o.o.o.o.o.o.o.o.o.o.o.o.o.o.o.o.o.o.o.o.o.o.o.o.o.o.",
"o.o.o.o.o.o.o.o.o.o.o.o.o.o.o.o.o.o.o.o.o.o.o.o.o.o.o.o.o.o.o.o."
};
