/* XPM */
static char *result[] = {
/* columns rows colors chars-per-pixel */
"32 64 111 2 ",
"   c black",
".  c #010000",
"X  c #000100",
"o  c #000300",
"O  c #030300",
"+  c #050000",
"@  c #040200",
"#  c #060300",
"$  c #010400",
"%  c #020400",
"&  c #000600",
"*  c #050400",
"=  c #040500",
"-  c #070400",
";  c #040700",
":  c #0B0000",
">  c #0B0100",
",  c #080200",
"<  c #0A0700",
"1  c #0D0400",
"2  c #0C0700",
"3  c #0E0104",
"4  c #000900",
"5  c #000A00",
"6  c #000B00",
"7  c #040800",
"8  c #060900",
"9  c #020C00",
"0  c #050E00",
"q  c #090900",
"w  c #080A00",
"e  c #0A0A00",
"r  c #0F0800",
"t  c #0E0F00",
"y  c #190700",
"u  c #110800",
"i  c #100900",
"p  c #160B00",
"a  c #170B00",
"s  c #120D00",
"d  c #130E00",
"f  c #140F00",
"g  c #190A00",
"h  c #0C1100",
"j  c #0E1800",
"k  c #111300",
"l  c #111202",
"z  c #161101",
"x  c #141200",
"c  c #161200",
"v  c #101400",
"b  c #101700",
"n  c #111304",
"m  c #121404",
"M  c #121405",
"N  c #121505",
"B  c #151506",
"V  c #1E1500",
"C  c #101900",
"Z  c #131B02",
"A  c #141900",
"S  c #131C00",
"D  c #131E00",
"F  c #141E00",
"G  c #1A1F00",
"H  c #1C1F00",
"J  c #151309",
"K  c #13160A",
"L  c #15150E",
"P  c #191708",
"I  c #191B0F",
"U  c #181412",
"Y  c #181413",
"T  c #1C1710",
"R  c #191416",
"E  c #1B141E",
"W  c #231500",
"Q  c #271700",
"!  c #2A1500",
"~  c #241F03",
"^  c #211E07",
"/  c #221A0C",
"(  c #21180E",
")  c #201610",
"_  c #112300",
"`  c #122200",
"'  c #192100",
"]  c #242000",
"[  c #64755A",
"{  c #67755C",
"}  c #E25322",
"|  c #8A7C79",
" . c #A79629",
".. c #A79936",
"X. c #ACA446",
"o. c #A8A952",
"O. c #8F9867",
"+. c #8E9575",
"@. c #D3D470",
"#. c #8468A1",
"$. c #918692",
"%. c #CAC0BA",
"&. c #CCC1BE",
"*. c #F7FFAE",
"=. c #FFFFAA",
"-. c #FFFFC7",
";. c #FFFFDB",
":. c #FDF5F1",
">. c #FFFFF2",
",. c #FFFFF7",
"<. c None",
/* pixels */
"<.<.<.<.<.<.<.<.<.<.<.<.<.<.<.<.<.<.<.<.<.<.<.<.<.<.<.<.<.<.<.<.",
"<.<.<.<.<.<.<.<.<.<.<.<.<.<.<.<.<.<.<.<.<.<.<.<.<.<.<.<.<.<.<.<.",
"<.<.<.<.<.<.<.<.<.<.<.<.<.<.<.<.<.<.<.<.<.<.<.<.<.<.<.<.<.<.<.<.",
"<.<.<.<.<.<.<.<.<.<.<.<.<.<.<.<.<.<.<.<.<.<.<.<.<.<.<.<.<.<.<.<.",
"<.<.<.<.<.<.<.<.<.<.<.<.<.<.<.<.<.<.<.<.<.<.<.<.<.<.<.<.<.<.<.<.",
"<.<.<.<.<.<.<.<.<.<.<.<.<.<.<.<.<.<.<.<.<.<.<.<.<.<.<.<.<.<.<.<.",
"<.<.<.<.<.<.<.<.<.<.<.<.<.<.<.<.<.<.<.<.<.<.<.<.<.<.<.<.<.<.<.<.",
"<.<.<.<.<.<.<.<.<.<.<.<.<.<.<.<.<.<.<.<.<.<.<.<.<.<.<.<.<.<.<.<.",
"<.<.<.<.<.<.<.<.<.<.<.<.<.<.<.<.<.<.<.<.<.<.<.<.<.<.<.<.<.<.<.<.",
"<.<.<.<.<.<.<.<.<.<.<.<.<.<.<.<.<.<.<.<.<.<.<.<.<.<.<.<.<.<.<.<.",
"<.<.<.<.<.<.<.<.<.<.<.<.<.<.<.<.<.<.<.<.<.<.<.<.<.<.<.<.<.<.<.<.",
"<.<.<.<.<.<.<.<.<.<.<.<.<.<.<.<.<.<.<.<.<.<.<.<.<.<.<.<.<.<.<.<.",
"<.<.<.<.<.<.<.<.<.<.<.<.<.<.<.<.<.<.<.<.<.<.<.<.<.<.<.<.<.<.<.<.",
"<.<.<.<.<.<.<.<.<.<.<.<.<.<.<.<.<.<.<.<.<.<.<.<.<.<.<.<.<.<.<.<.",
"<.<.<.<.<.<.<.<.<.<.<.<.<.<.<.<.<.<.<.<.<.<.<.<.<.<.<.<.<.<.<.<.",
"<.<.<.<.<.<.<.<.<.<.<.<.<.<.<.<.<.<.<.<.<.<.<.<.<.<.<.<.<.<.<.<.",
"<.<.<.<.<.<.<.<.<.<.<.<.<.<.<.<.<.<.<.<.<.<.<.<.<.<.<.<.<.<.<.<.",
"<.<.<.<.<.<.<.<.<.<.<.<.<.<.<.<.<.<.<.<.<.<.<.<.<.<.<.<.<.<.<.<.",
"<.<.<.<.<.<.<.<.<.<.<.<.<.<.<.<.<.<.<.<.<.<.<.<.<.<.<.<.<.<.<.<.",
"<.<.<.<.<.<.<.<.<.<.<.<.<.<.<.<.<.<.<.<.<.<.<.<.<.<.<.<.<.<.<.<.",
"<.<.<.<.<.<.<.<.<.<.<.<.<.<.#.#.#.#.<.<.<.<.<.<.<.<.<.<.<.<.<.<.",
"<.<.<.<.<.<.<.<.<.<.<.<.<.E E E E #.#.#.<.<.<.<.<.<.<.<.<.<.<.<.",
"<.<.<.<.<.<.<.<.<.<.<.  E &.:.:.:.E E #.| <.<.<.<.<.<.<.<.<.<.<.",
"<.<.<.<.<.<.<.<.<.<.  %.:.:.:.:.:.:.:.E E <.<.<.<.<.<.<.<.<.<.<.",
"<.<.<.<.<.<.<.<.<.<.3 :.:.:.:.:.:.:.:.&.$.t <.<.<.<.<.<.<.<.<.<.",
"<.<.<.<.<.<.<.<.<.  E :.&.:.:.:.:.:.&.&.&.x <.<.<.<.<.<.<.<.<.<.",
"<.<.<.<.<.<.<.<.<.  E E $.&.:.:.&.&.&.&.&.R <.<.<.<.<.<.<.<.<.<.",
"<.<.<.<.<.<.<.<.<.  } E :.$.E E E $.&.&.&.E <.<.<.<.<.<.<.<.<.<.",
"<.<.<.<.<.<.<.<.  <.E $.:.E } E E $.$.&.&.E <.<.<.<.<.<.<.<.<.<.",
"<.<.<.<.<.<.<.<.4 <.>.$.&.E E E :.$.&.&.&.E <.<.<.<.<.<.<.<.<.<.",
"<.<.<.<.<.<.<.<.<.0 ,.:.:.:.:.:.&.&.&.$.E <.<.<.<.<.<.<.<.<.<.<.",
"<.<.<.<.<.<.<.<.<.6 ;.$.:.:.:.&.&.$.E E { <.<.<.<.<.<.<.<.<.<.<.",
"<.<.<.<.<.<.<.<.<.<., E E :.&.$.$.E E [ <.<.<.<.<.<.<.<.<.<.<.<.",
"<.<.<.<.<.<.<.<.    + E E E E E E +.E <.U J k < <.<.<.<.<.<.<.<.",
"<.<.<.<.<.<.<.  <.<.<.<.u z &.$.$.&.O.Y <.<.<.<.8 <.<.<.<.<.<.<.",
"<.<.<.<.<.<.<.X <.9 O # 2 <.*.E :.:.=.<.B M v l <.- <.<.<.<.<.<.",
"<.<.<.<.<.<.@ <.% <.<.<.<.c <.o.:.-.@.P <.<.<.m <.N h * . <.<.<.",
"<.<.<.<.  1 <.<.<.o <.<.<.<.V ..E X.T <.<.<.<.<.n <.<.<.<.. <.<.",
"<.<.<.> <.<.r 7 & <.& <.<.W <.$.&. .<.^ <.<.<.b <.K L <.e <.<.<.",
"<.<.<.<.: - <.<.<.& & <.g <.<.<.) <.<.~ H <.<.j C <.<.b q <.<.<.",
"<.<.<.<.<.<.<.<.<.<.<.<.y <.! Q <.( / <.<.F <.<.<.<.<.<.<.<.<.<.",
"<.<.<.<.<.<.<.<.<.<.<.; <.a <.<.<.<.<.] G <.D Z <.<.<.<.<.<.<.<.",
"<.<.<.<.<.<.<.<.<.<.<.5 <.p <.<.<.<.<.<.<.' <.<.` <.<.<.<.<.<.<.",
"<.<.<.<.<.<.<.<.<.<.X $ <.w <.<.<.<.<.<.<.<.I E <._ <.<.<.<.<.<.",
"<.<.<.<.<.<.<.<.<.  <.<.<.= <.<.<.<.<.<.<.A <.<.<.S <.<.<.<.<.<.",
"<.<.<.<.<.<.<.<.<.<.<.    . <.<.<.<.<.<.<.i s f d <.<.<.<.<.<.<.",
"<.<.<.<.<.<.<.<.<.<.<.<.<.<.<.<.<.<.<.<.<.<.<.<.<.<.<.<.<.<.<.<.",
"<.<.<.<.<.<.<.<.<.<.<.<.<.<.<.<.<.<.<.<.<.<.<.<.<.<.<.<.<.<.<.<.",
"<.<.<.<.<.<.<.<.<.<.<.<.<.<.<.<.<.<.<.<.<.<.<.<.<.<.<.<.<.<.<.<.",
"<.<.<.<.<.<.<.<.<.<.<.<.<.<.<.<.<.<.<.<.<.<.<.<.<.<.<.<.<.<.<.<.",
"<.<.<.<.<.<.<.<.<.<.<.<.<.<.<.<.<.<.<.<.<.<.<.<.<.<.<.<.<.<.<.<.",
"<.<.<.<.<.<.<.<.<.<.<.<.<.<.<.<.<.<.<.<.<.<.<.<.<.<.<.<.<.<.<.<.",
"<.<.<.<.<.<.<.<.<.<.<.<.<.<.<.<.<.<.<.<.<.<.<.<.<.<.<.<.<.<.<.<.",
"<.<.<.<.<.<.<.<.<.<.<.<.<.<.<.<.<.<.<.<.<.<.<.<.<.<.<.<.<.<.<.<.",
"<.<.<.<.<.<.<.<.<.<.<.<.<.<.<.<.<.<.<.<.<.<.<.<.<.<.<.<.<.<.<.<.",
"<.<.<.<.<.<.<.<.<.<.<.<.<.<.<.<.<.<.<.<.<.<.<.<.<.<.<.<.<.<.<.<.",
"<.<.<.<.<.<.<.<.<.<.<.<.<.<.<.<.<.<.<.<.<.<.<.<.<.<.<.<.<.<.<.<.",
"<.<.<.<.<.<.<.<.<.<.<.<.<.<.<.<.<.<.<.<.<.<.<.<.<.<.<.<.<.<.<.<.",
"<.<.<.<.<.<.<.<.<.<.<.<.<.<.<.<.<.<.<.<.<.<.<.<.<.<.<.<.<.<.<.<.",
"<.<.<.<.<.<.<.<.<.<.<.<.<.<.<.<.<.<.<.<.<.<.<.<.<.<.<.<.<.<.<.<.",
"<.<.<.<.<.<.<.<.<.<.<.<.<.<.<.<.<.<.<.<.<.<.<.<.<.<.<.<.<.<.<.<.",
"<.<.<.<.<.<.<.<.<.<.<.<.<.<.<.<.<.<.<.<.<.<.<.<.<.<.<.<.<.<.<.<.",
"<.<.<.<.<.<.<.<.<.<.<.<.<.<.<.<.<.<.<.<.<.<.<.<.<.<.<.<.<.<.<.<.",
"<.<.<.<.<.<.<.<.<.<.<.<.<.<.<.<.<.<.<.<.<.<.<.<.<.<.<.<.<.<.<.<."
};
