/* XPM */
static char *result[] = {
/* columns rows colors chars-per-pixel */
"32 64 100 2 ",
"   c #080100",
".  c #140E0D",
"X  c #140E0E",
"o  c #001200",
"O  c #101B00",
"+  c #1D1900",
"@  c #12170B",
"#  c #1F190E",
"$  c #1E180F",
"%  c #1C1F10",
"&  c #1D1619",
"*  c #1C151B",
"=  c #1A141D",
"-  c #1B141D",
";  c #1B141E",
":  c #240700",
">  c #2F0800",
",  c #330F00",
"<  c #231C0B",
"1  c #3C1900",
"2  c #211716",
"3  c #231A11",
"4  c #221913",
"5  c #251913",
"6  c #261A13",
"7  c #122000",
"8  c #152001",
"9  c #182400",
"0  c #1A2700",
"q  c #1F2700",
"w  c #1B2900",
"e  c #232700",
"r  c #292300",
"t  c #292706",
"y  c #262900",
"u  c #252A00",
"i  c #252E00",
"p  c #2A2C00",
"a  c #24200C",
"s  c #352100",
"d  c #302403",
"f  c #392300",
"g  c #283100",
"h  c #2F3000",
"j  c #303100",
"k  c #353200",
"l  c #343300",
"z  c #343400",
"x  c #3A3300",
"c  c #3C3300",
"v  c #3C3600",
"b  c #3D3600",
"n  c #393900",
"m  c #3F3C00",
"M  c #3D3F00",
"N  c #3F3C06",
"B  c #232012",
"V  c #472B00",
"C  c #412C00",
"Z  c #423500",
"A  c #493300",
"S  c #4D3000",
"D  c #453D00",
"F  c #4D3B00",
"G  c #4E3D00",
"H  c #513C00",
"J  c #434300",
"K  c #4D4200",
"L  c #4F4300",
"P  c #6F7F3D",
"I  c #5D5857",
"U  c #6D6243",
"Y  c #777968",
"T  c #7A7672",
"R  c #E25322",
"E  c #818900",
"W  c #858907",
"Q  c #CEBF2E",
"!  c #A58A5A",
"~  c #ABC246",
"^  c #BED157",
"/  c #B7C778",
"(  c #7E6895",
")  c #8468A1",
"_  c #948D86",
"`  c #968C8F",
"'  c #918692",
"]  c #B8C482",
"[  c #D2D991",
"{  c #DCD8A1",
"}  c #CCC1BE",
"|  c #DCD2B8",
" . c #E4F2B4",
".. c #FFFFE2",
"X. c #FFFDEB",
"o. c #FFFFEB",
"O. c #FFFBED",
"+. c #FDF5F1",
"@. c FloralWhite",
"#. c None",
/* pixels */
"#.#.#.#.#.#.#.#.#.#.#.#.#.#.#.#.#.#.#.#.#.#.#.#.#.#.#.#.#.#.#.#.",
"#.#.#.#.#.#.#.#.#.#.#.#.#.#.#.#.#.#.#.#.#.#.#.#.#.#.#.#.#.#.#.#.",
"#.#.#.#.#.#.#.#.#.#.#.#.#.#.#.#.#.#.#.#.#.#.#.#.#.#.#.#.#.#.#.#.",
"#.#.#.#.#.#.#.#.#.#.#.#.#.#.#.#.#.#.#.#.#.#.#.#.#.#.#.#.#.#.#.#.",
"#.#.#.#.#.#.#.#.#.#.#.#.#.#.#.#.#.#.#.#.#.#.#.#.#.#.#.#.#.#.#.#.",
"#.#.#.#.#.#.#.#.#.#.#.#.#.#.#.#.#.#.#.#.#.#.#.#.#.#.#.#.#.#.#.#.",
"#.#.#.#.#.#.#.#.#.#.#.#.#.#.#.#.#.#.#.#.#.#.#.#.#.#.#.#.#.#.#.#.",
"#.#.#.#.#.#.#.#.#.#.#.#.#.#.#.#.#.#.#.#.#.#.#.#.#.#.#.#.#.#.#.#.",
"#.#.#.#.#.#.#.#.#.#.#.#.#.#.#.#.#.#.#.#.#.#.#.#.#.#.#.#.#.#.#.#.",
"#.#.#.#.#.#.#.#.#.#.#.#.#.#.#.#.#.#.#.#.#.#.#.#.#.#.#.#.#.#.#.#.",
"#.#.#.#.#.#.#.#.#.#.#.#.#.#.#.#.#.#.#.#.#.#.#.#.#.#.#.#.#.#.#.#.",
"#.#.#.#.#.#.#.#.#.#.#.#.#.#.#.#.#.#.#.#.#.#.#.#.#.#.#.#.#.#.#.#.",
"#.#.#.#.#.#.#.#.#.#.#.#.#.#.#.#.#.#.#.#.#.#.#.#.#.#.#.#.#.#.#.#.",
"#.#.#.#.#.#.#.#.#.#.#.#.#.#.#.#.#.#.#.#.#.#.#.#.#.#.#.#.#.#.#.#.",
"#.#.#.#.#.#.#.#.#.#.#.#.#.#.#.#.#.#.#.#.#.#.#.#.#.#.#.#.#.#.#.#.",
"#.#.#.#.#.#.#.#.#.#.#.#.#.#.#.#.#.#.#.#.#.#.#.#.#.#.#.#.#.#.#.#.",
"#.#.#.#.#.#.#.#.#.#.#.#.#.#.#.#.#.#.#.#.#.#.#.#.#.#.#.#.#.#.#.#.",
"#.#.#.#.#.#.#.#.#.#.#.#.) ) ) ) ) ) ) #.#.#.#.#.#.#.#.#.#.#.#.#.",
"#.#.#.#.#.#.#.#.#.#.) ) ) ; ; ; ; ; ) ) #.#.#.#.#.#.#.#.#.#.#.#.",
"#.#.#.#.#.#.#.#.#.I ) ; ; +.+.+.+.+.; ; ) #.#.#.#.#.#.#.#.#.#.#.",
"#.#.#.#.#.#.#.#.#.( ; } +.+.+.+.+.+.} ' ; #.#.#.#.#.#.#.#.#.#.#.",
"#.#.#.#.#.#.#.#.#.; } +.+.+.+.+.+.} } } ' + #.#.#.#.#.#.#.#.#.#.",
"#.#.#.#.#.#.#.#.#.; +.+.+.+.+.+.+.} } } } $ #.#.#.#.#.#.#.#.#.#.",
"#.#.#.#.#.#.#.#.#.; } +.} +.+.+.} ' } } } ; #.#.#.#.#.#.#.#.#.#.",
"#.#.#.#.#.#.#.#.#.; ; ; ' } ; ; ; ' ' } } ; #.#.#.#.#.#.#.#.#.#.",
"#.#.#.#.#.#.#.#.#.; ; R +.+.; R ; +.' } } ; #.#.#.#.#.#.#.#.#.#.",
"#.#.#.#.#.#.#.#.#.; ; ; ' +.; ; ; +.} } ' ; #.#.#.#.#.#.#.#.#.#.",
"#.#.#.#.#.#.#.#.#.; +.+.' } +.+.+.} } ; ; #.#.#.#.#.#.#.#.#.#.#.",
"#.#.#.#.#.#.#.#.#.= } +.+.+.+.+.} } ; ; T #.#.#.#.#.#.#.#.#.#.#.",
"#.#.#.#.#.#.#.#.#.#.; +.' +.' +.} ' ; ; Y ; ; #.#.#.#.#.#.#.#.#.",
"#.#.#.#.#.#.#.#.#.O @ ; ; ; ; ; ; ; } ' ; P #.; . #.#.#.#.#.#.#.",
"#.#.#.#.#.#.#.#.w #.O 8 % ; ]  .; +.+.X./ ; ; #.#.X #.#.#.#.#.#.",
"#.#.#.#.#.#.#.i #.9 #.#.#.#.; #._ +...[ ; #.#.; #.; #.#.#.#.#.#.",
"#.#.#.#.o 0 q #.#.#.g #.#.#.#.B ~ ; ^ ; #.#.#.U ; { - #.#.#.#.#.",
"#.#.#.#.7 #.#.u y e #.M #.#.#.j t ' & a #.#.#.; O.+.o.s #.#.#.#.",
"#.#.#.#.#.p z #.#.#.m N #.#.h #.E } W #.# #.#.; ` +.@.f #.#.#.#.",
"#.#.#.#.#.#.#.#.#.#.#.#.#.#.l #.#.r #.#.< #.#.#.; | ..V #.#.#.#.",
"#.#.#.#.#.#.#.#.#.#.#.#.#.n #.b c #.d 4 #.3 #.#.! ; 5 #.#.#.#.#.",
"#.#.#.#.#.#.#.#.#.#.#.#.J #.k #.#.#.#.* #.; #.#.#.#.#.#.#.#.#.#.",
"#.#.#.#.#.#.#.#.#.#.K D x #.v #.#.#.#.6 #.; #.#.#.#.#.#.#.#.#.#.",
"#.#.#.#.#.#.#.#.#.#.L #.Q #.Z #.#.#.#.#.; #.; #.#.#.#.#.#.#.#.#.",
"#.#.#.#.#.#.#.#.#.#.#.G #.#.A #.#.#.#.#.#.; #.; #.#.#.#.#.#.#.#.",
"#.#.#.#.#.#.#.#.#.#.#.#.H A S #.#.#.#.#.#.; #.2 #.#.#.#.#.#.#.#.",
"#.#.#.#.#.#.#.#.#.#.#.#.#.#.#.#.#.#.#.#.#.; ; #.F #.#.#.#.#.#.#.",
"#.#.#.#.#.#.#.#.#.#.#.#.#.#.#.#.#.#.#.#.1 #.#.#.C #.#.#.#.#.#.#.",
"#.#.#.#.#.#.#.#.#.#.#.#.#.#.#.#.#.#.#.#.  : , > #.#.#.#.#.#.#.#.",
"#.#.#.#.#.#.#.#.#.#.#.#.#.#.#.#.#.#.#.#.#.#.#.#.#.#.#.#.#.#.#.#.",
"#.#.#.#.#.#.#.#.#.#.#.#.#.#.#.#.#.#.#.#.#.#.#.#.#.#.#.#.#.#.#.#.",
"#.#.#.#.#.#.#.#.#.#.#.#.#.#.#.#.#.#.#.#.#.#.#.#.#.#.#.#.#.#.#.#.",
"#.#.#.#.#.#.#.#.#.#.#.#.#.#.#.#.#.#.#.#.#.#.#.#.#.#.#.#.#.#.#.#.",
"#.#.#.#.#.#.#.#.#.#.#.#.#.#.#.#.#.#.#.#.#.#.#.#.#.#.#.#.#.#.#.#.",
"#.#.#.#.#.#.#.#.#.#.#.#.#.#.#.#.#.#.#.#.#.#.#.#.#.#.#.#.#.#.#.#.",
"#.#.#.#.#.#.#.#.#.#.#.#.#.#.#.#.#.#.#.#.#.#.#.#.#.#.#.#.#.#.#.#.",
"#.#.#.#.#.#.#.#.#.#.#.#.#.#.#.#.#.#.#.#.#.#.#.#.#.#.#.#.#.#.#.#.",
"#.#.#.#.#.#.#.#.#.#.#.#.#.#.#.#.#.#.#.#.#.#.#.#.#.#.#.#.#.#.#.#.",
"#.#.#.#.#.#.#.#.#.#.#.#.#.#.#.#.#.#.#.#.#.#.#.#.#.#.#.#.#.#.#.#.",
"#.#.#.#.#.#.#.#.#.#.#.#.#.#.#.#.#.#.#.#.#.#.#.#.#.#.#.#.#.#.#.#.",
"#.#.#.#.#.#.#.#.#.#.#.#.#.#.#.#.#.#.#.#.#.#.#.#.#.#.#.#.#.#.#.#.",
"#.#.#.#.#.#.#.#.#.#.#.#.#.#.#.#.#.#.#.#.#.#.#.#.#.#.#.#.#.#.#.#.",
"#.#.#.#.#.#.#.#.#.#.#.#.#.#.#.#.#.#.#.#.#.#.#.#.#.#.#.#.#.#.#.#.",
"#.#.#.#.#.#.#.#.#.#.#.#.#.#.#.#.#.#.#.#.#.#.#.#.#.#.#.#.#.#.#.#.",
"#.#.#.#.#.#.#.#.#.#.#.#.#.#.#.#.#.#.#.#.#.#.#.#.#.#.#.#.#.#.#.#.",
"#.#.#.#.#.#.#.#.#.#.#.#.#.#.#.#.#.#.#.#.#.#.#.#.#.#.#.#.#.#.#.#.",
"#.#.#.#.#.#.#.#.#.#.#.#.#.#.#.#.#.#.#.#.#.#.#.#.#.#.#.#.#.#.#.#."
};
