/* XPM */
static char *result[] = {
/* columns rows colors chars-per-pixel */
"64 64 138 2 ",
"   c #AD753F",
".  c #AE763F",
"X  c #AE7540",
"o  c #AE7640",
"O  c #AF7741",
"+  c #B17841",
"@  c #B07842",
"#  c #B07942",
"$  c #B17943",
"%  c #B17A43",
"&  c #B47A41",
"*  c #B57B42",
"=  c #B67C42",
"-  c #B67C43",
";  c #B37B45",
":  c #B37B46",
">  c #B37C45",
",  c #B97E43",
"<  c #BA7F44",
"1  c #BA7F45",
"2  c #B47D48",
"3  c #B67E48",
"4  c #B67F48",
"5  c #B67F4A",
"6  c #BB8045",
"7  c #BB8145",
"8  c #BB8146",
"9  c #BC8146",
"0  c #B78049",
"q  c #B9814B",
"w  c #B9824B",
"e  c #BA824B",
"r  c #BD8349",
"t  c #BD844A",
"y  c #BE844B",
"u  c #B8814D",
"i  c #BA834C",
"p  c #BB834D",
"a  c #BA844C",
"s  c #BB844C",
"d  c #BA844D",
"f  c #BB844D",
"g  c #BE854D",
"h  c #BE864D",
"j  c #BF864E",
"k  c #BB8450",
"l  c #BD8651",
"z  c #BC8652",
"x  c #BE8753",
"c  c #BE8754",
"v  c #BF8951",
"b  c #C08751",
"n  c #C08851",
"m  c #C08852",
"M  c #C08952",
"N  c #C18953",
"B  c #C08A53",
"V  c #C18954",
"C  c #C18A54",
"Z  c #C28A54",
"A  c #C28A55",
"S  c #C18A57",
"D  c #C18B57",
"F  c #C28B56",
"G  c #C38B57",
"H  c #C38C57",
"J  c #C38C58",
"K  c #C38D59",
"L  c #C48D59",
"P  c #C48E5A",
"I  c #C48E5B",
"U  c #C58E5B",
"Y  c #C58F5B",
"T  c #C58E5C",
"R  c #C58F5C",
"E  c #C58F5D",
"W  c #C3905C",
"Q  c #C4905D",
"!  c #C5905D",
"~  c #C4915D",
"^  c #C6905D",
"/  c #C6905E",
"(  c #C6915F",
")  c #C5925F",
"_  c #C69160",
"`  c #C59260",
"'  c #C69260",
"]  c #C69261",
"[  c #C79361",
"{  c #C79362",
"}  c #C69463",
"|  c #C79463",
" . c #C69563",
".. c #C79464",
"X. c #C79565",
"o. c #C79665",
"O. c #C79666",
"+. c #C89565",
"@. c #C89566",
"#. c #C89666",
"$. c #C89667",
"%. c #C89768",
"&. c #C89869",
"*. c #C99869",
"=. c #C9986A",
"-. c #C8996A",
";. c #C9996A",
":. c #C89A6A",
">. c #C99A6A",
",. c #C99A6B",
"<. c #CA9A6C",
"1. c #CA9B6C",
"2. c #CA9B6D",
"3. c #CA9B6E",
"4. c #CB9C6E",
"5. c #CB9C6F",
"6. c #CB9D6F",
"7. c #CB9D70",
"8. c #CB9E71",
"9. c #CC9E71",
"0. c #CC9E72",
"q. c #CC9F72",
"w. c #CC9F73",
"e. c #CCA074",
"r. c #CDA175",
"t. c #CDA275",
"y. c #CDA176",
"u. c #CDA276",
"i. c #CDA277",
"p. c #CEA378",
"a. c #CEA47A",
"s. c #CEA57A",
"d. c #CEA57B",
"f. c #CFA57B",
"g. c #CFA67C",
"h. c #CFA67D",
"j. c #CFA77D",
"k. c None",
/* pixels */
"k.k.k.k.k.f f s a f f f f f f f f f f f f f f f f f f f f f f f f f f f f f f f f f f f f f f f f f f f f f f a s f f k.k.k.k.k.",
"k.k.k.f p i w w w q q q q q q q q q q q q q q q q q q q q q q q q q q q q q q q q q q q q q q q q q q q q q q w w w i p f k.k.k.",
"k.k.s w 4 > $ @ @ o o o o o o o o o o o o o o o o o o o o o o o o o o o o o o o o o o o o o o o o o o o o o o @ @ $ ; 3 w d k.k.",
"k.f 4 # o o o o o o o o o o o o o o o o o o o o o o o o o o o o o o o o o o o o o o o o o o o o o o o o o o o o o o o o # 0 i k.",
"k.4 O o o o o o o o o o o o o o o o o o o o o o o o o o o o o o o o o o o o o o o o o o o o o o o o o o o o o o o o o o o @ 4 k.",
"0 @ o o o o o o o o o o o o o o o o o o o o o o o o o o o o o o o o o o o o o o o o o o o o o o o o o o o o o o o o o o o o @ 0 ",
"; o o o o o o o o o o o o o o o o o o o o o o o o o o o o o o o o o o o o o o o o o o o o o o o o o o o o o o o o o o o o o o ; ",
"% o o o o o o o o o o o o o o o o o o o o o o o o o o o o o o o o o o o o o o o o o o o o o o o o o o o o o o o o o o o o o o O ",
"$ o o o o o o o o o o o o o o o o o o o o o o o o o o o o o o o o o o o o o o o o o o o o o o o o o o o o o o o o o o o o o o o ",
"o o o o o o o o o + * = - , , , , , , , , , , , , , , , , , , , , , , , , , , , , , , , , , , , , , , - = * + o o o o o o o o o ",
"o o o o o o o o & < 6 7 8 9 9 9 9 9 9 9 9 9 9 9 9 9 9 9 9 9 9 9 9 9 9 9 9 9 9 9 9 9 9 9 9 9 9 9 9 9 9 8 7 6 < & o o o o o o o o ",
"o o o o o o o + 1 y m F H I I I I I I I I I I I I I I I I I I I I I I I I I I I I I I I I I I I I I I H F m y 1 + o o o o o o o ",
"o o o o o o o - n I R R R R R R R R R R R R R R R R R R R R R R R R R R R R R R R R R R R R R R R R R R R R I n - o o o o o o o ",
"o o o o o o o e P R R R R R R R R R R R R R R R R R R R R R R R R R R R R R R R R R R R R R R R R R R R R R R P e o o o o o o o ",
"o o o o o o   l R R R R R R R R R R R R R R R R R R R R R R R R R R R R R R R R R R R R R R R R R R R R R R R R l   o o o o o o ",
"o o o o o o o c ^ R R R R R R R R R R R R R R R R R R R R R R R R R R R R R R R R R R R R R R R R R R R R R R ^ x   o o o o o o ",
"o o o o o o o x ^ R R R R R R R R R R R R R R R R R R R R R R E E E R R R R R R R R R R R R R R R R R R R R R ^ x   o o o o o o ",
"o o o o o o   x ^ R R R R R R R R R R R R R R R R R R R Y J m b b n C P R R R R R R R R R R R R R R R R R R R ^ x   o o o o o o ",
"o o o o o o   x ^ R R R R R R R R R R R R R R R R R R R Z r 7 6 6 7 9 j P R R R R R R R R R R R R R R R R R R ^ x   o o o o o o ",
"o o o o o o   x ^ R R R R R R R R R R R R R R R R R R I j v  .O.O.o.W h m R R R R R R R R R R R R R R R R R R ^ x   o o o o o o ",
"o o o o o o   x ^ R R R R R R R R R R R R R R R R R R V ~ e.s.f.d.s.a.>.M K R R R R R R R R R R R R R R R R R ^ x   o o o o o o ",
"o o o o o o   x ^ R R R R R R R R R R R R R R R R R R N ,.j.g.g.g.g.g.s.O.J R R R R R R R R R R R R R R R R R ^ x   o o o o o o ",
"o o o o o o   x ^ R R R R R R R R R R R R R R R R R R } u.g.g.g.g.g.g.h.w.' R R R R R R R R R R R R R R R R R ^ x   o o o o o o ",
"o o o o o o   x ^ R R R R R R R R R R R R R R R R R U 4.j.g.g.g.g.g.g.g.y.| Y R R R R R R R R R R R R R R R R ^ x   o o o o o o ",
"o o o o o o   x ^ R R R R R R R R R R R R R R R R R U 5.j.g.g.g.g.g.g.g.y.| Y R R R R R R R R R R R R R R R R ^ x   o o o o o o ",
"o o o o o o   x ^ R R R R R R R R R R R R R R R R R U 1.g.g.g.g.g.g.g.h.r.{ R R R R R R R R R R R R R R R R R ^ x   o o o o o o ",
"o o o o o o   x ^ R R R R R R R R R R R R R R R R R U *.a.g.g.g.g.g.g.j.q._ R R R R R R R R R R R R R R R R R ^ x   o o o o o o ",
"o o o o o o   x ^ R R R R R R R R R R R R R R R R R U ;.s.g.g.g.g.g.g.j.0.( R R R R R R R R R R R R R R R R R ^ x   o o o o o o ",
"o o o o o o   x ^ R R R R R R R R R R R R R R R R R Y #.p.g.g.g.g.g.g.j.q.( R R R R R R R R R R R R R R R R R ^ x   o o o o o o ",
"o o o o o o   x ^ R R R R R R R R R R R R R R R R R Y +.i.g.g.g.g.g.g.j.6.R R R R R R R R R R R R R R R R R R ^ x   o o o o o o ",
"o o o o o o   x ^ R R R R R R R R R R R R R R R R R Y +.i.g.g.g.g.g.g.j.4.U R R R R R R R R R R R R R R R R R ^ x   o o o o o o ",
"o o o o o o   x ^ R R R R R R R R R R R R R R R R R R ] e.h.g.g.g.g.g.j.4.U R R R R R R R R R R R R R R R R R ^ x   o o o o o o ",
"o o o o o o   x ^ R R R R R R R R R R R R R R R R R R _ e.h.g.g.g.g.g.h.4.U R R R R R R R R R R R R R R R R R ^ x   o o o o o o ",
"o o o o o o   x ^ R R R R R R R R R R R R R R R R R R ( e.h.g.g.g.g.g.s.;.U R R R R R R R R R R R R R R R R R ^ x   o o o o o o ",
"o o o o o o   x ^ R R R R R R R R R R R R R R R R R R U 9.j.g.g.g.g.g.s.;.U R R R R R R R R R R R R R R R R R ^ x   o o o o o o ",
"o o o o o o   x ^ R R R R R R R R R R R R R R R R R R U 9.j.g.g.g.g.g.a.*.U R R R R R R R R R R R R R R R R R ^ x   o o o o o o ",
"o o o o o o   x ^ R R R R R R R R R R R R R R R R R R U 5.g.g.g.g.g.g.p.$.Y R R R R R R R R R R R R R R R R R ^ x   o o o o o o ",
"o o o o o o   x ^ R R R R R R R R R R R R R R R R R R Y <.d.g.g.g.g.g.i.+.Y R R R R R R R R R R R R R R R R R ^ x   o o o o o o ",
"o o o o o o   x ^ R R R R R R R R R R R R R R R R R R Y =.a.g.g.g.g.j.r.' R R R R R R R R R R R R R R R R R R ^ x   o o o o o o ",
"o o o o o o   x ^ R R R R R R R R R R R R R R R R R R R ' 7.f.g.g.g.i.#.R R R R R R R R R R R R R R R R R R R ^ x   o o o o o o ",
"o o o o o o   x ^ R R R R R R R R R R R R R R R R R R R R ( X.-.&.&.[ E R R R R R R R R R R R R R R R R R R R ^ x   o o o o o o ",
"o o o o o o   x ^ R R R R R R R R R R R R R R R R R R R R A t r r r g I R R R R R R R R R R R R R R R R R R R ^ x   o o o o o o ",
"o o o o o o   x ^ R R R R R R R R R R R R R R R R R R R R j h B C M t n R R R R R R R R R R R R R R R R R R R ^ x   o o o o o o ",
"o o o o o o   x ^ R R R R R R R R R R R R R R R R R R R G ) t.s.a.a.:.j L R R R R R R R R R R R R R R R R R R ^ x   o o o o o o ",
"o o o o o o   x ^ R R R R R R R R R R R R R R R R R R R Q e.g.g.g.g.u.` L R R R R R R R R R R R R R R R R R R ^ x   o o o o o o ",
"o o o o o o   x ^ R R R R R R R R R R R R R R R R R R R #.p.g.g.g.g.g.8./ R R R R R R R R R R R R R R R R R R ^ x   o o o o o o ",
"o o o o o o   x ^ R R R R R R R R R R R R R R R R R R R @.p.g.g.g.g.j.e.( R R R R R R R R R R R R R R R R R R ^ x   o o o o o o ",
"o o o o o o   x ^ R R R R R R R R R R R R R R R R R R R ] y.h.g.g.g.g.3.E R R R R R R R R R R R R R R R R R R ^ x   o o o o o o ",
"o o o o o o   x ^ R R R R R R R R R R R R R R R R R R R R %.i.g.j.f.6.] R R R R R R R R R R R R R R R R R R R ^ x   o o o o o o ",
"o o o o o o   x ^ R R R R R R R R R R R R R R R R R R R R R ..<.2.*.( R R R R R R R R R R R R R R R R R R R R ^ x   o o o o o o ",
"o o o o o o   x ^ R R R R R R R R R R R R R R R R R R R R R Y ! ! R R R R R R R R R R R R R R R R R R R R R R ^ x   o o o o o o ",
"o o o o o o   x ^ R R R R R R R R R R R R R R R R R R R R R R R R R R R R R R R R R R R R R R R R R R R R R R ^ x   o o o o o o ",
"o o o o o o   z R R R R R R R R R R R R R R R R R R R R R R R R R R R R R R R R R R R R R R R R R R R R R R R R z   o o o o o o ",
"o o o o o o o u P R R R R R R R R R R R R R R R R R R R R R R R R R R R R R R R R R R R R R R R R R R R R R R P u o o o o o o o ",
"o o o o o o o : S R R R R R R R R R R R R R R R R R R R R R R R R R R R R R R R R R R R R R R R R R R R R R R S : o o o o o o o ",
"o o o o o o o o 5 D T ! ^ ^ ^ ^ ^ ^ ^ ^ ^ ^ ^ ^ ^ ^ ^ ^ ^ ^ ^ ^ ^ ^ ^ ^ ^ ^ ^ ^ ^ ^ ^ ^ ^ ^ ^ ^ ^ ^ ^ ^ ! T D 5 o o o o o o o o ",
"o o o o o o o o o 2 k x x x x x x x x x x x x x x x x x x x x x x x x x x x x x x x x x x x x x x x x x x k 2 o o o o o o o o o ",
"X o o o o o o o o o .                                                                                     . o o o o o o o o o o ",
"o o o o o o o o o o o o o o o o o o o o o o o o o o o o o o o o o o o o o o o o o o o o o o o o o o o o o o o o o o o o o o o X ",
"k.o o o o o o o o o o o o o o o o o o o o o o o o o o o o o o o o o o o o o o o o o o o o o o o o o o o o o o o o o o o o o o k.",
"k.o o o o o o o o o o o o o o o o o o o o o o o o o o o o o o o o o o o o o o o o o o o o o o o o o o o o o o o o o o o o o o k.",
"k.k.o o o o o o o o o o o o o o o o o o o o o o o o o o o o o o o o o o o o o o o o o o o o o o o o o o o o o o o o o o o o k.k.",
"k.k.k.X o o o o o o o o o o o o o o o o o o o o o o o o o o o o o o o o o o o o o o o o o o o o o o o o o o o o o o o o X k.k.k.",
"k.k.k.k.k.o o o o o o o o o o o o o o o o o o o o o o o o o o o o o o o o o o o o o o o o o o o o o o o o o o o o o o k.k.k.k.k."
};
