/* XPM */
static char *result[] = {
/* columns rows colors chars-per-pixel */
"64 64 46 1 ",
"  c #030202",
". c #090606",
"X c #0D0A0A",
"o c #130E0E",
"O c #161212",
"+ c #1C1414",
"@ c #1E1818",
"# c #211616",
"$ c #241A1A",
"% c #2A1D1D",
"& c #301F1F",
"* c #2C2121",
"= c #342323",
"- c #3A2626",
"; c #342828",
": c #3E2929",
"> c #432C2C",
", c #492F2F",
"< c #473030",
"1 c #4C3232",
"2 c #543636",
"3 c #563939",
"4 c #5E3C3C",
"5 c #613E3E",
"6 c #5E4141",
"7 c #654141",
"8 c #6B4545",
"9 c #6D4949",
"0 c #704747",
"q c #744A4A",
"w c #7A4E4E",
"e c #7E5151",
"r c #835454",
"t c #885757",
"y c #875858",
"u c #8C5A5A",
"i c #925E5E",
"p c #966161",
"a c #9B6464",
"s c #A06767",
"d c #A46969",
"f c #AA6D6D",
"g c #AF7070",
"h c #B47373",
"j c #BA7777",
"k c #BC7979",
/* pixels */
" . .                                      .  .             X... ",
"551,,,,>>>>>>$.,1----=-&.:2>->>->=-=-%#32,,,,,>>,>>,>>>>-#,311,O",
"tw55445445545-Ow85555451O5q5255545545,&q85445544545544554&50555#",
"uw75444444455>Ow84445552O8q55552445441&q55544455554555554&50555#",
"uw55554455555-Or05444452o0q5555555444,=w85555554454554255&00555#",
"iw55545525255>Or85544442O0r5555544445,&r85554555544455545&05555#",
"iw74454555555>+t05544452O0w55555445552-r55444545444445552>q0555#",
"pw74445455555>+t05344454+qq5525555544,-t84445444544425554&q0555#",
"sr85544555555>#iw5555552+ee74544455571:i05575554555555552&r0555$",
"ffiurrwqr000r2+spywqq0q8@rdurrewwrqq05-daiuuyyyr0rrrrr5rq>tir0q$",
"&2,,,>>>>>>>>&.,74432111o=77444444321>O>211111,,>>,>->-->+&,>--.",
"%#########+#oo&&$$$$$$%$%$@####+o%&#%$$#@@X*%##@##o#$###+++o+++.",
"tq5544444444>%q84444444444444442=505444432=0844452&505552442255#",
"uq5544544445>%w85444455554445544=885454542=0844452>q55555544555&",
"iq5544543445,%r85554455554445444-985454452-q844455>055444554555-",
"iq5455454455,=w85444455554444544:q85454453-w844452>q55444544555&",
"sw54554455451*r84544444444474774-e87444453:e844452>r85554544455=",
"sq5544444444,=t84444454544744454:e05447454:r957652>w85544544445=",
"sw5555554444,=u85555455544444474>e07744443:u074454>r85544555555-",
"guw0800588881=ay0880888888877788:iu0877885>pr08855>ir9888588558-",
"usiutttrrrqq6@uapuuuuryrrewwq9qq:9aieeq909;raue9qq=rspitrwwqqqq-",
".XXXXooooooOoXOOOO@++@@@@@@@@@@@@O@@@@@@@@OO+@@OOoXoO+OOOoOoooo ",
",1>&-=--=O:1::>-::::::*;41<<<>,>::;*31,>>:;%1:-->=--=--=&&=&&&X ",
"rr5555254%797445674444<10854644464338746441>084555554544555554# ",
"rq5545454%805555575444110754554444230774552<q74455555545554455# ",
"rq5545544%80755554444413w74444444434q7745411q85445544554554445# ",
"tq5545544&qq457444444513w74447444434w8545411e75445544444445455# ",
"ur5544443&qq445754446414e84544447426w7745613r74554544444555445# ",
"ir5555554&wq744454444416r74444464436r8444421r74444555455455555$ ",
"ir5555555&rw855445476416y84677767439t8547613y87445555554544445# ",
"sdtw00000=uatrwewwqq0946fiyeeeweq076durq9q43steewqqq00qq0q8800% ",
",05542222#,088888886441*79897866663;7974331*9eqqq9997585554433O ",
"XooooooooooooX#@@@@@#@##@@@O@**$@*$$@O@$#@@@@O@OOOooOOooooo.o.. ",
"q03233322242-*q823243333323%694413323;774222322232&-8422222222,o",
"tw5455444455,;q744445455444*607445444:984444544554-,07445545554O",
"uq5455444455,=w744545554444*9q7464573<q85444445445-1q5445555555+",
"uq5544445445,=e844455444474*9q7554744<q85544454455:1w5542555554O",
"iw55444444551-r955545455444*9q6554443<e85454454555>1e7445555555+",
"iw55444555441-y855444544544*9e7454443<e85444444455>2r5545555555#",
"ar55454554451:t855544554544*qe7447444<r95555454555-2r8555555255#",
"st55555555551>pw85776755777=wy9777756<pq7777755555>4u0555555555$",
"agauaaiirrqr5&sdaiuyereeqqw;9dayrwwww:pfapppuuurwr21gdaiiuuurrr#",
"o$$$&$$&%$#%%X@%%%%*****%*%O@******%*O%=;;;*=***%*#o&=&&&&&&&$#.",
"X##+oo++O++++#@oO$##@@@@#@##@+@@@@OO%$@@@@@@+@@@OoO#OOoooooXXX. ",
"2r5452253343222>:844424332222222111>744313322422,#48222,222112>.",
"5r55555554555551<q7544545455445444228745445444453$7055555555551.",
"5r554454455444721q745555544555544433q844454444554%8055522555552X",
"5r545445554555511w854444555454444434q745455444554%8055555555552X",
"5u5555555555555,,w854454445555554434r545555525553%q055554454452.",
"5i5555555255555,2r554455545455445545r554555555552%wq54544455452o",
"5i555555555555522u854545444555554535t555555555553%eq54444555553X",
"rar55555555555523iq05885585555555548iq88555555554%yr85555555554X",
"2fapiitttrrrr0r5>ssiiiuuututrwrwrq04sdiittrqrr5rq%ehpiuitttrwr5X",
".ooo+o+o++o+o+#oXO$#$$$#$##$######@X##$#########@X+%%%%%&$$###O ",
"&$#+######+#+#####oo$##++++OOO++oo%%###########+Oo$$$#++++#++++X",
"t05524442552552524&,q52243333222,=q55252455222422,7754445225225&",
"i05252555555555525&1q54444545344,-q55444555552545,0555555555555&",
"a05555255525555255>,w555445454451>q85555255555455,r555555552555-",
"aq5555555552525555>2w555544544452-w54555455554555,0555555555555>",
"a05555555255255555&2r555454555552>r845555555554452r552555555555>",
"d05555555555555255>2r555445255552>r844455555455552r555555555555,",
"gr5555555555555555&2r54555555555,>t855445555555525i555552555555,",
"jt5050055550555555>5iq50055555852>aw08885555555552ar50555555555,",
"hjddssaaasipputttt,1kggdsiiuutuuq=fhfssaaaaittrtt2ijfdfpiiittti2"
};
